<?xml version="1.0" encoding="UTF-8"?>
<!DOCTYPE svg PUBLIC "-//W3C//DTD SVG 1.1//EN" "http://www.w3.org/Graphics/SVG/1.1/DTD/svg11.dtd">
<svg xmlns="http://www.w3.org/2000/svg" version="1.1" width="60px" height="60px" style="shape-rendering:geometricPrecision; text-rendering:geometricPrecision; image-rendering:optimizeQuality; fill-rule:evenodd; clip-rule:evenodd" xmlns:xlink="http://www.w3.org/1999/xlink">
<g><path style="opacity:1" fill="#f9f3f4" d="M -0.5,-0.5 C 9.16667,-0.5 18.8333,-0.5 28.5,-0.5C 19.8692,5.41106 10.2025,8.07772 -0.5,7.5C -0.5,4.83333 -0.5,2.16667 -0.5,-0.5 Z"/></g>
<g><path style="opacity:1" fill="#f8f0f1" d="M 30.5,-0.5 C 40.1667,-0.5 49.8333,-0.5 59.5,-0.5C 59.5,2.16667 59.5,4.83333 59.5,7.5C 48.721,8.39166 39.0544,5.725 30.5,-0.5 Z"/></g>
<g><path style="opacity:1" fill="#faf4f4" d="M -0.5,10.5 C 0.870072,18.6613 2.03674,26.9946 3,35.5C 5.1269,41.5842 8.6269,46.7508 13.5,51C 18.5625,53.8607 23.5625,56.694 28.5,59.5C 18.8333,59.5 9.16667,59.5 -0.5,59.5C -0.5,43.1667 -0.5,26.8333 -0.5,10.5 Z"/></g>
<g><path style="opacity:1" fill="#f9f3f4" d="M 59.5,17.5 C 59.5,31.5 59.5,45.5 59.5,59.5C 49.8333,59.5 40.1667,59.5 30.5,59.5C 35.1126,56.1878 40.1126,53.3545 45.5,51C 55.4514,42.894 59.6181,32.394 58,19.5C 58.2784,18.5842 58.7784,17.9175 59.5,17.5 Z"/></g>
<g><path style="opacity:1" fill="#c34649" d="M 28.5,-0.5 C 29.1667,-0.5 29.8333,-0.5 30.5,-0.5C 39.0544,5.725 48.721,8.39166 59.5,7.5C 59.5,10.8333 59.5,14.1667 59.5,17.5C 58.7784,17.9175 58.2784,18.5842 58,19.5C 59.6181,32.394 55.4514,42.894 45.5,51C 40.1126,53.3545 35.1126,56.1878 30.5,59.5C 29.8333,59.5 29.1667,59.5 28.5,59.5C 23.5625,56.694 18.5625,53.8607 13.5,51C 8.6269,46.7508 5.1269,41.5842 3,35.5C 2.03674,26.9946 0.870072,18.6613 -0.5,10.5C -0.5,9.5 -0.5,8.5 -0.5,7.5C 10.2025,8.07772 19.8692,5.41106 28.5,-0.5 Z"/></g>
<g><path style="opacity:1" fill="#daadb4" d="M 48.5,10.5 C 50.8333,10.5 53.1667,10.5 55.5,10.5C 55.8168,14.7016 55.4834,18.7016 54.5,22.5C 54.5,18.8333 54.5,15.1667 54.5,11.5C 52.2646,11.7947 50.2646,11.4614 48.5,10.5 Z"/></g>
<g><path style="opacity:1" fill="#d4a5ad" d="M 10.5,10.5 C 8.73535,11.4614 6.73535,11.7947 4.5,11.5C 4.5,14.1667 4.5,16.8333 4.5,19.5C 3.52333,16.7131 3.19,13.7131 3.5,10.5C 5.83333,10.5 8.16667,10.5 10.5,10.5 Z"/></g>
<g><path style="opacity:1" fill="#fcf8f9" d="M 48.5,10.5 C 50.2646,11.4614 52.2646,11.7947 54.5,11.5C 54.5,15.1667 54.5,18.8333 54.5,22.5C 54.8006,32.7302 51.1339,41.2302 43.5,48C 38.7423,50.1267 34.2423,52.6267 30,55.5C 12.3796,49.9164 3.87958,37.9164 4.5,19.5C 4.5,16.8333 4.5,14.1667 4.5,11.5C 6.73535,11.7947 8.73535,11.4614 10.5,10.5C 16.7274,9.03625 22.8941,7.03625 29,4.5C 35.3022,7.52778 41.8022,9.52778 48.5,10.5 Z"/></g>
<g><path style="opacity:1" fill="#c4494c" d="M 21.5,37.5 C 19.8333,33.8333 17.1667,31.1667 13.5,29.5C 12.596,28.791 12.2627,27.791 12.5,26.5C 13.8734,26.3433 15.2068,26.51 16.5,27C 19,29.5 21.5,32 24,34.5C 29.8333,28.6667 35.6667,22.8333 41.5,17C 43.6667,16.5 44.5,17.3333 44,19.5C 37.8333,25.6667 31.6667,31.8333 25.5,38C 24.0715,38.5791 22.7382,38.4124 21.5,37.5 Z"/></g>
<g><path style="opacity:1" fill="#c2727a" d="M 13.5,29.5 C 17.1667,31.1667 19.8333,33.8333 21.5,37.5C 18.5,35.1667 15.8333,32.5 13.5,29.5 Z"/></g>
</svg>
