<?xml version="1.0" encoding="UTF-8"?>
<!DOCTYPE svg PUBLIC "-//W3C//DTD SVG 1.1//EN" "http://www.w3.org/Graphics/SVG/1.1/DTD/svg11.dtd">
<svg xmlns="http://www.w3.org/2000/svg" version="1.1" width="60px" height="60px" style="shape-rendering:geometricPrecision; text-rendering:geometricPrecision; image-rendering:optimizeQuality; fill-rule:evenodd; clip-rule:evenodd" xmlns:xlink="http://www.w3.org/1999/xlink">
<g><path style="opacity:1" fill="#fcf9fa" d="M -0.5,-0.5 C 6.83333,-0.5 14.1667,-0.5 21.5,-0.5C 15.7022,2.10833 10.5355,5.77499 6,10.5C 3.80704,14.2299 1.64038,17.8965 -0.5,21.5C -0.5,14.1667 -0.5,6.83333 -0.5,-0.5 Z"/></g>
<g><path style="opacity:1" fill="#fcf8f8" d="M 36.5,-0.5 C 44.1667,-0.5 51.8333,-0.5 59.5,-0.5C 59.5,6.83333 59.5,14.1667 59.5,21.5C 57.0533,16.1241 53.72,11.2907 49.5,7C 45.0717,4.45936 40.7384,1.95936 36.5,-0.5 Z"/></g>
<g><path style="opacity:1" fill="#c64749" d="M 21.5,-0.5 C 26.5,-0.5 31.5,-0.5 36.5,-0.5C 40.7384,1.95936 45.0717,4.45936 49.5,7C 53.72,11.2907 57.0533,16.1241 59.5,21.5C 59.5,26.1667 59.5,30.8333 59.5,35.5C 57.2979,40.2324 54.7979,44.899 52,49.5C 47.1603,53.4932 41.9937,56.8265 36.5,59.5C 31.5,59.5 26.5,59.5 21.5,59.5C 16.1241,57.0533 11.2907,53.72 7,49.5C 4.45936,45.0717 1.95936,40.7384 -0.5,36.5C -0.5,31.5 -0.5,26.5 -0.5,21.5C 1.64038,17.8965 3.80704,14.2299 6,10.5C 10.5355,5.77499 15.7022,2.10833 21.5,-0.5 Z"/></g>
<g><path style="opacity:1" fill="#fcf8f8" d="M 22.5,3.5 C 38.215,1.76582 49.0483,8.09916 55,22.5C 57.2186,38.6056 50.7186,49.439 35.5,55C 20.3524,57.0022 9.8524,50.8355 4,36.5C 1.85433,20.7875 8.021,9.78754 22.5,3.5 Z"/></g>
<g><path style="opacity:1" fill="#b67180" d="M 20.5,10.5 C 22.6074,9.53178 24.9407,9.19845 27.5,9.5C 27.8432,11.4832 27.1765,12.8166 25.5,13.5C 25.8039,12.8501 26.1373,12.1835 26.5,11.5C 24.604,10.5344 22.604,10.2011 20.5,10.5 Z"/></g>
<g><path style="opacity:1" fill="#c1494d" d="M 20.5,10.5 C 22.604,10.2011 24.604,10.5344 26.5,11.5C 26.1373,12.1835 25.8039,12.8501 25.5,13.5C 19.0436,14.4506 14.8769,18.1173 13,24.5C 11.9887,25.3366 10.8221,25.67 9.5,25.5C 10.4493,18.545 14.116,13.545 20.5,10.5 Z"/></g>
<g><path style="opacity:1" fill="#c24a4e" d="M 25.5,19.5 C 34.8767,19.0456 39.3767,23.379 39,32.5C 32.5829,41.7559 26.2496,41.7559 20,32.5C 18.8312,26.8527 20.6645,22.5194 25.5,19.5 Z"/></g>
<g><path style="opacity:1" fill="#f8eced" d="M 26.5,23.5 C 35.8176,23.6546 37.8176,27.488 32.5,35C 23.0959,35.141 21.0959,31.3076 26.5,23.5 Z"/></g>
<g><path style="opacity:1" fill="#fcf8f8" d="M -0.5,36.5 C 1.95936,40.7384 4.45936,45.0717 7,49.5C 11.2907,53.72 16.1241,57.0533 21.5,59.5C 14.1667,59.5 6.83333,59.5 -0.5,59.5C -0.5,51.8333 -0.5,44.1667 -0.5,36.5 Z"/></g>
<g><path style="opacity:1" fill="#faf3f4" d="M 59.5,35.5 C 59.5,43.5 59.5,51.5 59.5,59.5C 51.8333,59.5 44.1667,59.5 36.5,59.5C 41.9937,56.8265 47.1603,53.4932 52,49.5C 54.7979,44.899 57.2979,40.2324 59.5,35.5 Z"/></g>
</svg>
