<?xml version="1.0" encoding="UTF-8"?>
<svg width="71px" height="60px" viewBox="0 0 71 60" version="1.1" xmlns="http://www.w3.org/2000/svg" xmlns:xlink="http://www.w3.org/1999/xlink">
    <title>instance</title>
    <g stroke="none" stroke-width="1" fill="none" fill-rule="evenodd">
        <path d="M5.21566346e-05,11.6243046 L5.21566346e-05,6.31022059 C0.00489180057,2.82703935 3.05405228,0.00447998143 6.81687077,0 L57.2534224,0 C61.0176064,0 64.0658487,2.82577533 64.070241,6.31022059 L64.070241,11.6243046 C64.0654014,15.1074858 61.0162409,17.9300452 57.2534224,17.9345251 L6.81687077,17.9345251 C3.05576378,17.9300508 0.00730988103,15.1099637 5.21566346e-05,11.6283704 L5.21566346e-05,11.6243046 Z M4.3863064,4.06196995 C3.74216323,4.65976803 3.38094213,5.46995063 3.38210217,6.31428645 L3.38210217,11.6243046 C3.38210217,13.3766918 4.92379807,14.80381 6.81687077,14.80381 L57.2534224,14.80381 C59.1508874,14.80381 60.6881854,13.3807577 60.6881854,11.6243046 L60.6881854,6.31022059 C60.6881854,4.5542282 59.1503896,3.13069538 57.2534224,3.13069538 L6.81687077,3.13069538 C5.90474985,3.12772689 5.03044958,3.46417186 4.3863064,4.06196995 Z M12.4565583,6.92416602 C13.7325235,6.24265235 15.3637276,6.64768005 16.0999546,7.82882071 C16.8361817,9.00996137 16.3986375,10.5199411 15.1226723,11.2014547 C13.8467071,11.8829684 12.2155031,11.4779407 11.479276,10.2968 C10.743049,9.11565937 11.1805932,7.60567969 12.4565583,6.92416602 L12.4565583,6.92416602 Z M12.4565583,27.6356761 C13.2826818,27.1707583 14.315965,27.1562698 15.1569214,27.5978122 C15.9978778,28.0393545 16.5147096,28.8677276 16.5075998,29.7626669 C16.50049,30.6576062 15.970553,31.4788534 15.1226723,31.908899 C13.8571603,32.5190612 12.2970178,32.0987301 11.582886,30.9552154 C10.8687542,29.8117007 11.2538208,28.3504229 12.4565583,27.639742 L12.4565583,27.6356761 Z M11.1213052,51.1282371 C11.1213052,49.7652097 12.3149651,48.6602577 13.7874192,48.6602577 C15.2598733,48.6602577 16.4535332,49.7652097 16.4535332,51.1282371 C16.4535332,52.4912644 15.2598733,53.5962164 13.7874192,53.5962164 C12.3149651,53.5962164 11.1213052,52.4912644 11.1213052,51.1282371 Z M6.81687077,38.6948256 C3.05405228,38.6903456 0.00489180057,35.8677863 5.21566346e-05,32.384605 L5.21566346e-05,27.0664552 C0.00489180057,23.583274 3.05405228,20.7607146 6.81687077,20.7562346 L57.2534224,20.7562346 C61.0162409,20.7607146 64.0654014,23.583274 64.070241,27.0664552 L64.070241,32.3805392 C64.070241,33.2450623 63.3131421,33.9458967 62.3792132,33.9458967 C61.4452843,33.9458967 60.6881854,33.2450623 60.6881854,32.3805392 L60.6881854,27.0664552 C60.6857655,25.3113915 59.1493864,23.8891898 57.2534224,23.8869497 L6.81687077,23.8869497 C4.9209068,23.8891898 3.38452765,25.3113915 3.38210778,27.0664552 L3.38210778,32.384605 C3.38210778,34.1329265 4.92379807,35.5600446 6.81687077,35.5600446 L25.0140869,35.5600446 C25.9480158,35.5600446 26.7051148,36.2608791 26.7051148,37.1254022 C26.7051148,37.9899253 25.9480158,38.6907598 25.0140869,38.6907598 L6.81687077,38.6907598 L6.81687077,38.6948256 Z M6.81687077,59.999976 C5.00898992,60.0045989 3.27413698,59.339977 1.99853957,58.1540497 C0.714707997,56.9729279 -0.00498013831,55.3652535 2.59425711e-05,53.6897312 L2.59425711e-05,48.3756473 C0.00489180057,44.892466 3.05405228,42.0699067 6.81687077,42.0654267 L17.7097252,42.0654267 C18.3138713,42.0654267 18.8721253,42.3637821 19.1741984,42.8481054 C19.4762714,43.3324288 19.4762714,43.9291397 19.1741984,44.4134631 C18.8721253,44.8977864 18.3138713,45.1961418 17.7097252,45.1961418 L6.81687077,45.1961418 C4.9209068,45.1983818 3.38452765,46.6205836 3.38210778,48.3756473 L3.38210778,53.6897312 C3.37740465,54.5343157 3.73776995,55.3455673 4.38293529,55.9427866 C5.02810064,56.5400059 5.90448131,56.8735903 6.81687077,56.8692367 L17.7097252,56.8692367 C18.3138713,56.8692367 18.8721254,57.1675921 19.1741984,57.6519155 C19.4762715,58.1362388 19.4762715,58.7329498 19.1741984,59.2172731 C18.8721254,59.7015964 18.3138713,59.999976 17.7097252,59.999976 L6.81687077,59.999976 L6.81687077,59.999976 Z M28.5542647,59.7356707 C28.4613302,59.7496233 28.3673065,59.756423 28.2731587,59.756 C25.7094831,59.7591559 23.2619892,58.7664782 21.5266166,57.0196737 C19.2153985,54.6854783 18.4952935,51.356451 19.657426,48.378453 C20.8195586,45.4004551 23.6717403,43.2659746 27.0608894,42.8379408 C27.5001174,38.6216401 31.3433625,35.3160928 36.0079639,35.3160928 L36.4120536,35.3160928 C37.154349,35.3079611 37.9932744,35.3038952 38.8234154,35.4177394 C39.4954342,33.579969 40.6989189,32.0715335 42.3548085,31.0184748 C44.2083507,29.8393743 46.5450437,29.2376265 49.294611,29.2376265 C54.9579269,29.245055 59.7633036,33.0864991 60.5959475,38.2719758 C66.1996909,39.1847047 70.2836514,43.6941522 70.276542,48.9611317 C70.276542,51.7787753 69.1125785,54.4500478 67.0042841,56.4829797 C65.2385875,58.1906425 62.9150713,59.3128209 60.3939026,59.6828145 C60.2563145,59.7167975 60.1146402,59.7345568 59.9722437,59.7356707 C59.5022698,59.7885269 59.0279035,59.816988 58.5535373,59.816988 C58.3743452,59.8154376 58.1965129,59.7880015 58.0264637,59.7356707 L28.5498724,59.7356707 L28.5542647,59.7356707 Z M28.1809208,56.6049556 L59.7526297,56.6049556 C63.86001,56.0632835 66.9074582,52.8016403 66.8945184,48.9611317 C66.8997141,44.8455381 63.4115722,41.451953 58.9708039,41.2522539 C58.0405571,41.2191572 57.3121337,40.4995521 57.3368757,39.638106 C57.2412214,35.5922091 53.6663601,32.3607313 49.294611,32.3683282 C46.3869216,32.3683282 42.7281523,33.2099754 41.7925967,37.2067195 C41.7491975,37.3996492 41.6798445,37.5867824 41.5861595,37.7637428 C41.4544392,38.2364261 41.0920416,38.6251671 40.6061825,38.8149561 C40.1203233,39.0047451 39.56663,38.9738527 39.1089136,38.7314184 C38.5423094,38.4305445 37.422278,38.4386762 36.4296227,38.4468079 L36.0079639,38.4468079 C34.4429163,38.4503024 32.9502731,39.0575208 31.8891103,40.1223881 C30.8279475,41.1872554 30.2943171,42.6133844 30.4165914,44.0576999 L30.4165914,44.2284662 C30.4501714,44.6768814 30.2738919,45.1170211 29.9326446,45.4367986 C29.5913972,45.7565761 29.1181153,45.9251301 28.6333257,45.8995362 C27.0364452,45.8099182 25.4703703,46.3341517 24.3047524,47.3484983 C23.1391346,48.362845 22.4772577,49.7774248 22.4753491,51.2583447 C22.4753491,54.0231321 24.8032575,56.3691355 27.7680465,56.6049556 L27.9569146,56.6171532 C28.0311566,56.607983 28.1060294,56.603906 28.1809208,56.6049556 L28.1809208,56.6049556 Z" fill="#5B8FF9" fill-rule="nonzero"></path>
    </g>
</svg>