<?xml version="1.0" encoding="UTF-8"?>
<!DOCTYPE svg PUBLIC "-//W3C//DTD SVG 1.1//EN" "http://www.w3.org/Graphics/SVG/1.1/DTD/svg11.dtd">
<svg xmlns="http://www.w3.org/2000/svg" version="1.1" width="62px" height="56px" style="shape-rendering:geometricPrecision; text-rendering:geometricPrecision; image-rendering:optimizeQuality; fill-rule:evenodd; clip-rule:evenodd" xmlns:xlink="http://www.w3.org/1999/xlink">
<g><path style="opacity:1" fill="#fdfcfc" d="M -0.5,-0.5 C 15.8333,-0.5 32.1667,-0.5 48.5,-0.5C 44.4118,1.58669 42.4118,4.92002 42.5,9.5C 33.7521,12.7041 25.0854,16.2041 16.5,20C 12.1667,20.3333 7.83333,20.6667 3.5,21C 2.29493,22.3756 0.961599,23.5423 -0.5,24.5C -0.5,16.1667 -0.5,7.83333 -0.5,-0.5 Z"/></g>
<g><path style="opacity:1" fill="#f7e8e8" d="M 54.5,-0.5 C 56.8333,-0.5 59.1667,-0.5 61.5,-0.5C 61.5,1.5 61.5,3.5 61.5,5.5C 59.7656,2.79973 57.4323,0.799728 54.5,-0.5 Z"/></g>
<g><path style="opacity:1" fill="#fdfafa" d="M 61.5,10.5 C 61.5,25.5 61.5,40.5 61.5,55.5C 54.8333,55.5 48.1667,55.5 41.5,55.5C 49.0534,50.4543 49.3867,44.9543 42.5,39C 37.7002,38.5205 33.0335,38.8539 28.5,40C 25.3372,37.5843 22.0039,35.4177 18.5,33.5C 17.5108,29.8927 17.1774,26.226 17.5,22.5C 26.064,19.3002 34.564,15.9669 43,12.5C 44.7748,13.2703 46.2748,14.437 47.5,16C 50.5,16.6667 53.5,16.6667 56.5,16C 58.3003,14.1881 59.9669,12.3548 61.5,10.5 Z"/></g>
<g><path style="opacity:1" fill="#c54a4d" d="M 48.5,-0.5 C 50.5,-0.5 52.5,-0.5 54.5,-0.5C 57.4323,0.799728 59.7656,2.79973 61.5,5.5C 61.5,7.16667 61.5,8.83333 61.5,10.5C 59.9669,12.3548 58.3003,14.1881 56.5,16C 53.5,16.6667 50.5,16.6667 47.5,16C 46.2748,14.437 44.7748,13.2703 43,12.5C 34.564,15.9669 26.064,19.3002 17.5,22.5C 17.1774,26.226 17.5108,29.8927 18.5,33.5C 22.0039,35.4177 25.3372,37.5843 28.5,40C 33.0335,38.8539 37.7002,38.5205 42.5,39C 49.3867,44.9543 49.0534,50.4543 41.5,55.5C 39.1667,55.5 36.8333,55.5 34.5,55.5C 30.9217,52.3435 28.9217,48.3435 28.5,43.5C 24.3318,41.2503 20.3318,38.7503 16.5,36C 12.5305,36.3257 8.53047,36.3257 4.5,36C 2.50287,34.8068 0.836207,33.3068 -0.5,31.5C -0.5,29.1667 -0.5,26.8333 -0.5,24.5C 0.961599,23.5423 2.29493,22.3756 3.5,21C 7.83333,20.6667 12.1667,20.3333 16.5,20C 25.0854,16.2041 33.7521,12.7041 42.5,9.5C 42.4118,4.92002 44.4118,1.58669 48.5,-0.5 Z"/></g>
<g><path style="opacity:1" fill="#f8edee" d="M 48.5,3.5 C 57.5299,2.65997 59.5299,5.82664 54.5,13C 46.942,13.2818 44.942,10.1152 48.5,3.5 Z"/></g>
<g><path style="opacity:1" fill="#f9eff0" d="M 5.5,23.5 C 11.3365,22.5179 14.1698,24.8513 14,30.5C 11.5254,33.5236 8.52542,34.1903 5,32.5C 2.88049,29.3025 3.04716,26.3025 5.5,23.5 Z"/></g>
<g><path style="opacity:1" fill="#fdfafa" d="M -0.5,31.5 C 0.836207,33.3068 2.50287,34.8068 4.5,36C 8.53047,36.3257 12.5305,36.3257 16.5,36C 20.3318,38.7503 24.3318,41.2503 28.5,43.5C 28.9217,48.3435 30.9217,52.3435 34.5,55.5C 22.8333,55.5 11.1667,55.5 -0.5,55.5C -0.5,47.5 -0.5,39.5 -0.5,31.5 Z"/></g>
<g><path style="opacity:1" fill="#faf4f4" d="M 35.5,41.5 C 42.8027,41.6023 44.8027,44.769 41.5,51C 33.424,51.8047 31.424,48.638 35.5,41.5 Z"/></g>
</svg>
