<?xml version="1.0" encoding="UTF-8"?>
<!DOCTYPE svg PUBLIC "-//W3C//DTD SVG 1.1//EN" "http://www.w3.org/Graphics/SVG/1.1/DTD/svg11.dtd">
<svg xmlns="http://www.w3.org/2000/svg" version="1.1" width="67px" height="60px" style="shape-rendering:geometricPrecision; text-rendering:geometricPrecision; image-rendering:optimizeQuality; fill-rule:evenodd; clip-rule:evenodd" xmlns:xlink="http://www.w3.org/1999/xlink">
<g><path style="opacity:1" fill="#fdfcfc" d="M -0.5,-0.5 C 14.5,-0.5 29.5,-0.5 44.5,-0.5C 44.5,0.5 44.5,1.5 44.5,2.5C 56.0952,2.92858 62.2618,8.92858 63,20.5C 64.1455,21.6843 65.3121,21.6843 66.5,20.5C 66.5,33.5 66.5,46.5 66.5,59.5C 64.1667,59.5 61.8333,59.5 59.5,59.5C 60.6278,52.5803 60.7945,45.5803 60,38.5C 56.6064,37.5442 53.1064,37.2108 49.5,37.5C 49.5,33.8333 49.5,30.1667 49.5,26.5C 49.6646,23.4816 49.498,20.4816 49,17.5C 47.5391,16.1175 46.7058,16.4508 46.5,18.5C 46.1005,24.829 45.7671,31.1624 45.5,37.5C 35.1667,37.5 24.8333,37.5 14.5,37.5C 14.756,33.7307 14.4227,30.0641 13.5,26.5C 13.5,23.1667 13.5,19.8333 13.5,16.5C 12.5,16.5 11.5,16.5 10.5,16.5C 10.5,19.8333 10.5,23.1667 10.5,26.5C 9.57734,30.0641 9.24401,33.7307 9.5,37.5C 6.06131,37.2529 2.72797,37.5863 -0.5,38.5C -0.5,25.5 -0.5,12.5 -0.5,-0.5 Z"/></g>
<g><path style="opacity:1" fill="#faf4f5" d="M 50.5,-0.5 C 55.8333,-0.5 61.1667,-0.5 66.5,-0.5C 66.5,5.16667 66.5,10.8333 66.5,16.5C 64.9235,13.6478 63.4235,10.6478 62,7.5C 58.5364,4.19454 54.703,1.52788 50.5,-0.5 Z"/></g>
<g><path style="opacity:1" fill="#c2555a" d="M 44.5,-0.5 C 46.5,-0.5 48.5,-0.5 50.5,-0.5C 54.703,1.52788 58.5364,4.19454 62,7.5C 63.4235,10.6478 64.9235,13.6478 66.5,16.5C 66.5,17.8333 66.5,19.1667 66.5,20.5C 65.3121,21.6843 64.1455,21.6843 63,20.5C 62.2618,8.92858 56.0952,2.92858 44.5,2.5C 44.5,1.5 44.5,0.5 44.5,-0.5 Z"/></g>
<g><path style="opacity:1" fill="#bf4e54" d="M 56.5,16.5 C 56.7678,18.099 56.4345,19.4324 55.5,20.5C 54.2906,14.623 50.6239,10.9563 44.5,9.5C 47.7222,8.24231 50.7222,8.74231 53.5,11C 55.607,12.2635 56.607,14.0968 56.5,16.5 Z"/></g>
<g><path style="opacity:1" fill="#b47686" d="M 49.5,26.5 C 49.0984,23.5234 48.0984,20.8567 46.5,18.5C 46.7058,16.4508 47.5391,16.1175 49,17.5C 49.498,20.4816 49.6646,23.4816 49.5,26.5 Z"/></g>
<g><path style="opacity:1" fill="#a56b80" d="M 13.5,26.5 C 12.6805,23.6946 12.1805,20.6946 12,17.5C 11.8195,20.6946 11.3195,23.6946 10.5,26.5C 10.5,23.1667 10.5,19.8333 10.5,16.5C 11.5,16.5 12.5,16.5 13.5,16.5C 13.5,19.8333 13.5,23.1667 13.5,26.5 Z"/></g>
<g><path style="opacity:1" fill="#ab7d92" d="M 56.5,16.5 C 57.7879,18.0348 57.7879,19.7015 56.5,21.5C 55.8933,21.3764 55.56,21.0431 55.5,20.5C 56.4345,19.4324 56.7678,18.099 56.5,16.5 Z"/></g>
<g><path style="opacity:1" fill="#c24e52" d="M 13.5,26.5 C 14.4227,30.0641 14.756,33.7307 14.5,37.5C 24.8333,37.5 35.1667,37.5 45.5,37.5C 45.7671,31.1624 46.1005,24.829 46.5,18.5C 48.0984,20.8567 49.0984,23.5234 49.5,26.5C 49.5,30.1667 49.5,33.8333 49.5,37.5C 53.1064,37.2108 56.6064,37.5442 60,38.5C 60.7945,45.5803 60.6278,52.5803 59.5,59.5C 39.5,59.5 19.5,59.5 -0.5,59.5C -0.5,52.5 -0.5,45.5 -0.5,38.5C 2.72797,37.5863 6.06131,37.2529 9.5,37.5C 9.24401,33.7307 9.57734,30.0641 10.5,26.5C 11.3195,23.6946 11.8195,20.6946 12,17.5C 12.1805,20.6946 12.6805,23.6946 13.5,26.5 Z"/></g>
<g><path style="opacity:1" fill="#fcf9fa" d="M 4.5,42.5 C 21.5,42.5 38.5,42.5 55.5,42.5C 55.5,46.5 55.5,50.5 55.5,54.5C 38.5,54.5 21.5,54.5 4.5,54.5C 4.5,50.5 4.5,46.5 4.5,42.5 Z"/></g>
<g><path style="opacity:1" fill="#bc575e" d="M 10.5,46.5 C 11.8333,46.5 13.1667,46.5 14.5,46.5C 14.5,47.8333 14.5,49.1667 14.5,50.5C 13.1667,50.5 11.8333,50.5 10.5,50.5C 10.5,49.1667 10.5,47.8333 10.5,46.5 Z"/></g>
<g><path style="opacity:1" fill="#bd5e65" d="M 27.5,46.5 C 29.1667,46.5 30.8333,46.5 32.5,46.5C 32.6499,50.1612 31.1499,51.1612 28,49.5C 27.5172,48.552 27.3505,47.552 27.5,46.5 Z"/></g>
<g><path style="opacity:1" fill="#be5056" d="M 36.5,46.5 C 37.8333,46.5 39.1667,46.5 40.5,46.5C 40.5,47.8333 40.5,49.1667 40.5,50.5C 39.1667,50.5 37.8333,50.5 36.5,50.5C 36.5,49.1667 36.5,47.8333 36.5,46.5 Z"/></g>
<g><path style="opacity:1" fill="#bd555c" d="M 45.5,46.5 C 46.8333,46.5 48.1667,46.5 49.5,46.5C 49.8333,49.5 48.5,50.8333 45.5,50.5C 45.5,49.1667 45.5,47.8333 45.5,46.5 Z"/></g>
</svg>
