<?xml version="1.0" encoding="UTF-8"?>
<!DOCTYPE svg PUBLIC "-//W3C//DTD SVG 1.1//EN" "http://www.w3.org/Graphics/SVG/1.1/DTD/svg11.dtd">
<svg xmlns="http://www.w3.org/2000/svg" version="1.1" width="71px" height="60px" style="shape-rendering:geometricPrecision; text-rendering:geometricPrecision; image-rendering:optimizeQuality; fill-rule:evenodd; clip-rule:evenodd" xmlns:xlink="http://www.w3.org/1999/xlink">
<g><path style="opacity:1" fill="#fdf9fa" d="M -0.5,-0.5 C 0.5,-0.5 1.5,-0.5 2.5,-0.5C 1.83333,0.833333 0.833333,1.83333 -0.5,2.5C -0.5,1.5 -0.5,0.5 -0.5,-0.5 Z"/></g>
<g><path style="opacity:1" fill="#c95355" d="M 4.5,-0.5 C 22.8333,-0.5 41.1667,-0.5 59.5,-0.5C 59.5,0.166667 59.8333,0.5 60.5,0.5C 60.5,1.83333 59.8333,2.5 58.5,2.5C 40.5,2.5 22.5,2.5 4.5,2.5C 3.76109,2.63101 3.09442,2.46434 2.5,2C 3.38053,1.2917 4.0472,0.458367 4.5,-0.5 Z"/></g>
<g><path style="opacity:1" fill="#faf2f4" d="M 59.5,-0.5 C 63.1667,-0.5 66.8333,-0.5 70.5,-0.5C 70.5,19.5 70.5,39.5 70.5,59.5C 67.5,59.5 64.5,59.5 61.5,59.5C 61.5,59.1667 61.5,58.8333 61.5,58.5C 66.6693,57.0266 69.3359,53.5266 69.5,48C 69.4581,46.0326 68.9581,44.1992 68,42.5C 65.3287,40.0976 62.4954,38.0976 59.5,36.5C 59.5,35.8333 59.5,35.1667 59.5,34.5C 59.5,34.1667 59.5,33.8333 59.5,33.5C 61.099,33.7678 62.4324,33.4345 63.5,32.5C 63.6646,29.4816 63.498,26.4816 63,23.5C 62.1667,22.6667 61.3333,21.8333 60.5,21C 41.1667,20.3333 21.8333,20.3333 2.5,21C 1.62656,22.045 0.626561,22.8783 -0.5,23.5C -0.5,20.1667 -0.5,16.8333 -0.5,13.5C 0.961599,14.4577 2.29493,15.6244 3.5,17C 22.1667,17.6667 40.8333,17.6667 59.5,17C 63.3049,12.9089 64.4716,8.07555 63,2.5C 62.2917,1.61947 61.4584,0.952802 60.5,0.5C 59.8333,0.5 59.5,0.166667 59.5,-0.5 Z"/></g>
<g><path style="opacity:1" fill="#c25b66" d="M 2.5,-0.5 C 3.16667,-0.5 3.83333,-0.5 4.5,-0.5C 4.0472,0.458367 3.38053,1.2917 2.5,2C 3.09442,2.46434 3.76109,2.63101 4.5,2.5C 1.87468,6.33476 1.87468,10.1681 4.5,14C 22.5,14.6667 40.5,14.6667 58.5,14C 61.1253,10.1681 61.1253,6.33476 58.5,2.5C 59.8333,2.5 60.5,1.83333 60.5,0.5C 61.4584,0.952802 62.2917,1.61947 63,2.5C 64.4716,8.07555 63.3049,12.9089 59.5,17C 40.8333,17.6667 22.1667,17.6667 3.5,17C 2.29493,15.6244 0.961599,14.4577 -0.5,13.5C -0.5,9.83333 -0.5,6.16667 -0.5,2.5C 0.833333,1.83333 1.83333,0.833333 2.5,-0.5 Z"/></g>
<g><path style="opacity:1" fill="#f9f1f2" d="M 4.5,2.5 C 22.5,2.5 40.5,2.5 58.5,2.5C 61.1253,6.33476 61.1253,10.1681 58.5,14C 40.5,14.6667 22.5,14.6667 4.5,14C 1.87468,10.1681 1.87468,6.33476 4.5,2.5 Z"/></g>
<g><path style="opacity:1" fill="#c35f69" d="M 11.5,6.5 C 12.8333,6.5 14.1667,6.5 15.5,6.5C 15.5,7.83333 15.5,9.16667 15.5,10.5C 13.8333,10.5 12.1667,10.5 10.5,10.5C 10.4326,9.04125 10.7659,7.70792 11.5,6.5 Z"/></g>
<g><path style="opacity:1" fill="#c4656f" d="M 63.5,32.5 C 62.5,32.5 61.5,32.5 60.5,32.5C 60.8016,29.9407 60.4682,27.6074 59.5,25.5C 59.3893,24.8826 59.056,24.3826 58.5,24C 40.5,23.3333 22.5,23.3333 4.5,24C 3.54416,27.3936 3.21083,30.8936 3.5,34.5C 10.8409,34.3337 18.1742,34.5003 25.5,35C 26.8333,36 26.8333,37 25.5,38C 17.8117,38.8315 10.145,38.6648 2.5,37.5C 1.81181,36.1451 0.811806,35.1451 -0.5,34.5C -0.5,30.8333 -0.5,27.1667 -0.5,23.5C 0.626561,22.8783 1.62656,22.045 2.5,21C 21.8333,20.3333 41.1667,20.3333 60.5,21C 61.3333,21.8333 62.1667,22.6667 63,23.5C 63.498,26.4816 63.6646,29.4816 63.5,32.5 Z"/></g>
<g><path style="opacity:1" fill="#fcf8f8" d="M 59.5,25.5 C 59.5,28.1667 59.5,30.8333 59.5,33.5C 59.5,33.8333 59.5,34.1667 59.5,34.5C 52.5919,26.9226 45.5919,26.7559 38.5,34C 32.5811,33.4172 28.5811,35.9172 26.5,41.5C 17.0705,46.0773 16.0705,52.0773 23.5,59.5C 21.8333,59.5 20.1667,59.5 18.5,59.5C 18.5,58.5 18.5,57.5 18.5,56.5C 13.8215,56.6658 9.1548,56.4992 4.5,56C 1.83333,52.3333 1.83333,48.6667 4.5,45C 9.1548,44.5008 13.8215,44.3342 18.5,44.5C 18.5,43.5 18.5,42.5 18.5,41.5C 13.4889,41.3341 8.48892,41.5007 3.5,42C 2.01608,42.6622 0.682751,43.4955 -0.5,44.5C -0.5,41.1667 -0.5,37.8333 -0.5,34.5C 0.811806,35.1451 1.81181,36.1451 2.5,37.5C 10.145,38.6648 17.8117,38.8315 25.5,38C 26.8333,37 26.8333,36 25.5,35C 18.1742,34.5003 10.8409,34.3337 3.5,34.5C 3.21083,30.8936 3.54416,27.3936 4.5,24C 22.5,23.3333 40.5,23.3333 58.5,24C 59.056,24.3826 59.3893,24.8826 59.5,25.5 Z"/></g>
<g><path style="opacity:1" fill="#d5a9b6" d="M 59.5,25.5 C 60.4682,27.6074 60.8016,29.9407 60.5,32.5C 61.5,32.5 62.5,32.5 63.5,32.5C 62.4324,33.4345 61.099,33.7678 59.5,33.5C 59.5,30.8333 59.5,28.1667 59.5,25.5 Z"/></g>
<g><path style="opacity:1" fill="#c46d79" d="M 11.5,26.5 C 12.8333,26.5 14.1667,26.5 15.5,26.5C 15.5,28.1667 15.5,29.8333 15.5,31.5C 11.065,32.0776 9.73171,30.4109 11.5,26.5 Z"/></g>
<g><path style="opacity:1" fill="#c96d75" d="M 59.5,34.5 C 59.5,35.1667 59.5,35.8333 59.5,36.5C 58.1054,34.9456 57.4387,35.279 57.5,37.5C 57.9424,38.7387 58.6091,39.7387 59.5,40.5C 58.5,40.5 57.5,40.5 56.5,40.5C 56.8957,37.9556 56.229,35.7889 54.5,34C 50.9613,32.4961 47.2946,32.1628 43.5,33C 42.13,34.4413 41.13,36.108 40.5,38C 37.5,38.3333 34.5,38.6667 31.5,39C 29.9837,40.897 29.317,43.0637 29.5,45.5C 22.3725,45.7063 20.7058,48.873 24.5,55C 36.4954,55.4999 48.4954,55.6665 60.5,55.5C 48.3401,56.3308 36.0068,56.8308 23.5,57C 36.0069,58.4792 48.6736,58.9792 61.5,58.5C 61.5,58.8333 61.5,59.1667 61.5,59.5C 48.8333,59.5 36.1667,59.5 23.5,59.5C 16.0705,52.0773 17.0705,46.0773 26.5,41.5C 28.5811,35.9172 32.5811,33.4172 38.5,34C 45.5919,26.7559 52.5919,26.9226 59.5,34.5 Z"/></g>
<g><path style="opacity:1" fill="#fdfbfb" d="M 59.5,40.5 C 64.8814,42.3605 67.048,46.0272 66,51.5C 64.549,53.4641 62.7157,54.7974 60.5,55.5C 48.4954,55.6665 36.4954,55.4999 24.5,55C 20.7058,48.873 22.3725,45.7063 29.5,45.5C 29.317,43.0637 29.9837,40.897 31.5,39C 34.5,38.6667 37.5,38.3333 40.5,38C 41.13,36.108 42.13,34.4413 43.5,33C 47.2946,32.1628 50.9613,32.4961 54.5,34C 56.229,35.7889 56.8957,37.9556 56.5,40.5C 57.5,40.5 58.5,40.5 59.5,40.5 Z"/></g>
<g><path style="opacity:1" fill="#c65a61" d="M 18.5,59.5 C 13.5,59.5 8.5,59.5 3.5,59.5C 1.83333,58.5 0.5,57.1667 -0.5,55.5C -0.5,51.8333 -0.5,48.1667 -0.5,44.5C 0.682751,43.4955 2.01608,42.6622 3.5,42C 8.48892,41.5007 13.4889,41.3341 18.5,41.5C 18.5,42.5 18.5,43.5 18.5,44.5C 13.8215,44.3342 9.1548,44.5008 4.5,45C 1.83333,48.6667 1.83333,52.3333 4.5,56C 9.1548,56.4992 13.8215,56.6658 18.5,56.5C 18.5,57.5 18.5,58.5 18.5,59.5 Z"/></g>
<g><path style="opacity:1" fill="#c56a75" d="M 11.5,48.5 C 12.8333,48.5 14.1667,48.5 15.5,48.5C 15.9899,50.9484 15.1566,52.615 13,53.5C 10.3894,52.5001 9.88943,50.8334 11.5,48.5 Z"/></g>
<g><path style="opacity:1" fill="#c6585d" d="M 59.5,36.5 C 62.4954,38.0976 65.3287,40.0976 68,42.5C 68.9581,44.1992 69.4581,46.0326 69.5,48C 69.3359,53.5266 66.6693,57.0266 61.5,58.5C 48.6736,58.9792 36.0069,58.4792 23.5,57C 36.0068,56.8308 48.3401,56.3308 60.5,55.5C 62.7157,54.7974 64.549,53.4641 66,51.5C 67.048,46.0272 64.8814,42.3605 59.5,40.5C 58.6091,39.7387 57.9424,38.7387 57.5,37.5C 57.4387,35.279 58.1054,34.9456 59.5,36.5 Z"/></g>
<g><path style="opacity:1" fill="#f8eaeb" d="M -0.5,55.5 C 0.5,57.1667 1.83333,58.5 3.5,59.5C 2.16667,59.5 0.833333,59.5 -0.5,59.5C -0.5,58.1667 -0.5,56.8333 -0.5,55.5 Z"/></g>
</svg>
