<?xml version="1.0" encoding="UTF-8"?>
<svg width="67px" height="60px" viewBox="0 0 67 60" version="1.1" xmlns="http://www.w3.org/2000/svg" xmlns:xlink="http://www.w3.org/1999/xlink">
    <title>luyouqi</title>
    <g stroke="none" stroke-width="1" fill="none" fill-rule="evenodd">
        <g transform="translate(-890.000000, -1077.000000)" fill="#38B4FF" fill-rule="nonzero">
            <g transform="translate(890.000000, 1077.000000)">
                <g id="luyouqi" transform="translate(-0.000000, 0.000000)">
                    <path d="M2.3561003,38.0507812 L10.197558,38.0507812 L10.197558,29.4607972 C10.197558,28.6955698 10.5640672,27.9824804 11.1284618,27.5653771 L11.1284618,18.4770303 C11.1284618,17.6964353 11.7602919,17.0982878 12.5240457,17.0982878 C13.3047109,17.0982878 13.9534525,17.6964353 13.9534525,18.4770303 L13.9534525,27.5653771 C14.5009356,27.9824804 14.865901,28.6955698 14.865901,29.460727 L14.865901,38.0508514 L45.9894274,38.0508514 L45.9894274,29.4607972 C45.9894274,28.6955698 46.3713043,27.9824804 46.9188576,27.5653771 L46.9188576,18.4770303 C46.9188576,17.6964353 47.5506877,17.0982878 48.3314231,17.0982878 C49.0950365,17.0982878 49.7437781,17.6964353 49.7437781,18.4770303 L49.7437781,27.5653771 C50.3081727,27.9824804 50.6577704,28.6955698 50.6577704,29.460727 L50.6577704,38.0508514 L58.5161396,38.0508514 C59.8135526,38.0508514 60.8765204,39.1305202 60.8765204,40.3927068 L60.8765204,57.4082616 C60.8765204,58.6873597 59.8135526,59.7685722 58.5161396,59.7685722 L2.35617047,59.7685722 C1.05868731,59.7685722 0.0127713323,58.6873597 0.0127713323,57.4083318 L0.0127713323,40.3926366 C0.0127713323,39.13045 1.05861714,38.0507812 2.3561003,38.0507812 Z M45.9390438,2.84162144 C50.791308,2.84162144 55.1944003,4.80159993 58.3689886,7.99155595 C61.5421033,11.1815821 63.5189231,15.5692365 63.5189231,20.403256 C63.5189231,21.1853948 64.1339119,21.7835423 64.9314184,21.7835423 C65.6951722,21.7835423 66.3100908,21.185465 66.3100908,20.403256 C66.3100908,14.8040092 64.0665466,9.67091598 60.3611761,5.99936845 C56.6727171,2.30943582 51.5719031,0.0489099925 45.9390438,0.0489099925 C45.1751497,0.0489099925 44.5601609,0.646987275 44.5601609,1.42919629 C44.5601609,2.19280969 45.1751497,2.84162144 45.9390438,2.84162144 L45.9390438,2.84162144 Z M45.9390438,11.1492328 C48.5155548,11.1492328 50.8249906,12.1783776 52.5029472,13.8408262 L52.6024513,13.9420846 C54.2312173,15.6030595 55.2111714,17.8957943 55.2111714,20.403256 C55.2111714,21.1853948 55.8415279,21.7835423 56.6235966,21.7835423 C57.3873503,21.7835423 58.0023391,21.185465 58.0023391,20.403256 C58.0023391,17.1319704 56.7063997,14.1230586 54.5623597,11.9790185 L54.4966083,11.8470949 C52.2865363,9.6877573 49.2790981,8.35652133 45.9389736,8.35652133 C45.1750795,8.35652133 44.5600908,8.97305389 44.5600908,9.73680763 C44.5600908,10.5174027 45.1751497,11.1492328 45.9389736,11.1492328 L45.9390438,11.1492328 Z M15.6971604,48.8859235 C15.6971604,45.8446622 11.0272034,45.8446622 11.0272034,48.8859235 C11.0272034,50.1971604 12.0425243,51.2431465 13.3537612,51.2431465 C14.6512444,51.2430763 15.6971604,50.1970902 15.6971604,48.8859235 Z M32.7633795,48.8859235 C32.7633795,45.8446622 28.0934225,45.8446622 28.0934225,48.8859235 C28.0934225,50.1971604 29.1409525,51.2431465 30.4199804,51.2431465 C31.7312874,51.2430763 32.7633795,50.1970902 32.7633795,48.8859235 Z M41.3026291,48.8859235 C41.3026291,45.8446622 36.6174448,45.8446622 36.6174448,48.8859235 C36.6174448,50.1971604 37.6649046,51.2431465 38.976352,51.2431465 C40.2736246,51.2430763 41.3026993,50.1970902 41.3026993,48.8859235 L41.3026291,48.8859235 Z M49.8449663,48.8859235 C49.8449663,45.8446622 45.1750094,45.8446622 45.1750094,48.8859235 C45.1750094,50.1971604 46.2225393,51.2431465 47.5015672,51.2431465 C48.7975065,51.2430763 49.8449663,50.1970902 49.8449663,48.8859235 Z M56.1911957,42.7359656 L4.71332335,42.7359656 L4.71332335,55.0816336 L56.1911957,55.0816336 L56.1911957,42.7359656 L56.1911957,42.7359656 Z"></path>
                </g>
            </g>
        </g>
    </g>
</svg>