<?xml version="1.0" encoding="UTF-8"?>
<svg width="62px" height="56px" viewBox="0 0 62 56" version="1.1" xmlns="http://www.w3.org/2000/svg" xmlns:xlink="http://www.w3.org/1999/xlink">
    <title>wangluo-2</title>
    <g  stroke="none" stroke-width="1" fill="none" fill-rule="evenodd">
        <g transform="translate(-126.000000, -1007.000000)" fill="#38B4FF" fill-rule="nonzero">
            <g transform="translate(126.000000, 950.000000)">
                <g id="wangluo-2" transform="translate(0.000000, 57.000000)">
                    <path d="M52.5344991,0.0391257436 C47.4440159,0.0391257436 43.3025408,3.89248428 43.3025408,8.62882963 C43.3025408,8.86987105 43.313773,9.10841772 43.3348605,9.34440232 L14.3815645,21.7517974 C12.9110949,20.8307832 11.1416326,20.2926035 9.23955843,20.2926035 C4.14900279,20.2926035 0.00760015534,24.1459621 0.00760015534,28.8823748 C0.00760015534,33.6187203 4.14907531,37.4720787 9.23955843,37.4720787 C11.4404802,37.4720787 13.4636442,36.7513818 15.0516529,35.5507597 L30.1020826,44.8291341 C29.838888,45.6259529 29.6968556,46.4716542 29.6968556,47.3476964 C29.6968556,52.0841092 33.8383308,55.9374003 38.9288139,55.9374003 C44.0193695,55.9374003 48.1607722,52.0841092 48.1607722,47.3476964 C48.1607722,42.611351 44.0193695,38.7579925 38.9288139,38.7579925 C36.1069353,38.7579925 33.5770927,39.9425677 31.8823423,41.8048905 L17.4077233,32.8815718 C18.086435,31.6863436 18.4715166,30.3255217 18.4715166,28.8824422 C18.4715166,27.2293366 17.9665771,25.6841769 17.093368,24.3725746 L44.3924218,12.6741447 C45.9494877,15.3765053 49.0149952,17.2186683 52.5344991,17.2186683 C57.6249823,17.2186683 61.7664574,13.3653773 61.7664574,8.62896444 C61.7664574,3.89248428 57.6249823,0.0391257436 52.5344991,0.0391257436 Z M38.9288863,42.1939279 C41.9832342,42.1939279 44.4680758,44.5059026 44.4680758,47.3476963 C44.4680758,50.1895575 41.9832341,52.5015321 38.9288863,52.5015321 C35.8746109,52.5015321 33.3897694,50.1895574 33.3897694,47.3476963 C33.3897694,44.5059026 35.8745385,42.1939279 38.9288863,42.1939279 Z M9.23948591,34.0362107 C6.18521049,34.0362107 3.70029649,31.724236 3.70029649,28.8824423 C3.70029649,26.0405811 6.18521056,23.7286065 9.23948591,23.7286065 C12.2937613,23.7286065 14.7786753,26.0406486 14.7786753,28.8824423 C14.7786753,31.724236 12.2938338,34.0362107 9.23948591,34.0362107 Z M52.5344991,13.7827329 C49.4801512,13.7827329 46.9953097,11.4706908 46.9953097,8.6288971 C46.9953097,5.7871034 49.4801513,3.47506131 52.5344991,3.47506131 C55.5888469,3.47506131 58.0736885,5.7871034 58.0736885,8.6288971 C58.0736885,11.4706908 55.5889195,13.7827329 52.5344991,13.7827329 Z"></path>
                </g>
            </g>
        </g>
    </g>
</svg>