<?xml version="1.0" encoding="UTF-8"?>
<svg width="63px" height="60px" viewBox="0 0 63 60" version="1.1" xmlns="http://www.w3.org/2000/svg" xmlns:xlink="http://www.w3.org/1999/xlink">
    <g stroke="none" stroke-width="1" fill="none" fill-rule="evenodd">
        <g fill="#5B8FF9" fill-rule="nonzero">
            <g>
                <path d="M60.5578564,41.3688213 L52.5659291,4.70758644 C52.2905568,3.37119083 51.5670721,2.17837758 50.5232752,1.33985154 C49.509414,0.487303948 48.2459494,0.0150040132 46.9389957,0 L15.5844333,0 C14.2795277,0.0137684986 13.0175144,0.483434966 12.0036575,1.33260908 C10.9636635,2.17623132 10.2412217,3.36860579 9.96100355,4.70396523 L1.93403942,41.4050335 L0.21372537,50.3349629 C0.0700738975,51.1135252 0,51.8920876 0,52.6308166 L0,53.0762267 C0,53.6302734 0.0700738975,54.1481079 0.175184744,54.6695636 C0.42745074,55.9261271 0.931982791,57.0740539 1.61169947,57.9648742 C2.64879305,59.2974833 4.12034478,60 5.6970073,60 L56.7598515,60 C58.371551,60 59.8045621,59.261271 60.8451593,57.9648742 C61.4512985,57.1863118 61.9172898,56.2266884 62.1695558,55.1511859 C62.6355472,53.7425312 62.6705842,52.0731486 62.3097036,50.3711751 L60.5578564,41.3688213 Z M5.9843103,56.7734927 C4.72998768,56.6612348 3.72442731,55.6255658 3.72442731,54.3653812 L3.72442731,47.148289 C3.73542471,46.2789034 4.20236479,45.4842728 4.94371299,45.0733297 C5.33752564,44.8466322 5.78237193,44.7316902 6.23307256,44.7401775 L56.4024746,44.7401775 C56.8421165,44.7312612 57.2757856,44.8464452 57.6567973,45.0733297 C58.4266684,45.4762534 58.9116924,46.2926054 58.9111204,47.1845012 L58.9111204,54.4052146 C58.9111204,55.6653992 57.9090633,56.7010683 56.6547406,56.8133261 C56.6197037,56.7771139 5.98781398,56.7771139 5.98781398,56.7771139 L5.9843103,56.7734927 Z M13.0792917,4.5554952 C13.1844025,4.03403949 13.8290823,3.51620499 14.3686513,3.51620499 L47.8359415,3.51620499 C48.3720068,3.51620499 49.0201902,4.03403949 49.1253011,4.551874 L57.0086138,41.3652001 L5.19597899,41.3652001 L13.0792917,4.551874 L13.0792917,4.5554952 Z"></path>
                <path d="M47.2340426,49.1489362 C47.2340426,50.9115471 48.662921,52.3404255 50.4255319,52.3404255 C52.1881428,52.3404255 53.6170213,50.9115471 53.6170213,49.1489362 C53.6170213,47.3863253 52.1881428,45.9574468 50.4255319,45.9574468 C48.662921,45.9574468 47.2340426,47.3863253 47.2340426,49.1489362 L47.2340426,49.1489362 Z"></path>
                <path d="M39.6209547,31.9148453 L20.4598729,31.9148453 C18.1671854,31.9148453 16.0486548,30.7820441 14.902311,28.9432358 C13.7559672,27.1044275 13.7559672,24.8389222 14.902311,23.0001139 C16.0486548,21.1613056 18.1671854,20.028553 20.4598729,20.028553 C20.7464852,20.028553 21.0330976,20.060923 21.3197099,20.060923 C21.2494363,19.6345756 21.2143818,19.203885 21.2148517,18.7725992 C21.2282844,14.7553424 24.7414228,11.5018019 29.079214,11.4893617 C33.2595594,11.4893617 36.6919167,14.5321365 36.9051282,18.342079 C39.748941,17.3200513 42.9771577,17.9752409 45.0987953,20.0050422 C47.2204328,22.0348435 47.8225951,25.0442328 46.6271677,27.6432947 C45.4317404,30.2423565 42.6713678,31.9252824 39.6209547,31.9148453 L39.6209547,31.9148453 Z M20.6416271,21.3880907 C17.9607533,21.3880907 15.7797036,23.4047383 15.7797036,25.887513 C15.7797036,28.4058947 17.9607534,30.4257792 20.6381318,30.4257792 L39.4077431,30.4257792 C42.7317469,30.4257792 45.4475733,27.9073975 45.4475733,24.8290158 C45.4430404,22.8300013 44.2843073,20.9859198 42.4098768,19.9946326 C40.5354463,19.0033454 38.231662,19.0162844 36.3703516,20.028553 C36.118692,20.1612698 35.8320797,20.1612698 35.6188681,19.9961831 C35.3788734,19.8710665 35.2500447,19.6194799 35.2973031,19.3682062 C35.3322558,19.2031195 35.3322558,19.0024258 35.3322558,18.8049692 C35.3369143,17.2669279 34.6792414,15.7906374 33.5049018,14.7030737 C32.3305621,13.61551 30.7364793,13.0064348 29.0757187,13.0107264 C27.0319138,13.013098 25.1162557,13.9332055 23.9368089,15.479013 C22.7573621,17.0248205 22.4606098,19.0043439 23.1407466,20.7892467 C23.2491001,21.0223103 23.1756993,21.2877439 22.9659831,21.4852006 C22.7842289,21.6502873 22.4976166,21.7182642 22.2144995,21.6502873 C21.7101738,21.4805164 21.178221,21.3918403 20.6416271,21.3880907 L20.6416271,21.3880907 Z"></path>
            </g>
        </g>
    </g>
</svg>