<?xml version="1.0" encoding="UTF-8"?>
<!DOCTYPE svg PUBLIC "-//W3C//DTD SVG 1.1//EN" "http://www.w3.org/Graphics/SVG/1.1/DTD/svg11.dtd">
<svg xmlns="http://www.w3.org/2000/svg" version="1.1" width="63px" height="60px" style="shape-rendering:geometricPrecision; text-rendering:geometricPrecision; image-rendering:optimizeQuality; fill-rule:evenodd; clip-rule:evenodd" xmlns:xlink="http://www.w3.org/1999/xlink">
<g><path style="opacity:1" fill="#fdfcfc" d="M -0.5,-0.5 C 3.83333,-0.5 8.16667,-0.5 12.5,-0.5C 12.5,-0.166667 12.5,0.166667 12.5,0.5C 11.2058,1.2899 10.0391,2.2899 9,3.5C 6.33187,17.6574 3.1652,31.6574 -0.5,45.5C -0.5,30.1667 -0.5,14.8333 -0.5,-0.5 Z"/></g>
<g><path style="opacity:1" fill="#c95456" d="M 12.5,-0.5 C 24.5,-0.5 36.5,-0.5 48.5,-0.5C 48.5,0.166667 48.8333,0.5 49.5,0.5C 43.7047,1.82957 37.538,2.49624 31,2.5C 24.462,2.49624 18.2953,1.82957 12.5,0.5C 12.5,0.166667 12.5,-0.166667 12.5,-0.5 Z"/></g>
<g><path style="opacity:1" fill="#fdfcfc" d="M 48.5,-0.5 C 53.1667,-0.5 57.8333,-0.5 62.5,-0.5C 62.5,15.5 62.5,31.5 62.5,47.5C 58.8555,35.148 55.8555,22.4813 53.5,9.5C 53.5905,6.84784 52.9238,4.51451 51.5,2.5C 51.1667,1.5 50.5,0.833333 49.5,0.5C 48.8333,0.5 48.5,0.166667 48.5,-0.5 Z"/></g>
<g><path style="opacity:1" fill="#d19aa7" d="M 51.5,2.5 C 52.9238,4.51451 53.5905,6.84784 53.5,9.5C 52.0762,7.48549 51.4095,5.15216 51.5,2.5 Z"/></g>
<g><path style="opacity:1" fill="#c7676f" d="M 12.5,0.5 C 18.2953,1.82957 24.462,2.49624 31,2.5C 37.538,2.49624 43.7047,1.82957 49.5,0.5C 50.5,0.833333 51.1667,1.5 51.5,2.5C 51.4095,5.15216 52.0762,7.48549 53.5,9.5C 55.8555,22.4813 58.8555,35.148 62.5,47.5C 62.5,50.1667 62.5,52.8333 62.5,55.5C 60.9699,56.2112 59.6366,57.2112 58.5,58.5C 58.6716,57.5084 58.3382,56.8417 57.5,56.5C 58.8002,52.6658 58.8002,48.8325 57.5,45C 39.5031,44.5001 21.5031,44.3334 3.5,44.5C 3.5,47.8333 3.5,51.1667 3.5,54.5C 1.77999,52.3419 0.94666,49.6752 1,46.5C 0.76791,47.7375 0.26791,48.7375 -0.5,49.5C -0.5,48.1667 -0.5,46.8333 -0.5,45.5C 3.1652,31.6574 6.33187,17.6574 9,3.5C 10.0391,2.2899 11.2058,1.2899 12.5,0.5 Z"/></g>
<g><path style="opacity:1" fill="#c38a9d" d="M 55.5,36.5 C 56.4511,37.9187 56.7845,39.5853 56.5,41.5C 39.1667,41.5 21.8333,41.5 4.5,41.5C 4.23219,39.901 4.56552,38.5676 5.5,37.5C 5.5,38.5 5.5,39.5 5.5,40.5C 22.1667,40.5 38.8333,40.5 55.5,40.5C 55.5,39.1667 55.5,37.8333 55.5,36.5 Z"/></g>
<g><path style="opacity:1" fill="#fcf9f9" d="M 55.5,36.5 C 55.5,37.8333 55.5,39.1667 55.5,40.5C 38.8333,40.5 22.1667,40.5 5.5,40.5C 5.5,39.5 5.5,38.5 5.5,37.5C 7.3219,26.057 9.65524,14.7237 12.5,3.5C 24.5046,3.33346 36.5046,3.50013 48.5,4C 51.5328,14.6626 53.8661,25.4959 55.5,36.5 Z"/></g>
<g><path style="opacity:1" fill="#b988a4" d="M 18.5,29.5 C 25.8333,29.5 33.1667,29.5 40.5,29.5C 40.5,30.1667 40.8333,30.5 41.5,30.5C 33.1667,31.8333 24.8333,31.8333 16.5,30.5C 17.4916,30.6716 18.1583,30.3382 18.5,29.5 Z"/></g>
<g><path style="opacity:1" fill="#c07789" d="M 41.5,30.5 C 40.8333,30.5 40.5,30.1667 40.5,29.5C 44.96,27.2622 45.6267,24.0955 42.5,20C 39.854,19.5026 37.1873,19.3359 34.5,19.5C 34.65,15.317 32.65,12.9837 28.5,12.5C 23.3831,13.3011 21.3831,16.3011 22.5,21.5C 17.4989,20.6714 15.3322,22.6714 16,27.5C 16.7083,28.3805 17.5416,29.0472 18.5,29.5C 18.1583,30.3382 17.4916,30.6716 16.5,30.5C 12.5803,27.0425 12.5803,23.5425 16.5,20C 17.7932,19.51 19.1266,19.3433 20.5,19.5C 21.4318,13.0634 25.0985,10.23 31.5,11C 34.0327,12.0333 35.6994,13.8666 36.5,16.5C 44.2302,16.3891 47.3969,20.0558 46,27.5C 44.871,29.1412 43.371,30.1412 41.5,30.5 Z"/></g>
<g><path style="opacity:1" fill="#fdfafa" d="M 40.5,29.5 C 33.1667,29.5 25.8333,29.5 18.5,29.5C 17.5416,29.0472 16.7083,28.3805 16,27.5C 15.3322,22.6714 17.4989,20.6714 22.5,21.5C 21.3831,16.3011 23.3831,13.3011 28.5,12.5C 32.65,12.9837 34.65,15.317 34.5,19.5C 37.1873,19.3359 39.854,19.5026 42.5,20C 45.6267,24.0955 44.96,27.2622 40.5,29.5 Z"/></g>
<g><path style="opacity:1" fill="#fcf7f7" d="M 57.5,56.5 C 39.8302,56.6666 22.1635,56.4999 4.5,56C 3.94404,55.6174 3.61071,55.1174 3.5,54.5C 3.5,51.1667 3.5,47.8333 3.5,44.5C 21.5031,44.3334 39.5031,44.5001 57.5,45C 58.8002,48.8325 58.8002,52.6658 57.5,56.5 Z"/></g>
<g><path style="opacity:1" fill="#c46771" d="M 47.5,45.5 C 51.9083,45.062 53.5749,47.062 52.5,51.5C 47.0738,52.4161 45.4071,50.4161 47.5,45.5 Z"/></g>
<g><path style="opacity:1" fill="#f4e6e9" d="M 62.5,55.5 C 62.5,56.8333 62.5,58.1667 62.5,59.5C 61.1667,59.5 59.8333,59.5 58.5,59.5C 58.5,59.1667 58.5,58.8333 58.5,58.5C 59.6366,57.2112 60.9699,56.2112 62.5,55.5 Z"/></g>
<g><path style="opacity:1" fill="#f6e1e2" d="M -0.5,54.5 C 0.307663,56.2202 1.30766,57.8869 2.5,59.5C 1.5,59.5 0.5,59.5 -0.5,59.5C -0.5,57.8333 -0.5,56.1667 -0.5,54.5 Z"/></g>
<g><path style="opacity:1" fill="#c95456" d="M 3.5,54.5 C 3.61071,55.1174 3.94404,55.6174 4.5,56C 22.1635,56.4999 39.8302,56.6666 57.5,56.5C 58.3382,56.8417 58.6716,57.5084 58.5,58.5C 58.5,58.8333 58.5,59.1667 58.5,59.5C 39.8333,59.5 21.1667,59.5 2.5,59.5C 1.30766,57.8869 0.307663,56.2202 -0.5,54.5C -0.5,52.8333 -0.5,51.1667 -0.5,49.5C 0.26791,48.7375 0.76791,47.7375 1,46.5C 0.94666,49.6752 1.77999,52.3419 3.5,54.5 Z"/></g>
</svg>
