<?xml version="1.0" encoding="UTF-8"?>
<svg width="60px" height="60px" viewBox="0 0 60 60" version="1.1" xmlns="http://www.w3.org/2000/svg" xmlns:xlink="http://www.w3.org/1999/xlink">
    <title>SliceCopy</title>
    <g stroke="none" stroke-width="1" fill="none" fill-rule="evenodd">
        <g transform="translate(-609.000000, -1081.000000)" fill="#38B4FF" fill-rule="nonzero">
            <g  transform="translate(609.000000, 1081.000000)">
                <g id="SliceCopy">
                    <path d="M30,60 C13.4314575,60 0,46.5685425 0,30 C0,13.4314575 13.4314575,0 30,0 C46.5685425,0 60,13.4314575 60,30 C60,46.5685425 46.5685425,60 30,60 Z M30,56 C44.3594035,56 56,44.3594035 56,30 C56,15.6405965 44.3594035,4.00000002 30,4.00000002 C15.6405965,4.00000002 4.00000002,15.6405965 4.00000002,30 C4.00000002,44.3594035 15.6405965,56 30,56 Z M30,40 C24.4771525,40 20,35.5228475 20,30 C20,24.4771525 24.4771525,20 30,20 C35.5228475,20 40,24.4771525 40,30 C40,35.5228475 35.5228475,40 30,40 Z M30,36 C33.3137085,36 36,33.3137085 36,30 C36,26.6862915 33.3137085,24 30,24 C26.6862915,24 24,26.6862915 24,30 C24,33.3137085 26.6862915,36 30,36 L30,36 Z M26.14,9.95200002 C27.2412558,9.86363446 28.2056344,10.6847442 28.294,11.786 C28.3823655,12.8872558 27.5612558,13.8516344 26.46,13.94 C20.292,14.44 16.168,17.972 13.86,24.86 C13.4877031,25.876405 12.3743325,26.4121564 11.3477616,26.0688832 C10.3211908,25.72561 9.75402764,24.6279081 10.068,23.592 C12.864,15.244 18.296,10.588 26.14,9.95200002 Z"></path>
                </g>
            </g>
        </g>
    </g>
</svg>