<?xml version="1.0" encoding="UTF-8"?>
<svg width="60px" height="60px" viewBox="0 0 60 60" version="1.1" xmlns="http://www.w3.org/2000/svg" xmlns:xlink="http://www.w3.org/1999/xlink">
    <g stroke="none" stroke-width="1" fill="none" fill-rule="evenodd">
        <g transform="translate(-1165.000000, -1084.000000)" fill="#38B4FF" fill-rule="nonzero">
            <g transform="translate(1165.000000, 1084.000000)">
                <g>
                    <g id="anquanzu">
                        <path d="M54.4157143,29.7942857 C53.7110583,37.8905447 49.266268,45.1933795 42.3985714,49.5385714 L30.21,55.89 L17.97,49.6285714 C11.0528572,45.2485714 6.50142855,37.8385714 5.80285717,29.7942857 L4.12714283,11.2157143 C4.83428566,11.2542857 5.52857139,11.2757143 6.21857145,11.2757143 C17.7642857,11.2757143 27.51,5.91857145 29.9914286,4.27714283 C32.7,5.91857139 42.4328571,11.2757143 53.97,11.2757143 C54.7242857,11.2757143 55.4742857,11.2414286 56.0357143,10.9885714 L56.1128572,10.9885714 L54.4157143,29.7942857 Z M59.9528572,7.31142855 L59.9742857,7.09714283 L57.9257143,7.34571428 C56.6404122,7.50443044 55.346492,7.58315345 54.0514286,7.58142855 C41.7385714,7.58142855 31.2771428,0.702857168 31.1742857,0.634285723 L29.9871428,0 L29.0442857,0.634285723 C28.9414286,0.702857168 18.4842857,7.58142855 6.16714283,7.58142855 C4.89428566,7.58142855 3.59571428,7.50857139 2.28857145,7.34571428 L0.402857168,7.32857145 L0.218571445,7.30714283 L0.218571445,7.32857145 L0,7.32428572 L2.05714283,30.12 C2.89714283,39.4114286 7.99714283,47.6785714 16.0757143,52.8085714 L30.1071428,60 L44.2928572,52.7185714 C52.1742857,47.7385714 57.36,39.2871429 58.1614286,30.12 L59.6485714,11.2114286 L60,7.30714283 L59.9528572,7.31142855 Z"></path>
                        <path d="M43.4485714,17.2071428 L42.9642857,17.1428419 C42.4675936,17.14086 41.9901707,17.3349093 41.6357143,17.6828572 L24.3685714,34.9157143 L24.3,34.9842857 L16.0671428,26.91 C15.5295758,26.3849172 14.7320073,26.2281807 14.0357147,26.5107881 C13.3394221,26.7933956 12.8766975,27.4616528 12.8571428,28.2128572 C12.8571428,28.7057143 13.0542857,29.1685714 13.41,29.5157143 L22.8214286,38.7428572 C23.1685714,39.0857143 23.6485714,39.2828572 24.1414286,39.2828572 L24.1585714,39.0728572 L24.1585714,39.2828572 C24.6508131,39.2814823 25.1230048,39.0876838 25.4742857,38.7428572 L44.2928572,20.2928572 C44.7678944,19.8282189 44.953738,19.1425884 44.7783715,18.5016549 C44.603005,17.8607214 44.0939885,17.3652124 43.4485714,17.2071428"></path>
                    </g>
                </g>
            </g>
        </g>
    </g>
</svg>