<?xml version="1.0" standalone="no"?><!DOCTYPE svg PUBLIC "-//W3C//DTD SVG 1.1//EN" "http://www.w3.org/Graphics/SVG/1.1/DTD/svg11.dtd"><svg class="icon" width="200px" height="200.00px" viewBox="0 0 1024 1024" version="1.1" xmlns="http://www.w3.org/2000/svg"><path fill="#333333" d="M504.149333 7.850667c-44.373333 108.544-70.997333 179.2-120.149333 284.330666 30.037333 32.085333 67.242667 69.290667 127.317333 111.274667-64.512-26.624-108.544-53.248-141.653333-80.896-63.146667 131.413333-161.792 318.464-361.813333 678.229333 157.696-90.794667 279.552-146.773333 393.216-168.277333-4.778667-21.162667-7.509333-43.690667-7.509334-67.584l0.341334-5.12c2.389333-100.693333 54.954667-178.517333 117.077333-173.056s110.592 91.477333 107.861333 192.170667c-0.341333 18.090667-2.389333 36.522667-6.485333 54.272 112.64 21.845333 233.130667 77.824 388.437333 167.594666l-83.968-155.648c-40.96-31.744-83.968-73.386667-171.349333-118.101333 60.074667 15.701333 103.082667 33.792 136.533333 53.930667-265.557333-493.909333-287.061333-559.786667-377.856-773.12z"  /></svg>