<?xml version="1.0" standalone="no"?><!DOCTYPE svg PUBLIC "-//W3C//DTD SVG 1.1//EN" "http://www.w3.org/Graphics/SVG/1.1/DTD/svg11.dtd"><svg class="icon" width="200px" height="200.00px" viewBox="0 0 1024 1024" version="1.1" xmlns="http://www.w3.org/2000/svg"><path d="M512 971.487179C258.231795 971.487179 52.512821 765.768205 52.512821 512S258.231795 52.512821 512 52.512821 971.487179 258.231795 971.487179 512 765.768205 971.487179 512 971.487179z m0-65.641025c217.508103 0 393.846154-176.338051 393.846154-393.846154 0-217.508103-176.338051-393.846154-393.846154-393.846154-217.508103 0-393.846154 176.338051-393.846154 393.846154 0 217.508103 176.338051 393.846154 393.846154 393.846154z m-4.883692-237.384205c13.67959 0 25.416205 3.754667 34.553436 12.524307 9.137231 8.165744 13.67959 18.852103 13.679589 32.006565 0 13.154462-5.198769 23.814564-14.336 32.610461a50.044718 50.044718 0 0 1-33.897025 12.550564 47.786667 47.786667 0 0 1-33.897026-13.154461 42.719179 42.719179 0 0 1-13.705846-32.006564c0-13.154462 4.568615-23.840821 13.67959-32.006565 9.137231-8.769641 20.900103-12.524308 33.923282-12.524307zM507.405128 262.564103c26.466462 0 47.917949 21.451487 47.917949 47.917948v271.753846a47.917949 47.917949 0 1 1-95.835898 0v-271.753846c0-26.466462 21.451487-47.917949 47.917949-47.917948z" fill="#D93126" /></svg>