<?xml version="1.0" standalone="no"?><!DOCTYPE svg PUBLIC "-//W3C//DTD SVG 1.1//EN" "http://www.w3.org/Graphics/SVG/1.1/DTD/svg11.dtd"><svg class="icon" width="200px" height="200.00px" viewBox="0 0 1024 1024" version="1.1" xmlns="http://www.w3.org/2000/svg"><path fill="#333333" d="M592.224 541.024c-17.056 0 3.424 8.544 25.6 11.936 5.984-4.256 11.52-9.376 16.64-14.08a125.44 125.44 0 0 1-42.848 2.048l0.608 0.064z m91.296-22.624c9.824-14.08 17.056-29.44 20.064-45.216-2.56 11.52-8.544 21.344-14.08 31.136-32 20.064-2.976-11.52 0-23.904-34.144 43.104-4.704 25.6-5.984 37.984z m33.28-87.456c2.144-30.72-5.984-21.344-8.544-9.376 2.976 1.696 5.536 21.344 8.544 9.376zM528.224 13.216c8.544 1.696 19.2 2.976 17.92 5.12 9.824-2.144 11.936-4.256-18.336-5.12z m17.92 5.12l-6.4 1.28 5.984-0.416V18.336z m282.432 424.128c0.864 27.296-8.544 40.544-16.224 64l-14.944 7.68c-11.936 23.04 1.28 14.944-7.264 33.28-18.784 16.64-57.184 52.064-69.12 55.456-8.544 0 5.984-10.656 8.096-14.496-25.184 17.056-20.48 25.6-58.464 36.256l-1.28-2.56c-94.72 44.384-226.144-43.52-224-163.84-1.28 7.264-2.976 5.536-5.12 8.544a151.424 151.424 0 0 1 84.448-148.928l0.896-0.384a141.472 141.472 0 0 1 64.416-15.296c36.384 0 69.6 13.568 94.88 35.904l-0.16-0.128a142.432 142.432 0 0 0-112.864-55.488l-3.36 0.032h0.16c-50.336 0.416-97.28 32.416-113.056 66.976-25.6 16.224-28.576 62.72-39.68 70.816-15.36 110.944 28.16 158.72 101.536 215.04 11.52 8.096 3.424 8.96 5.12 14.944a202.368 202.368 0 0 1-65.088-49.248l-0.192-0.224c9.824 14.08 20.064 28.16 34.144 38.816-23.456-7.68-54.176-55.456-63.136-57.6 39.68 70.816 161.28 124.576 224.416 98.144a263.808 263.808 0 0 1-101.28-12.48l1.856 0.544c-14.08-6.816-32.864-21.76-29.856-24.32a243.616 243.616 0 0 0 95.936 19.36 246.528 246.528 0 0 0 156.256-55.552l-0.448 0.352c18.784-14.944 39.68-40.096 45.664-40.544-8.544 13.664 1.696 6.816-5.12 18.784 18.784-30.72-8.544-12.8 19.616-52.896l10.24 14.08c-3.84-25.6 31.584-56.32 28.16-96.416 8.096-12.8 8.544 12.8 0 41.376 12.384-31.584 3.424-36.256 6.4-62.304 3.424 8.544 7.68 17.92 9.824 26.88-7.68-29.856 8.544-51.2 11.936-68.256-3.84-2.144-11.936 12.8-13.664-22.624 0-15.776 4.256-8.544 5.984-11.936-3.424-2.144-11.104-13.664-16.224-36.704 3.424-5.536 9.376 14.08 14.496 14.496-3.424-17.92-8.544-32-8.544-46.08-14.496-29.024-5.12 4.256-17.056-12.8-14.496-46.496 12.8-10.656 14.496-31.584 23.04 32.864 35.84 83.616 41.824 104.96-4.256-25.6-11.936-51.2-20.896-75.104 6.816 2.976-11.104-52.896 8.96-15.776a335.68 335.68 0 0 0-154.464-186.432l-1.696-0.864c7.68 7.264 17.92 16.64 14.08 17.92-32-19.2-26.464-20.48-31.136-28.576-26.016-10.656-27.744 0.864-45.216 0-49.504-26.464-58.88-23.456-104.096-40.544l2.144 9.824c-32.864-10.656-38.4 4.256-73.824 0-2.144-1.696 11.52-5.984 22.624-7.68-31.584 4.256-29.856-5.984-61.024 1.28 7.264-5.536 15.36-8.96 23.456-13.664-25.6 1.696-61.44 14.944-50.336 2.976-42.24 19.2-116.896 45.664-158.72 84.896l-1.28-9.376c-19.2 23.04-83.616 68.704-88.736 98.56l-5.536 1.28c-9.824 17.056-16.224 36.256-24.32 53.76-12.8 22.176-19.2 8.544-17.056 11.936-25.6 52.064-38.4 96-49.504 132.256 7.68 11.52 0 70.4 2.976 117.76-12.8 232.96 163.84 459.52 356.704 512 28.576 9.824 70.4 9.824 106.24 10.656-42.24-11.936-47.776-6.4-88.736-20.896-29.856-13.664-36.256-29.856-57.184-48.224l8.544 14.944c-41.376-14.496-24.32-17.92-58.016-28.576l8.96-11.52c-13.216-1.28-35.424-22.624-41.376-34.56l-14.496 0.416c-17.504-21.344-26.88-37.12-26.016-49.504l-4.704 8.544c-5.536-8.96-64.864-81.056-34.144-64.416-5.536-5.12-13.216-8.544-21.344-23.456l5.984-7.264c-14.944-18.784-27.296-43.52-26.464-51.2 8.544 10.24 13.664 12.8 19.2 14.08-37.536-92.576-39.68-5.12-68.256-93.856l6.4-0.864c-4.256-6.816-7.68-14.496-11.104-21.76l2.56-25.6c-26.88-31.584-7.68-132.256-3.84-187.744 2.976-23.04 22.624-46.944 37.536-84.48l-8.96-1.696c17.056-30.304 99.84-122.464 138.24-117.76 18.336-23.456-3.84 0-7.68-5.984 40.96-42.24 53.76-29.856 81.056-37.536 29.856-17.056-25.6 6.816-11.52-6.4 51.2-12.8 36.256-29.856 103.264-36.256 6.816 4.256-16.64 5.984-22.176 11.104 42.656-20.896 134.4-15.776 194.56 11.52 69.536 32.864 147.616 128.416 150.624 218.88l3.424 0.864c-1.696 36.256 5.536 77.664-7.264 115.616l8.544-17.92zM407.04 564.48l-2.144 11.936c11.104 14.944 20.064 31.136 34.144 43.104-10.24-20.064-17.92-28.16-32-55.456z m26.464-1.28c-5.984-6.4-9.376-14.496-13.216-22.176 3.424 13.664 11.104 25.6 18.336 37.536l-5.12-15.36z m466.752-101.536l-2.976 6.4a299.008 299.008 0 0 1-29.44 94.304 280.832 280.832 0 0 0 32-100.704zM531.2 5.12c11.52-4.256 28.16-2.144 40.544-5.12-15.776 1.28-31.584 2.144-46.944 4.256l6.4 0.864zM128.416 219.296c2.976 24.32-18.336 34.144 4.704 17.92 12.8-28.16-4.704-7.68-4.256-17.92z m-26.88 113.504c5.12-16.64 6.4-26.464 8.544-35.84-14.944 18.784-7.264 22.624-8.544 35.424z"  /></svg>