<?xml version="1.0" standalone="no"?><!DOCTYPE svg PUBLIC "-//W3C//DTD SVG 1.1//EN" "http://www.w3.org/Graphics/SVG/1.1/DTD/svg11.dtd"><svg class="icon" width="200px" height="200.00px" viewBox="0 0 1024 1024" version="1.1" xmlns="http://www.w3.org/2000/svg"><path fill="#333333" d="M512 0C229.344 0 0.224 229.024 0 511.648V907.84a116.384 116.384 0 0 0 116.384 116.128h395.808c282.656-0.128 511.776-229.28 511.776-512 0-282.752-229.248-512-512-512z m196.064 237.952c-16.16 0-22.016-3.104-45.728-3.104a126.848 126.848 0 0 0-126.848 126.624v110.208c0 9.888 8.032 17.92 17.92 17.92h83.328c31.072 0 56.16 24.736 56.16 55.904 0 31.328-25.344 55.968-56.736 55.968h-100.608v127.36a240.32 240.32 0 0 1-240.288 240.288h-1.248a190.944 190.944 0 0 1-53.216-7.52l1.344 0.32c-27.168-7.072-49.376-29.408-49.376-55.296 0-31.328 22.752-54.112 56.736-54.112 16.128 0 22.016 3.072 45.696 3.072a126.848 126.848 0 0 0 126.848-126.624v-110.208a17.92 17.92 0 0 0-17.92-17.888h-83.328a55.808 55.808 0 0 1-56.096-55.904c0-31.328 25.344-55.968 56.736-55.968h100.576v-127.36a240.32 240.32 0 0 1 240.288-240.288c20.128 0 34.432 2.272 53.088 7.136 27.168 7.136 49.408 29.44 49.408 55.296 0 31.36-22.752 54.144-56.704 54.144z"  /></svg>