<?xml version="1.0" standalone="no"?><!DOCTYPE svg PUBLIC "-//W3C//DTD SVG 1.1//EN" "http://www.w3.org/Graphics/SVG/1.1/DTD/svg11.dtd"><svg class="icon" width="200px" height="196.92px" viewBox="0 0 1040 1024" version="1.1" xmlns="http://www.w3.org/2000/svg"><path fill="#d81e06" d="M1026.937905 20.764444c54.889651 54.857143-97.275937 296.01727-123.001905 321.755429-25.721905 25.685333-91.058794 2.052063-145.92-52.825397-54.889651-54.857143-78.535111-120.210286-52.809143-145.936254 25.709714-25.734095 266.853587-177.887492 321.731048-122.997841M257.239365 78.807365c-83.797333-47.542857-203.036444-100.43327-240.965079-62.496508-38.432508 38.416254 16.392127 160.33727 64.438857 244.284953a515.299556 515.299556 0 0 1 176.526222-181.788445"  /><path fill="#d81e06" d="M943.229968 323.600254c7.716571 26.168889 6.330921 47.786667-6.184635 60.277841-29.228698 29.240889-108.186413-1.88546-179.362539-69.623873a363.207111 363.207111 0 0 1-14.738286-13.929651c-25.738159-25.746286-45.763048-53.150476-58.571175-78.388825-24.929524-44.722794-31.166984-84.219937-12.324571-103.066413 10.268444-10.256254 26.697143-13.051937 46.738286-9.447619 13.06819-8.265143 28.49727-17.473016 45.413587-26.904381-68.790857-35.880635-147.000889-56.14527-229.965206-56.14527C259.05981 26.372063 35.978159 249.417143 35.978159 524.617143c0 275.151238 223.085714 498.224762 498.25727 498.224762 275.179683 0 498.249143-223.073524 498.249142-498.224762 0-88.868571-23.324444-172.198603-64.069079-244.443429-8.805587 16.071111-17.367365 30.793143-25.185524 43.42654"  /></svg>