<?xml version="1.0" standalone="no"?><!DOCTYPE svg PUBLIC "-//W3C//DTD SVG 1.1//EN" "http://www.w3.org/Graphics/SVG/1.1/DTD/svg11.dtd"><svg class="icon" width="200px" height="200.00px" viewBox="0 0 1024 1024" version="1.1" xmlns="http://www.w3.org/2000/svg"><path fill="#333333" d="M512 1007.161c-276.707 0-495.161-225.735-495.161-495.161 0-276.707 225.735-495.161 495.161-495.161 276.707 0 495.161 225.735 495.161 495.161 0 276.707-218.453 495.161-495.161 495.161zM512 75.093c-240.299 0-436.907 196.608-436.907 436.907s196.608 436.907 436.907 436.907 436.907-196.608 436.907-436.907-196.608-436.907-436.907-436.907z"  /><path fill="#333333" d="M512 628.509c-65.536 0-116.509-50.973-116.509-116.509s50.973-116.509 116.509-116.509 116.509 50.973 116.509 116.509c0 65.536-50.973 116.509-116.509 116.509zM512 461.027c-29.127 0-50.973 21.845-50.973 50.973s21.845 50.973 50.973 50.973c29.127 0 50.973-21.845 50.973-50.973s-21.845-50.973-50.973-50.973zM155.193 548.409c-7.282 0-14.563-7.282-14.563-14.563v-21.845c0-7.282 7.282-14.563 14.563-14.563s14.563 7.282 14.563 14.563v14.563c0 14.563-7.282 21.845-14.563 21.845zM337.237 839.68h-7.282c-101.945-58.254-167.481-152.917-182.045-262.144 0-7.282 7.282-14.563 14.563-14.563s14.563 7.282 14.563 14.563c14.563 101.945 80.099 189.326 167.481 240.299 7.282 7.282 7.282 14.563 7.282 21.845h-14.563zM315.392 715.89c-7.282 0-7.282 0-14.563-7.282-43.691-43.691-72.818-109.227-72.818-174.763 0-7.282 7.282-14.563 14.563-14.563s14.563 7.282 14.563 14.563c0 58.254 21.845 109.227 65.536 152.917 7.282 7.282 7.282 14.563 0 21.845 0 7.282-7.282 7.282-7.282 7.282zM366.365 752.299h-7.282c-7.282 0-7.282-7.282-14.563-7.282-7.282-7.282-7.282-14.563-7.282-21.845 7.282-7.282 14.563-7.282 21.845-7.282 7.282 0 7.282 7.282 14.563 7.282 7.282 7.282 7.282 14.563 7.282 21.845-7.282 7.282-14.563 7.282-14.563 7.282zM380.928 664.917h-7.282c-36.409-21.845-65.536-65.536-65.536-109.227 0-7.282 7.282-14.563 14.563-14.563s14.563 7.282 14.563 14.563c0 36.409 14.563 65.536 50.973 80.099 7.282 7.282 7.282 14.563 7.282 21.845 0 7.282-7.282 7.282-14.563 7.282zM861.525 555.691c-7.282 0-14.563-7.282-14.563-14.563 14.563-123.79-36.409-247.581-138.354-320.398-7.282-7.282-7.282-14.563 0-21.845 7.282-7.282 14.563-7.282 21.845 0 109.227 80.099 167.481 211.171 152.917 349.525-7.282 0-14.563 7.282-21.845 7.282z"  /><path fill="#333333" d="M774.144 526.563c-7.282 0-14.563-7.282-14.563-14.563 7.282-80.099-21.845-152.917-87.381-196.608-7.282-7.282-7.282-14.563 0-21.845s14.563-7.282 21.845 0c72.818 50.973 109.227 138.354 101.945 225.735-7.282 0-14.563 7.282-21.845 7.282zM694.045 490.155c-7.282 0-14.563-7.282-14.563-14.563 7.282-36.409-7.282-65.536-36.409-87.381-7.282-7.282-7.282-14.563 0-21.845 7.282-7.282 14.563-7.282 21.845 0 36.409 29.127 58.254 72.818 50.973 116.509-7.282 0-14.563 7.282-21.845 7.282z"  /></svg>