<?xml version="1.0" standalone="no"?><!DOCTYPE svg PUBLIC "-//W3C//DTD SVG 1.1//EN" "http://www.w3.org/Graphics/SVG/1.1/DTD/svg11.dtd"><svg t="1594362204188" class="icon" viewBox="0 0 1024 1024" version="1.1" xmlns="http://www.w3.org/2000/svg" p-id="1194" xmlns:xlink="http://www.w3.org/1999/xlink" width="200" height="200"><defs><style type="text/css"></style></defs><path d="M234.666667 256h42.666666V170.666667h-42.666666v85.333333z m-85.333334 0h42.666667V170.666667H149.333333v85.333333z m533.333334-21.333333h170.666666V192h-170.666666v42.666667zM234.666667 554.666667h42.666666v-85.333334h-42.666666v85.333334z m-85.333334 0h42.666667v-85.333334H149.333333v85.333334z m533.333334-21.333334h170.666666v-42.666666h-170.666666v42.666666z m277.333333 149.333334c12.8 0 21.333333-8.533333 21.333333-21.333334V64c0-12.8-8.533333-21.333333-21.333333-21.333333H64c-12.8 0-21.333333 8.533333-21.333333 21.333333v597.333333c0 12.8 8.533333 21.333333 21.333333 21.333334h426.666667v98.133333L418.133333 853.333333H42.666667v42.666667h375.466666l78.933334 78.933333c4.266667 4.266667 10.666667 6.4 14.933333 6.4s10.666667-2.133333 14.933333-6.4l78.933334-78.933333H981.333333v-42.666667H605.866667L533.333333 780.8V682.666667h426.666667zM85.333333 85.333333h853.333334v256H85.333333V85.333333z m482.133334 789.333334L512 930.133333 456.533333 874.666667l55.466667-55.466667 55.466667 55.466667zM85.333333 640V384h853.333334v256H85.333333z" p-id="1195"></path></svg>