<svg width="36" height="37" viewBox="0 0 36 37" fill="none" xmlns="http://www.w3.org/2000/svg">
<path d="M27.225 4.09998H8.775C7.34596 4.09998 6.1875 5.25844 6.1875 6.68748V30.3125C6.1875 31.7415 7.34596 32.9 8.775 32.9H27.225C28.654 32.9 29.8125 31.7415 29.8125 30.3125V6.68748C29.8125 5.25844 28.654 4.09998 27.225 4.09998Z" stroke="currentColor" stroke-width="1.2" stroke-linecap="round" stroke-linejoin="round"/>
<path d="M6.1875 13.7075H29.8125" stroke="currentColor" stroke-width="1.2" stroke-linecap="round" stroke-linejoin="round"/>
<path d="M6.1875 23.2925H29.8125" stroke="currentColor" stroke-width="1.2" stroke-linecap="round" stroke-linejoin="round"/>
<path d="M13.9874 8.86996C13.9874 9.44986 13.5173 9.91996 12.9374 9.91996C12.3575 9.91996 11.8874 9.44986 11.8874 8.86996C11.8874 8.29006 12.3575 7.81996 12.9374 7.81996C13.5173 7.81996 13.9874 8.29006 13.9874 8.86996Z" stroke="currentColor" stroke-width="0.6" stroke-linecap="round" stroke-linejoin="round"/>
<path d="M13.9874 28.1525C13.9874 28.7324 13.5173 29.2025 12.9374 29.2025C12.3575 29.2025 11.8874 28.7324 11.8874 28.1525C11.8874 27.5726 12.3575 27.1025 12.9374 27.1025C13.5173 27.1025 13.9874 27.5726 13.9874 28.1525Z" stroke="currentColor" stroke-width="0.6" stroke-linecap="round" stroke-linejoin="round"/>
<path d="M13.9874 18.5C13.9874 19.0799 13.5173 19.55 12.9374 19.55C12.3575 19.55 11.8874 19.0799 11.8874 18.5C11.8874 17.9201 12.3575 17.45 12.9374 17.45C13.5173 17.45 13.9874 17.9201 13.9874 18.5Z" stroke="currentColor" stroke-width="0.6" stroke-linecap="round" stroke-linejoin="round"/>
</svg>
