<?xml version="1.0" encoding="UTF-8"?>
<svg width="18px" height="24px" viewBox="0 0 18 24" version="1.1" xmlns="http://www.w3.org/2000/svg" xmlns:xlink="http://www.w3.org/1999/xlink">
    <title>jiesuo</title>
    <g id="设计规范" stroke="none" stroke-width="1" fill="none" fill-rule="evenodd">
        <g id="3.-Icon" transform="translate(-33.000000, -729.000000)" fill="#515151" fill-rule="nonzero">
            <g id="jiesuo" transform="translate(33.000000, 729.000000)">
                <path d="M12.417165,9.76331881 L15.0798903,9.7988131 L15.0798903,7.02692308 C15.0798903,2.75769231 12.6408128,0 8.86685697,0 C5.09290114,0 2.65384615,2.75769231 2.65384615,7.02692308 L2.65384615,9.76331881 L5.31657151,9.76331881 L5.31657151,7.02692308 C5.31657151,5.71419772 5.66272536,2.66272536 8.86685697,2.66272536 C11.9556265,2.66272536 12.417165,5.39734075 12.417165,7.02692308 L12.417165,9.76331881 Z" id="路径"></path>
                <path d="M15.1065054,9.7988131 L2.68048377,9.7988131 C1.21065956,9.7988131 0.0177584135,10.9917142 0.0177584135,12.4615385 L0.0177584135,21.3372746 C0.0177584135,22.8070989 1.21065956,24 2.68048377,24 L15.1065054,24 C16.5763296,24 17.7692308,22.8070989 17.7692308,21.3372746 L17.7692308,12.4615385 C17.7692308,10.9917368 16.5763296,9.7988131 15.1065054,9.7988131 Z M9.78105469,17.5411208 L9.78105469,19.5621319 C9.78105469,20.0511644 9.38254958,20.4497145 8.89349459,20.4497145 C8.4044396,20.4497145 8.00591196,20.0511869 8.00591196,19.5621319 L8.00591196,17.5411208 C7.47692308,17.233143 7.11835186,16.6677584 7.11835186,16.0118239 C7.11835186,15.0319561 7.91360427,14.2366812 8.89349459,14.2366812 C9.87338492,14.2366812 10.6686599,15.0319561 10.6686599,16.0118465 C10.6686599,16.666857 10.3100661,17.233143 9.78105469,17.5411433 L9.78105469,17.5411208 Z" id="形状"></path>
            </g>
        </g>
    </g>
</svg>