<?xml version="1.0" encoding="UTF-8"?>
<svg width="18px" height="24px" viewBox="0 0 18 24" version="1.1" xmlns="http://www.w3.org/2000/svg" xmlns:xlink="http://www.w3.org/1999/xlink">
    <title>lock</title>
    <g stroke="none" stroke-width="1" fill="none" fill-rule="evenodd">
        <g id="lock" transform="translate(-0.000000, 0.000000)" fill="#EB354D" fill-rule="nonzero">
            <path d="M12.3994066,9.76331881 L15.0621319,9.7988131 L15.0621319,7.02692308 C15.0621319,2.75769231 12.6230544,0 8.84909856,0 C5.07514273,0 2.63608774,2.75769231 2.63608774,7.02692308 L2.63608774,9.76331881 L5.2988131,9.76331881 L5.2988131,7.02692308 C5.2988131,5.71419772 5.64496695,2.66272536 8.84909856,2.66272536 C11.9378681,2.66272536 12.3994066,5.39734075 12.3994066,7.02692308 L12.3994066,9.76331881 Z" id="path"></path>
            <path d="M15.088747,9.7988131 L2.66272536,9.7988131 C1.19290115,9.7988131 0,10.9917142 0,12.4615385 L0,21.3372746 C0,22.8070989 1.19290115,24 2.66272536,24 L15.088747,24 C16.5585712,24 17.7514724,22.8070989 17.7514724,21.3372746 L17.7514724,12.4615385 C17.7514724,10.9917368 16.5585712,9.7988131 15.088747,9.7988131 Z M9.76329628,17.5411208 L9.76329628,19.5621319 C9.76329628,20.0511644 9.36479117,20.4497145 8.87573618,20.4497145 C8.38668119,20.4497145 7.98815355,20.0511869 7.98815355,19.5621319 L7.98815355,17.5411208 C7.45916467,17.233143 7.10059345,16.6677584 7.10059345,16.0118239 C7.10059345,15.0319561 7.89584586,14.2366812 8.87573618,14.2366812 C9.85562651,14.2366812 10.6509015,15.0319561 10.6509015,16.0118465 C10.6509015,16.666857 10.2923077,17.233143 9.76329628,17.5411433 L9.76329628,17.5411208 Z" id="shape"></path>
        </g>
    </g>
</svg>