<?xml version="1.0" standalone="no"?><!DOCTYPE svg PUBLIC "-//W3C//DTD SVG 1.1//EN" "http://www.w3.org/Graphics/SVG/1.1/DTD/svg11.dtd"><svg class="icon" width="200px" height="199.61px" viewBox="0 0 1026 1024" version="1.1" xmlns="http://www.w3.org/2000/svg"><path d="M488.747 440.747c0-19.2 13.44-35.093 29.867-35.093 16.533 0 29.867 13.973 29.867 33.173v190.72c0 19.2-13.44 32.213-29.867 32.213-16.533 0-29.867-12.8-29.867-31.893v-189.12zM519.147 763.093c-18.24 0-32.96-15.040-32.96-33.707 0-18.56 14.72-33.707 32.96-33.707 18.24 0 32.96 15.040 32.96 33.707s-14.72 33.707-32.96 33.707z" fill="#FAAD14" /><path d="M572.621 175.582c22.391 37.683 355.533 598.016 372.463 626.961 15.292 25.668 15.292 50.244 7.1 66.082-9.284 17.476-31.676 22.938-56.252 22.938h-756.941c-30.037 0-52.429-8.192-58.982-21.299-8.192-17.476-6.554-40.414 12.015-71.543 20.207-33.86 351.164-602.385 362.086-619.861 16.384-27.853 39.868-46.421 61.713-46.421 21.845 0 43.691 21.845 56.798 43.145zM501.623 235.11c-12.561 21.299-322.219 547.226-338.057 572.894-7.1 12.015-8.738 19.115 7.1 19.115h688.674c15.292 0 16.93-8.738 10.377-19.661-26.761-44.237-329.318-552.687-342.426-573.44-12.561-20.753-13.107-20.207-25.668 1.092z" fill="#FAAD14" /></svg>