<?xml version="1.0" encoding="UTF-8"?>
<svg xmlns="http://www.w3.org/2000/svg" xmlns:xlink="http://www.w3.org/1999/xlink" width="204px" height="202px" viewBox="0 0 204 202" version="1.1">
<g id="surface1">
<path style=" stroke:none;fill-rule:nonzero;fill:rgb(78.039217%,27.058825%,20%);fill-opacity:1;" d="M 15.597656 0.6875 C 16.011719 0.683594 16.421875 0.683594 16.832031 0.679688 C 17.691406 0.679688 18.546875 0.683594 19.40625 0.691406 C 20.390625 0.699219 21.375 0.699219 22.359375 0.6875 C 23.3125 0.679688 24.273438 0.679688 25.226562 0.683594 C 25.628906 0.6875 26.03125 0.683594 26.4375 0.679688 C 29.09375 0.65625 31.769531 0.699219 34.164062 4.550781 C 34.269531 4.710938 34.375 4.867188 34.480469 5.035156 C 37.503906 9.808594 39.898438 17.394531 40.957031 27.058594 C 41.980469 37.875 41.78125 48.917969 39.902344 58.867188 C 39.238281 62.214844 38.386719 64.933594 37.453125 67.640625 C 37.34375 67.984375 37.230469 68.324219 37.117188 68.671875 C 34.824219 75.253906 31.582031 77.96875 28.457031 77.992188 C 28.273438 77.996094 28.09375 77.996094 27.902344 78 C 27.300781 78.007812 26.699219 78.015625 26.09375 78.019531 C 25.78125 78.023438 25.78125 78.023438 25.464844 78.027344 C 24.484375 78.035156 23.5 78.039062 22.515625 78.042969 C 21.390625 78.050781 20.261719 78.0625 19.132812 78.078125 C 18.253906 78.09375 17.378906 78.101562 16.503906 78.101562 C 15.980469 78.101562 15.460938 78.109375 14.9375 78.121094 C 12.199219 78.171875 9.707031 77.949219 7.203125 74.320312 C 7.089844 74.164062 6.976562 74.003906 6.863281 73.839844 C 5.835938 72.324219 4.980469 70.410156 4.144531 68.113281 C 4.019531 67.792969 3.898438 67.472656 3.769531 67.140625 C 1.703125 61.535156 0.160156 52.980469 -0.0351562 44.695312 C -0.175781 32.421875 0.429688 22.3125 3.347656 13.0625 C 3.445312 12.734375 3.542969 12.402344 3.644531 12.070312 C 6.808594 1.984375 11.199219 0.640625 15.597656 0.6875 Z M 7.652344 23.324219 C 6.296875 28.070312 5.46875 34.019531 5.527344 40.269531 C 5.855469 48.402344 6.984375 54.359375 9.132812 59.625 C 10.351562 62.273438 11.816406 63.957031 13.339844 63.980469 C 13.484375 63.984375 13.628906 63.988281 13.78125 63.992188 C 13.9375 63.992188 14.097656 63.992188 14.261719 63.992188 C 14.511719 64 14.511719 64 14.769531 64.003906 C 15.324219 64.011719 15.882812 64.019531 16.4375 64.023438 C 16.625 64.023438 16.816406 64.027344 17.011719 64.027344 C 18.019531 64.039062 19.027344 64.042969 20.035156 64.046875 C 21.074219 64.054688 22.113281 64.070312 23.148438 64.089844 C 23.949219 64.101562 24.75 64.105469 25.550781 64.105469 C 25.933594 64.109375 26.3125 64.117188 26.699219 64.125 C 29.441406 64.324219 29.441406 64.324219 32.035156 62.046875 C 32.164062 61.871094 32.292969 61.691406 32.429688 61.511719 C 34.695312 58.300781 36.007812 52.476562 36.816406 45.71875 C 37.382812 39.390625 36.980469 32.566406 35.898438 26.941406 C 34.46875 20.5 32.539062 16.570312 29.964844 14.929688 C 29.722656 14.886719 29.484375 14.863281 29.246094 14.859375 C 29.03125 14.855469 29.03125 14.855469 28.8125 14.851562 C 28.65625 14.851562 28.503906 14.847656 28.34375 14.847656 C 28.179688 14.84375 28.011719 14.839844 27.84375 14.839844 C 27.296875 14.828125 26.753906 14.824219 26.207031 14.820312 C 26.019531 14.816406 25.835938 14.816406 25.640625 14.8125 C 24.652344 14.804688 23.664062 14.796875 22.675781 14.789062 C 21.65625 14.785156 20.636719 14.769531 19.621094 14.75 C 18.832031 14.738281 18.046875 14.734375 17.261719 14.730469 C 16.886719 14.730469 16.511719 14.722656 16.136719 14.714844 C 12.722656 14.640625 10.117188 15.820312 7.652344 23.324219 Z M 7.652344 23.324219 "/>
<path style=" stroke:none;fill-rule:nonzero;fill:rgb(78.039217%,27.058825%,20%);fill-opacity:1;" d="M 44.308594 0.929688 C 50.121094 0.875 50.121094 0.875 56.050781 0.816406 C 57.269531 0.800781 58.492188 0.78125 59.75 0.765625 C 61.246094 0.757812 61.246094 0.757812 61.949219 0.753906 C 62.4375 0.753906 62.925781 0.746094 63.414062 0.738281 C 64.039062 0.722656 64.664062 0.71875 65.289062 0.722656 C 65.515625 0.722656 65.742188 0.71875 65.972656 0.710938 C 68.511719 0.632812 70.945312 2.683594 72.835938 7.851562 C 74.707031 13.847656 75.652344 20.925781 75.535156 29.101562 C 75.257812 36.785156 74.0625 43.09375 72.035156 48.050781 C 70.15625 51.835938 68.40625 53.144531 66.160156 53.441406 C 65.949219 53.476562 65.949219 53.476562 65.734375 53.507812 C 65.390625 53.554688 65.050781 53.601562 64.707031 53.648438 C 64.808594 53.894531 64.910156 54.136719 65.015625 54.386719 C 66.289062 57.425781 67.546875 60.523438 68.796875 63.636719 C 69.683594 65.851562 70.574219 68.050781 71.480469 70.210938 C 72.160156 71.828125 72.832031 73.460938 73.5 75.105469 C 73.640625 75.445312 73.640625 75.445312 73.78125 75.789062 C 74 76.328125 74.214844 76.882812 74.425781 77.441406 C 74.425781 77.597656 74.425781 77.75 74.425781 77.90625 C 73.375 78.039062 72.320312 78.128906 71.265625 78.1875 C 70.90625 78.214844 70.546875 78.25 70.191406 78.292969 C 66.894531 78.695312 66.894531 78.695312 65.867188 76.152344 C 65.507812 75.089844 65.1875 73.9375 64.863281 72.773438 C 64.578125 72.058594 64.289062 71.355469 63.988281 70.675781 C 63.269531 68.980469 62.589844 67.191406 61.914062 65.351562 C 61.398438 63.957031 60.871094 62.636719 60.324219 61.34375 C 59.605469 59.648438 58.925781 57.863281 58.25 56.019531 C 57.738281 54.632812 57.210938 53.320312 56.667969 52.046875 C 55.90625 50.253906 55.195312 48.355469 54.484375 46.402344 C 53.773438 44.460938 53.035156 42.679688 52.265625 40.933594 C 52.113281 40.53125 52.113281 40.53125 51.957031 40.121094 C 51.957031 39.8125 51.957031 39.503906 51.957031 39.1875 C 52.144531 39.183594 52.328125 39.183594 52.519531 39.179688 C 54.28125 39.164062 56.042969 39.136719 57.804688 39.101562 C 58.710938 39.082031 59.613281 39.066406 60.519531 39.0625 C 61.394531 39.054688 62.269531 39.039062 63.144531 39.015625 C 63.476562 39.007812 63.808594 39.003906 64.140625 39.003906 C 64.609375 39.003906 65.078125 38.992188 65.542969 38.976562 C 65.679688 38.976562 65.816406 38.980469 65.957031 38.984375 C 67.117188 38.925781 67.984375 37.804688 68.96875 36.09375 C 69.753906 33.675781 70.238281 30.527344 70.304688 27.191406 C 70.238281 23.886719 69.835938 20.523438 69.011719 18.195312 C 68.179688 16.546875 67.386719 15.34375 66.375 15.320312 C 66.226562 15.316406 66.078125 15.3125 65.925781 15.308594 C 65.761719 15.304688 65.601562 15.304688 65.433594 15.300781 C 65.257812 15.296875 65.085938 15.289062 64.90625 15.285156 C 64.34375 15.269531 63.78125 15.261719 63.214844 15.25 C 62.867188 15.238281 62.519531 15.230469 62.171875 15.222656 C 60.882812 15.1875 59.589844 15.160156 58.300781 15.132812 C 55.417969 15.0625 52.535156 14.996094 49.566406 14.929688 C 49.566406 35.714844 49.566406 56.492188 49.566406 77.90625 C 47.828125 77.90625 46.09375 77.90625 44.308594 77.90625 C 44.308594 52.503906 44.308594 27.105469 44.308594 0.929688 Z M 44.308594 0.929688 "/>
<path style=" stroke:none;fill-rule:nonzero;fill:rgb(78.039217%,27.058825%,20.392157%);fill-opacity:1;" d="M 185.914062 0.828125 C 186.105469 0.828125 186.300781 0.828125 186.5 0.828125 C 187.023438 0.828125 187.546875 0.832031 188.070312 0.839844 C 188.621094 0.84375 189.171875 0.84375 189.71875 0.84375 C 190.757812 0.847656 191.796875 0.855469 192.835938 0.863281 C 194.019531 0.875 195.203125 0.878906 196.386719 0.886719 C 198.816406 0.894531 201.25 0.910156 203.683594 0.929688 C 203.578125 1.53125 203.476562 2.128906 203.378906 2.730469 C 203.292969 3.230469 203.292969 3.230469 203.207031 3.738281 C 203.027344 4.761719 202.832031 5.726562 202.617188 6.683594 C 202.539062 7.019531 202.464844 7.355469 202.386719 7.699219 C 202.3125 8.035156 202.234375 8.371094 202.15625 8.71875 C 202.003906 9.402344 201.851562 10.082031 201.699219 10.761719 C 201.632812 11.0625 201.566406 11.359375 201.496094 11.664062 C 201.273438 12.605469 201.273438 12.605469 201.132812 13.804688 C 200.8125 14.929688 200.8125 14.929688 200.515625 15.140625 C 200.105469 15.222656 199.707031 15.226562 199.296875 15.207031 C 199.066406 15.210938 199.066406 15.210938 198.828125 15.214844 C 198.492188 15.214844 198.152344 15.214844 197.816406 15.207031 C 197.277344 15.195312 196.742188 15.195312 196.207031 15.203125 C 195.066406 15.210938 193.925781 15.203125 192.785156 15.1875 C 191.46875 15.179688 190.152344 15.175781 188.832031 15.1875 C 188.308594 15.195312 187.785156 15.179688 187.257812 15.171875 C 184.519531 15.160156 182.066406 16.265625 179.972656 21.984375 C 178.972656 25.101562 178.320312 28.621094 177.863281 32.65625 C 185.910156 32.65625 193.957031 32.65625 202.246094 32.65625 C 202.007812 34.402344 201.804688 35.644531 201.460938 37.175781 C 201.371094 37.578125 201.28125 37.980469 201.1875 38.394531 C 201.09375 38.808594 201 39.222656 200.902344 39.65625 C 200.714844 40.480469 200.53125 41.308594 200.34375 42.132812 C 200.261719 42.496094 200.179688 42.859375 200.09375 43.234375 C 199.847656 44.3125 199.847656 44.3125 199.65625 45.535156 C 199.378906 46.648438 199.378906 46.648438 198.984375 46.9375 C 198.824219 46.9375 198.667969 46.933594 198.503906 46.933594 C 198.320312 46.933594 198.140625 46.9375 197.953125 46.941406 C 197.753906 46.933594 197.554688 46.925781 197.347656 46.917969 C 197.136719 46.917969 196.929688 46.917969 196.710938 46.917969 C 196.136719 46.917969 195.5625 46.90625 194.984375 46.886719 C 194.382812 46.875 193.78125 46.871094 193.179688 46.871094 C 192.039062 46.863281 190.902344 46.84375 189.761719 46.820312 C 188.464844 46.792969 187.164062 46.78125 185.867188 46.769531 C 183.199219 46.742188 180.53125 46.703125 177.863281 46.648438 C 178.035156 47.6875 178.203125 48.726562 178.378906 49.757812 C 178.425781 50.050781 178.472656 50.339844 178.523438 50.636719 C 179.492188 56.433594 181.191406 60.371094 183.230469 62.640625 C 183.902344 63.253906 184.53125 63.503906 185.238281 63.519531 C 185.402344 63.523438 185.570312 63.527344 185.742188 63.535156 C 186.011719 63.539062 186.011719 63.539062 186.285156 63.542969 C 186.574219 63.546875 186.574219 63.546875 186.867188 63.554688 C 187.390625 63.566406 187.914062 63.578125 188.4375 63.585938 C 188.984375 63.597656 189.53125 63.609375 190.078125 63.621094 C 191.113281 63.644531 192.148438 63.664062 193.183594 63.683594 C 194.363281 63.707031 195.542969 63.738281 196.722656 63.761719 C 199.148438 63.816406 201.574219 63.863281 204 63.914062 C 203.890625 65.71875 203.738281 66.902344 203.390625 68.429688 C 203.253906 69.035156 203.253906 69.035156 203.113281 69.65625 C 203.019531 70.070312 202.921875 70.484375 202.824219 70.910156 C 202.636719 71.738281 202.449219 72.5625 202.261719 73.386719 C 202.179688 73.753906 202.097656 74.117188 202.011719 74.492188 C 201.753906 75.554688 201.753906 75.554688 201.613281 76.792969 C 201.292969 77.90625 201.292969 77.90625 200.976562 78.125 C 200.542969 78.210938 200.117188 78.214844 199.683594 78.203125 C 199.515625 78.203125 199.351562 78.207031 199.179688 78.210938 C 198.632812 78.21875 198.082031 78.210938 197.535156 78.199219 C 197.148438 78.199219 196.765625 78.203125 196.386719 78.203125 C 195.582031 78.203125 194.777344 78.199219 193.972656 78.183594 C 192.949219 78.167969 191.921875 78.171875 190.898438 78.179688 C 190.105469 78.1875 189.316406 78.183594 188.523438 78.175781 C 188.144531 78.171875 187.769531 78.171875 187.390625 78.175781 C 184.761719 78.1875 182.355469 77.785156 179.953125 74.289062 C 179.839844 74.132812 179.726562 73.96875 179.613281 73.804688 C 178.65625 72.398438 177.847656 70.714844 177.066406 68.578125 C 176.933594 68.234375 176.800781 67.890625 176.667969 67.535156 C 174.066406 60.414062 172.851562 51.113281 172.558594 40.882812 C 172.449219 30.304688 173.75 20.449219 176.222656 12.753906 C 176.339844 12.390625 176.460938 12.03125 176.589844 11.664062 C 176.695312 11.335938 176.804688 11.011719 176.917969 10.671875 C 179.363281 3.867188 182.59375 0.765625 185.914062 0.828125 Z M 185.914062 0.828125 "/>
<path style=" stroke:none;fill-rule:nonzero;fill:rgb(78.039217%,27.058825%,20%);fill-opacity:1;" d="M 96.902344 1.867188 C 98.03125 4.550781 98.71875 8.550781 99.453125 12.160156 C 99.925781 14.484375 100.429688 16.746094 100.933594 19.007812 C 101.660156 22.25 102.375 25.507812 103.085938 28.777344 C 103.882812 32.457031 104.683594 36.132812 105.488281 39.800781 C 105.59375 40.285156 105.699219 40.769531 105.808594 41.273438 C 106.023438 42.261719 106.242188 43.25 106.457031 44.238281 C 106.886719 46.191406 107.3125 48.144531 107.738281 50.097656 C 107.949219 51.0625 108.160156 52.03125 108.375 52.996094 C 108.914062 55.476562 109.457031 57.953125 109.996094 60.425781 C 110.105469 60.925781 110.214844 61.429688 110.328125 61.945312 C 110.542969 62.9375 110.761719 63.921875 110.976562 64.910156 C 111.457031 67.113281 111.941406 69.316406 112.429688 71.503906 C 112.515625 71.875 112.597656 72.246094 112.679688 72.628906 C 112.835938 73.308594 112.988281 73.992188 113.140625 74.664062 C 113.636719 76.871094 113.636719 76.871094 113.636719 77.90625 C 112.789062 78.011719 111.945312 78.089844 111.101562 78.136719 C 110.8125 78.160156 110.523438 78.1875 110.238281 78.222656 C 107.863281 78.519531 107.863281 78.519531 107.203125 77.105469 C 106.949219 76.007812 106.789062 74.941406 106.621094 73.710938 C 106.46875 72.964844 106.308594 72.222656 106.144531 71.492188 C 105.992188 70.765625 105.839844 70.039062 105.683594 69.308594 C 105.605469 68.933594 105.527344 68.558594 105.445312 68.175781 C 105.371094 67.816406 105.296875 67.460938 105.21875 67.09375 C 105.152344 66.769531 105.082031 66.449219 105.015625 66.125 C 104.871094 65.3125 104.871094 65.3125 104.871094 64.378906 C 104.699219 64.386719 104.53125 64.398438 104.355469 64.410156 C 102.757812 64.507812 101.164062 64.574219 99.566406 64.621094 C 98.742188 64.644531 97.925781 64.679688 97.101562 64.730469 C 96.308594 64.78125 95.515625 64.808594 94.722656 64.820312 C 94.421875 64.828125 94.121094 64.84375 93.816406 64.871094 C 91.453125 65.0625 91.453125 65.0625 90.742188 63.394531 C 90.449219 62.195312 90.25 61.054688 90.046875 59.710938 C 89.875 58.914062 89.699219 58.117188 89.519531 57.335938 C 89.351562 56.5625 89.1875 55.789062 89.019531 55.015625 C 88.933594 54.621094 88.847656 54.222656 88.757812 53.8125 C 88.136719 50.910156 88.136719 50.910156 88.136719 50.382812 C 92.5 50.226562 96.867188 50.074219 101.363281 49.917969 C 100.730469 46.992188 100.101562 44.066406 99.449219 41.054688 C 99.027344 39.054688 98.605469 37.054688 98.183594 35.046875 C 97.96875 34.015625 97.753906 32.988281 97.535156 31.960938 C 97.433594 31.457031 97.324219 30.949219 97.21875 30.429688 C 96.632812 27.640625 96.039062 24.859375 95.449219 22.074219 C 95.328125 21.511719 95.328125 21.511719 95.207031 20.933594 C 95.136719 20.605469 95.066406 20.277344 94.996094 19.941406 C 94.828125 19.125 94.828125 19.125 94.667969 18.195312 C 93.84375 21.554688 93.089844 25.003906 92.359375 28.542969 C 91.515625 32.605469 90.652344 36.617188 89.757812 40.585938 C 88.980469 44.042969 88.226562 47.515625 87.496094 51.050781 C 86.746094 54.6875 85.96875 58.269531 85.191406 61.851562 C 84.777344 63.761719 84.363281 65.671875 83.949219 67.585938 C 83.878906 67.921875 83.804688 68.261719 83.730469 68.609375 C 83.621094 69.109375 83.621094 69.109375 83.511719 69.621094 C 83.433594 69.960938 83.355469 70.304688 83.277344 70.65625 C 83.015625 71.878906 83.015625 71.878906 82.804688 73.445312 C 82.511719 75.285156 82.269531 76.523438 81.761719 77.90625 C 80.746094 78.894531 79.621094 78.476562 78.574219 78.285156 C 78.277344 78.253906 77.984375 78.226562 77.691406 78.203125 C 76.976562 78.136719 76.261719 78.035156 75.542969 77.90625 C 75.816406 75.820312 76.179688 74.046875 76.601562 72.191406 C 76.757812 71.480469 76.917969 70.769531 77.074219 70.0625 C 77.160156 69.679688 77.25 69.292969 77.335938 68.894531 C 77.851562 66.589844 78.355469 64.273438 78.859375 61.957031 C 78.96875 61.460938 79.078125 60.964844 79.191406 60.449219 C 79.980469 56.832031 80.765625 53.214844 81.554688 49.59375 C 82.789062 43.90625 84.03125 38.242188 85.273438 32.570312 C 85.597656 31.09375 85.917969 29.613281 86.242188 28.136719 C 86.347656 27.652344 86.453125 27.171875 86.5625 26.679688 C 87.167969 23.898438 87.773438 21.117188 88.378906 18.328125 C 88.65625 17.058594 88.933594 15.789062 89.210938 14.519531 C 89.546875 12.960938 89.882812 11.398438 90.21875 9.828125 C 90.367188 9.117188 90.523438 8.40625 90.675781 7.699219 C 90.738281 7.382812 90.804688 7.066406 90.875 6.742188 C 92.253906 0.355469 94.582031 -2.144531 96.902344 1.867188 Z M 96.902344 1.867188 "/>
<path style=" stroke:none;fill-rule:nonzero;fill:rgb(78.039217%,27.450982%,20%);fill-opacity:1;" d="M 122.964844 0.875 C 123.136719 0.875 123.308594 0.875 123.484375 0.875 C 123.671875 0.875 123.855469 0.878906 124.046875 0.878906 C 124.34375 0.878906 124.34375 0.878906 124.648438 0.878906 C 125.1875 0.878906 125.726562 0.882812 126.265625 0.886719 C 126.828125 0.886719 127.394531 0.886719 127.960938 0.886719 C 129.027344 0.890625 130.097656 0.894531 131.164062 0.898438 C 132.382812 0.902344 133.597656 0.90625 134.816406 0.910156 C 137.316406 0.914062 139.820312 0.921875 142.324219 0.929688 C 142.105469 2.574219 141.867188 3.984375 141.535156 5.453125 C 141.445312 5.855469 141.355469 6.257812 141.261719 6.671875 C 141.121094 7.292969 141.121094 7.292969 140.976562 7.929688 C 140.789062 8.753906 140.605469 9.582031 140.417969 10.40625 C 140.335938 10.773438 140.253906 11.136719 140.171875 11.511719 C 139.917969 12.578125 139.917969 12.578125 139.773438 13.8125 C 139.453125 14.929688 139.453125 14.929688 139.152344 15.140625 C 138.734375 15.222656 138.328125 15.226562 137.910156 15.207031 C 137.75 15.210938 137.59375 15.210938 137.429688 15.214844 C 137.085938 15.214844 136.742188 15.214844 136.394531 15.207031 C 135.847656 15.195312 135.304688 15.195312 134.753906 15.203125 C 133.59375 15.210938 132.429688 15.203125 131.265625 15.1875 C 129.921875 15.179688 128.578125 15.175781 127.234375 15.1875 C 126.699219 15.195312 126.164062 15.179688 125.628906 15.171875 C 122.75 15.160156 120.433594 16.480469 118.238281 22.375 C 116.355469 28.351562 115.917969 35.03125 116.003906 42.8125 C 116.046875 44.878906 116.21875 46.632812 116.503906 48.515625 C 116.554688 48.890625 116.605469 49.265625 116.65625 49.652344 C 117.511719 55.351562 119.140625 59.851562 121.117188 62.117188 C 122.367188 63.300781 123.484375 63.71875 124.796875 63.699219 C 125.09375 63.707031 125.09375 63.707031 125.390625 63.71875 C 125.921875 63.726562 126.453125 63.730469 126.984375 63.730469 C 127.539062 63.734375 128.097656 63.746094 128.65625 63.753906 C 129.707031 63.773438 130.761719 63.78125 131.8125 63.789062 C 133.011719 63.796875 134.210938 63.8125 135.410156 63.832031 C 137.871094 63.871094 140.335938 63.894531 142.800781 63.914062 C 142.601562 65.40625 142.398438 66.734375 142.09375 68.078125 C 142.019531 68.40625 141.945312 68.742188 141.871094 69.085938 C 141.792969 69.429688 141.714844 69.769531 141.632812 70.125 C 141.480469 70.800781 141.328125 71.480469 141.175781 72.160156 C 141.113281 72.457031 141.042969 72.753906 140.972656 73.058594 C 140.730469 74.113281 140.730469 74.113281 140.589844 75.082031 C 140.402344 76.1875 140.226562 77.019531 139.933594 77.90625 C 139.367188 78.460938 138.820312 78.402344 138.226562 78.363281 C 138.054688 78.367188 137.886719 78.371094 137.707031 78.371094 C 137.140625 78.378906 136.570312 78.359375 136.003906 78.339844 C 135.609375 78.335938 135.210938 78.335938 134.8125 78.335938 C 133.875 78.332031 132.9375 78.308594 131.996094 78.28125 C 131.042969 78.253906 130.089844 78.25 129.132812 78.253906 C 128.3125 78.253906 127.496094 78.242188 126.675781 78.230469 C 126.285156 78.222656 125.894531 78.21875 125.5 78.21875 C 121.296875 78.1875 117.652344 76.023438 114.464844 67.316406 C 111.734375 59.03125 110.496094 48.824219 110.5625 37.375 C 110.652344 30.648438 111.382812 24.910156 112.519531 19.125 C 112.59375 18.734375 112.664062 18.34375 112.742188 17.941406 C 114.457031 9.585938 117.554688 4.015625 120.71875 1.652344 C 121.472656 1.179688 122.191406 0.875 122.964844 0.875 Z M 122.964844 0.875 "/>
<path style=" stroke:none;fill-rule:nonzero;fill:rgb(77.64706%,27.450982%,20%);fill-opacity:1;" d="M 144.871094 0.929688 C 146.609375 0.929688 148.34375 0.929688 150.128906 0.929688 C 150.128906 21.714844 150.128906 42.5 150.128906 63.914062 C 157.863281 63.914062 165.59375 63.914062 173.558594 63.914062 C 173.410156 65.679688 173.246094 66.621094 172.914062 68.125 C 172.816406 68.570312 172.71875 69.015625 172.617188 69.476562 C 172.460938 70.171875 172.460938 70.171875 172.304688 70.882812 C 172.101562 71.796875 171.898438 72.714844 171.699219 73.636719 C 171.609375 74.042969 171.519531 74.445312 171.425781 74.863281 C 171.160156 76.023438 171.160156 76.023438 170.972656 77.265625 C 170.691406 78.375 170.691406 78.375 170.273438 78.664062 C 170.101562 78.664062 169.933594 78.664062 169.761719 78.664062 C 169.46875 78.671875 169.46875 78.671875 169.171875 78.679688 C 168.953125 78.671875 168.738281 78.667969 168.523438 78.660156 C 168.296875 78.660156 168.070312 78.664062 167.84375 78.667969 C 167.226562 78.675781 166.609375 78.667969 165.992188 78.65625 C 165.34375 78.644531 164.699219 78.648438 164.050781 78.648438 C 162.964844 78.648438 161.878906 78.640625 160.792969 78.625 C 159.539062 78.609375 158.285156 78.605469 157.03125 78.609375 C 155.820312 78.609375 154.617188 78.605469 153.40625 78.597656 C 152.894531 78.59375 152.382812 78.59375 151.867188 78.59375 C 151.261719 78.59375 150.65625 78.585938 150.050781 78.574219 C 149.828125 78.570312 149.609375 78.570312 149.386719 78.570312 C 146.695312 78.585938 146.695312 78.585938 145.644531 76.1875 C 145.574219 75.917969 145.503906 75.648438 145.429688 75.371094 C 145.355469 75.101562 145.28125 74.835938 145.207031 74.554688 C 144.835938 72.761719 144.851562 70.980469 144.851562 68.925781 C 144.851562 68.328125 144.851562 67.730469 144.851562 67.109375 C 144.851562 66.445312 144.851562 65.785156 144.851562 65.121094 C 144.851562 64.421875 144.851562 63.726562 144.851562 63.027344 C 144.851562 61.128906 144.855469 59.230469 144.855469 57.332031 C 144.855469 55.351562 144.855469 53.367188 144.855469 51.386719 C 144.855469 47.636719 144.859375 43.878906 144.859375 40.128906 C 144.863281 35.851562 144.863281 31.578125 144.863281 27.304688 C 144.867188 18.515625 144.867188 9.726562 144.871094 0.929688 Z M 144.871094 0.929688 "/>
<path style=" stroke:none;fill-rule:nonzero;fill:rgb(78.039217%,27.058825%,20%);fill-opacity:1;" d="M 51.957031 145.550781 C 53.21875 145.550781 54.480469 145.550781 55.78125 145.550781 C 55.785156 146.703125 55.785156 147.855469 55.789062 149.039062 C 55.796875 152.851562 55.808594 156.667969 55.820312 160.480469 C 55.824219 162.792969 55.832031 165.101562 55.835938 167.410156 C 55.839844 169.644531 55.847656 171.878906 55.855469 174.109375 C 55.859375 174.957031 55.859375 175.808594 55.859375 176.660156 C 55.863281 177.851562 55.867188 179.046875 55.871094 180.242188 C 55.871094 180.761719 55.871094 180.761719 55.871094 181.292969 C 55.890625 184.320312 56.058594 187.386719 56.796875 189.609375 C 57.894531 191.515625 59.070312 192.117188 60.332031 191.472656 C 61.453125 190.601562 62.492188 188.613281 63.101562 185.6875 C 63.878906 181.402344 63.824219 176.78125 63.832031 172.066406 C 63.832031 171.296875 63.835938 170.53125 63.839844 169.761719 C 63.847656 167.757812 63.851562 165.753906 63.855469 163.75 C 63.863281 161.699219 63.867188 159.648438 63.875 157.59375 C 63.890625 153.578125 63.898438 149.566406 63.910156 145.550781 C 65.171875 145.550781 66.433594 145.550781 67.734375 145.550781 C 67.734375 163.566406 67.734375 181.574219 67.734375 200.132812 C 66.683594 200.132812 65.632812 200.132812 64.546875 200.132812 C 64.441406 198.132812 64.335938 196.128906 64.230469 194.070312 C 64.125 194.070312 64.019531 194.070312 63.910156 194.070312 C 63.816406 194.421875 63.71875 194.769531 63.625 195.132812 C 62.589844 198.871094 60.878906 200.898438 59.285156 201.535156 C 57.234375 201.84375 55.394531 201.675781 53.707031 197.800781 C 52.066406 192.996094 51.921875 186.652344 51.917969 180.210938 C 51.917969 178.941406 51.921875 177.664062 51.925781 176.394531 C 51.925781 175.503906 51.925781 174.613281 51.925781 173.71875 C 51.925781 171.382812 51.929688 169.050781 51.933594 166.722656 C 51.9375 164.335938 51.9375 161.945312 51.941406 159.5625 C 51.945312 154.894531 51.949219 150.222656 51.957031 145.550781 Z M 51.957031 145.550781 "/>
<path style=" stroke:none;fill-rule:nonzero;fill:rgb(78.039217%,27.058825%,20%);fill-opacity:1;" d="M 45.582031 147.417969 C 46.636719 150.257812 47.1875 153.609375 47.496094 157.683594 C 47.507812 159.054688 47.515625 160.417969 47.511719 161.789062 C 47.511719 162.203125 47.511719 162.617188 47.511719 163.042969 C 47.511719 164.414062 47.511719 165.78125 47.507812 167.152344 C 47.507812 168.097656 47.507812 169.046875 47.507812 169.996094 C 47.507812 172.492188 47.507812 174.992188 47.503906 177.488281 C 47.503906 180.035156 47.503906 182.585938 47.5 185.132812 C 47.5 190.132812 47.496094 195.136719 47.496094 200.132812 C 46.285156 200.132812 45.074219 200.132812 43.828125 200.132812 C 43.824219 198.515625 43.824219 198.515625 43.820312 196.867188 C 43.808594 193.292969 43.796875 189.71875 43.78125 186.144531 C 43.773438 183.976562 43.765625 181.8125 43.761719 179.644531 C 43.753906 177.550781 43.746094 175.460938 43.738281 173.363281 C 43.738281 172.566406 43.734375 171.773438 43.730469 170.976562 C 43.824219 163.445312 43.824219 163.445312 42.871094 156.746094 C 41.6875 154.152344 40.648438 154.089844 39.207031 154.414062 C 38.105469 155.234375 37.066406 157.195312 36.453125 160.027344 C 35.96875 162.753906 35.835938 165.074219 35.828125 168.144531 C 35.824219 168.667969 35.824219 168.667969 35.820312 169.195312 C 35.816406 170.335938 35.8125 171.476562 35.808594 172.617188 C 35.804688 173.410156 35.804688 174.203125 35.796875 174.996094 C 35.789062 177.078125 35.78125 179.160156 35.773438 181.242188 C 35.765625 183.371094 35.757812 185.496094 35.75 187.625 C 35.730469 191.792969 35.714844 195.964844 35.699219 200.132812 C 34.4375 200.132812 33.175781 200.132812 31.875 200.132812 C 31.875 182.125 31.875 164.109375 31.875 145.550781 C 32.875 145.550781 33.875 145.550781 34.902344 145.550781 C 35.261719 150.277344 35.261719 150.277344 35.222656 152.550781 C 35.328125 152.550781 35.433594 152.550781 35.542969 152.550781 C 35.582031 152.273438 35.625 152 35.664062 151.71875 C 36.386719 147.878906 37.914062 145.953125 39.28125 144.734375 C 41.359375 143.3125 43.8125 143.65625 45.582031 147.417969 Z M 45.582031 147.417969 "/>
<path style=" stroke:none;fill-rule:nonzero;fill:rgb(77.64706%,27.450982%,20.392157%);fill-opacity:1;" d="M 3.347656 124.09375 C 4.714844 124.09375 6.082031 124.09375 7.488281 124.09375 C 7.488281 145.800781 7.488281 167.507812 7.488281 189.871094 C 11.644531 189.871094 15.800781 189.871094 20.082031 189.871094 C 20.082031 193.257812 20.082031 196.644531 20.082031 200.132812 C 14.558594 200.132812 9.035156 200.132812 3.347656 200.132812 C 3.347656 175.042969 3.347656 149.945312 3.347656 124.09375 Z M 3.347656 124.09375 "/>
<path style=" stroke:none;fill-rule:nonzero;fill:rgb(78.039217%,27.058825%,20%);fill-opacity:1;" d="M 70.605469 145.550781 C 72.117188 144.820312 73.738281 144.175781 75.222656 145.550781 C 76.339844 148.164062 76.925781 152.085938 77.53125 155.785156 C 77.847656 157.648438 78.230469 159.304688 78.652344 160.976562 C 78.839844 161.742188 79.023438 162.511719 79.207031 163.28125 C 79.925781 160.574219 80.539062 157.925781 81.078125 154.894531 C 82.664062 146.25 82.664062 146.25 83.921875 144.976562 C 85.234375 144.457031 86.519531 144.839844 87.816406 145.550781 C 87.34375 148.074219 86.8125 150.378906 86.230469 152.695312 C 86.046875 153.4375 85.863281 154.183594 85.675781 154.925781 C 85.582031 155.304688 85.488281 155.683594 85.390625 156.074219 C 84.9375 157.898438 84.484375 159.726562 84.03125 161.5625 C 83.945312 161.902344 83.859375 162.25 83.773438 162.605469 C 83.03125 165.601562 82.3125 168.625 81.597656 171.675781 C 81.8125 172.988281 82.054688 174.1875 82.335938 175.386719 C 82.417969 175.738281 82.5 176.089844 82.585938 176.453125 C 82.675781 176.832031 82.761719 177.207031 82.855469 177.59375 C 82.949219 177.988281 83.039062 178.382812 83.136719 178.789062 C 83.960938 182.300781 84.800781 185.785156 85.644531 189.261719 C 86.144531 191.328125 86.640625 193.398438 87.136719 195.46875 C 87.238281 195.878906 87.335938 196.292969 87.4375 196.714844 C 87.53125 197.09375 87.621094 197.472656 87.710938 197.863281 C 87.796875 198.195312 87.875 198.535156 87.960938 198.882812 C 88.136719 199.667969 88.136719 199.667969 88.136719 200.132812 C 87.496094 200.25 86.859375 200.335938 86.222656 200.390625 C 86.003906 200.414062 85.789062 200.445312 85.570312 200.484375 C 83.796875 200.808594 83.796875 200.808594 83.171875 199.328125 C 82.875 198.089844 82.640625 196.808594 82.394531 195.46875 C 82.136719 194.289062 81.863281 193.140625 81.589844 191.984375 C 81.449219 191.367188 81.308594 190.746094 81.164062 190.128906 C 80.949219 189.171875 80.730469 188.21875 80.511719 187.269531 C 80.296875 186.332031 80.082031 185.398438 79.867188 184.464844 C 79.769531 184.03125 79.769531 184.03125 79.667969 183.59375 C 79.207031 181.578125 79.207031 181.578125 79.207031 180.542969 C 79.105469 180.542969 79 180.542969 78.890625 180.542969 C 78.851562 180.839844 78.816406 181.144531 78.777344 181.457031 C 77.90625 187.453125 76.300781 197.445312 74.277344 200.617188 C 72.9375 201.984375 71.457031 201.1875 70.125 200.132812 C 70.757812 197.160156 71.402344 194.269531 72.136719 191.5 C 72.957031 188.359375 73.726562 185.132812 74.480469 181.855469 C 74.867188 180.183594 75.253906 178.539062 75.679688 176.953125 C 75.75 176.695312 75.816406 176.441406 75.886719 176.179688 C 76.066406 175.519531 76.25 174.867188 76.433594 174.21875 C 76.6875 173.140625 76.6875 173.140625 76.671875 171.996094 C 76.410156 170.097656 76.003906 168.582031 75.582031 166.953125 C 75.394531 166.199219 75.203125 165.449219 75.015625 164.695312 C 74.917969 164.304688 74.820312 163.917969 74.71875 163.519531 C 74.257812 161.652344 73.8125 159.742188 73.371094 157.828125 C 72.648438 154.695312 71.902344 151.617188 71.121094 148.605469 C 70.605469 146.585938 70.605469 146.585938 70.605469 145.550781 Z M 70.605469 145.550781 "/>
<path style=" stroke:none;fill-rule:nonzero;fill:rgb(77.64706%,27.450982%,20.392157%);fill-opacity:1;" d="M 21.355469 145.550781 C 23.300781 145.550781 25.246094 145.550781 27.253906 145.550781 C 27.253906 163.566406 27.253906 181.574219 27.253906 200.132812 C 25.992188 200.132812 24.730469 200.132812 23.425781 200.132812 C 23.425781 184.894531 23.425781 169.652344 23.425781 153.949219 C 23.035156 153.488281 23.035156 153.488281 22.628906 153.015625 C 22.089844 152.375 21.828125 151.835938 21.355469 150.683594 C 21.355469 148.992188 21.355469 147.296875 21.355469 145.550781 Z M 21.355469 145.550781 "/>
<path style=" stroke:none;fill-rule:nonzero;fill:rgb(77.64706%,27.450982%,20.392157%);fill-opacity:1;" d="M 22.628906 124.09375 C 24.15625 124.09375 25.683594 124.09375 27.253906 124.09375 C 27.253906 127.480469 27.253906 130.867188 27.253906 134.359375 C 25.726562 134.359375 24.203125 134.359375 22.628906 134.359375 C 22.628906 130.96875 22.628906 127.582031 22.628906 124.09375 Z M 22.628906 124.09375 "/>
</g>
</svg>
