<?xml version="1.0" standalone="no"?><!DOCTYPE svg PUBLIC "-//W3C//DTD SVG 1.1//EN" "http://www.w3.org/Graphics/SVG/1.1/DTD/svg11.dtd"><svg class="icon" width="200px" height="200.00px" viewBox="0 0 1024 1024" version="1.1" xmlns="http://www.w3.org/2000/svg"><path d="M792.177778 861.297778h-176.924445a71.111111 71.111111 0 0 1-71.111111-71.111111v-176.924445a71.111111 71.111111 0 0 1 71.111111-71.111111h176.924445a71.111111 71.111111 0 0 1 71.111111 71.111111v176.924445a71.111111 71.111111 0 0 1-71.111111 71.111111z m-176.924445-262.257778c-7.964444 0-14.222222 6.257778-14.222222 14.222222v176.924445c0 7.964444 6.257778 14.222222 14.222222 14.222222h176.924445c7.964444 0 14.222222-6.257778 14.222222-14.222222v-176.924445c0-7.964444-6.257778-14.222222-14.222222-14.222222h-176.924445zM792.177778 479.288889h-176.924445a71.111111 71.111111 0 0 1-71.111111-71.111111V231.253333a71.111111 71.111111 0 0 1 71.111111-71.111111h176.924445a71.111111 71.111111 0 0 1 71.111111 71.111111v176.924445c0 38.968889-31.857778 71.111111-71.111111 71.111111z m-176.924445-262.257778c-7.964444 0-14.222222 6.257778-14.222222 14.222222v176.924445c0 7.964444 6.257778 14.222222 14.222222 14.222222h176.924445c7.964444 0 14.222222-6.257778 14.222222-14.222222V231.253333c0-7.964444-6.257778-14.222222-14.222222-14.222222h-176.924445z" fill="#DD3333" /><path d="M325.404444 479.288889c-87.893333 0-159.573333-71.68-159.573333-159.573333s71.68-159.573333 159.573333-159.573334c87.893333 0 159.573333 71.68 159.573334 159.573334s-71.395556 159.573333-159.573334 159.573333z m0-262.257778c-56.604444 0-102.684444 46.08-102.684444 102.684445 0 56.604444 46.08 102.684444 102.684444 102.684444 56.604444 0 102.684444-46.08 102.684445-102.684444 0-56.604444-46.08-102.684444-102.684445-102.684445z" fill="#F88B8B" /><path d="M408.746667 861.297778H231.822222a71.111111 71.111111 0 0 1-71.111111-71.111111v-176.924445a71.111111 71.111111 0 0 1 71.111111-71.111111h176.924445a71.111111 71.111111 0 0 1 71.111111 71.111111v176.924445a71.111111 71.111111 0 0 1-71.111111 71.111111z m-176.924445-262.257778c-7.964444 0-14.222222 6.257778-14.222222 14.222222v176.924445c0 7.964444 6.257778 14.222222 14.222222 14.222222h176.924445c7.964444 0 14.222222-6.257778 14.222222-14.222222v-176.924445c0-7.964444-6.257778-14.222222-14.222222-14.222222H231.822222z" fill="#DD3333" /></svg>