<?xml version="1.0" encoding="UTF-8"?>
<!DOCTYPE svg PUBLIC "-//W3C//DTD SVG 1.1//EN" "http://www.w3.org/Graphics/SVG/1.1/DTD/svg11.dtd">
<svg xmlns="http://www.w3.org/2000/svg" version="1.1" width="77px" height="60px" style="shape-rendering:geometricPrecision; text-rendering:geometricPrecision; image-rendering:optimizeQuality; fill-rule:evenodd; clip-rule:evenodd" xmlns:xlink="http://www.w3.org/1999/xlink">
<g><path style="opacity:1" fill="#fdfbfb" d="M -0.5,-0.5 C 21.8333,-0.5 44.1667,-0.5 66.5,-0.5C 65.5314,7.74834 65.1981,16.0817 65.5,24.5C 44.4974,24.3334 23.4974,24.5 2.5,25C 1.62656,26.045 0.626561,26.8783 -0.5,27.5C -0.5,18.1667 -0.5,8.83333 -0.5,-0.5 Z"/></g>
<g><path style="opacity:1" fill="#fefcfc" d="M 69.5,-0.5 C 71.8333,-0.5 74.1667,-0.5 76.5,-0.5C 76.5,8.83333 76.5,18.1667 76.5,27.5C 75.027,26.2599 73.3604,25.2599 71.5,24.5C 70.8054,16.1093 70.1388,7.77596 69.5,-0.5 Z"/></g>
<g><path style="opacity:1" fill="#b8444b" d="M 66.5,-0.5 C 67.5,-0.5 68.5,-0.5 69.5,-0.5C 70.1388,7.77596 70.8054,16.1093 71.5,24.5C 73.3604,25.2599 75.027,26.2599 76.5,27.5C 76.5,34.1667 76.5,40.8333 76.5,47.5C 73.6227,50.6955 69.956,52.3621 65.5,52.5C 67.6152,54.6152 67.9485,56.9486 66.5,59.5C 65.5,59.5 64.5,59.5 63.5,59.5C 62.0939,56.5865 60.0939,54.0865 57.5,52C 44.1667,51.3333 30.8333,51.3333 17.5,52C 15.5854,54.3996 13.9188,56.8996 12.5,59.5C 11.1667,59.5 9.83333,59.5 8.5,59.5C 7.18608,56.5898 7.85274,54.0898 10.5,52C 7.83333,51.6667 5.16667,51.3333 2.5,51C 1.36362,49.8549 0.363622,48.6883 -0.5,47.5C -0.5,40.8333 -0.5,34.1667 -0.5,27.5C 0.626561,26.8783 1.62656,26.045 2.5,25C 23.4974,24.5 44.4974,24.3334 65.5,24.5C 65.1981,16.0817 65.5314,7.74834 66.5,-0.5 Z"/></g>
<g><path style="opacity:1" fill="#fcf9f8" d="M 4.5,28.5 C 26.5025,28.3334 48.5025,28.5 70.5,29C 71.4749,34.7412 71.8082,40.5746 71.5,46.5C 49.1667,46.5 26.8333,46.5 4.5,46.5C 4.5,40.5 4.5,34.5 4.5,28.5 Z"/></g>
<g><path style="opacity:1" fill="#ffe226" d="M 11.5,33.5 C 15.6046,33.4962 17.1046,35.4962 16,39.5C 12.828,42.3883 10.6614,41.7216 9.5,37.5C 9.75166,35.9271 10.4183,34.5938 11.5,33.5 Z"/></g>
<g><path style="opacity:1" fill="#ffe224" d="M 22.5,33.5 C 25.3523,33.3524 27.019,34.6857 27.5,37.5C 25.1667,42.8333 22.8333,42.8333 20.5,37.5C 20.7517,35.9271 21.4183,34.5938 22.5,33.5 Z"/></g>
<g><path style="opacity:1" fill="#ffe222" d="M 33.5,33.5 C 36.3523,33.3524 38.019,34.6857 38.5,37.5C 36.1667,42.8333 33.8333,42.8333 31.5,37.5C 31.7517,35.9271 32.4183,34.5938 33.5,33.5 Z"/></g>
<g><path style="opacity:1" fill="#fbf7f8" d="M 76.5,47.5 C 76.5,51.5 76.5,55.5 76.5,59.5C 73.1667,59.5 69.8333,59.5 66.5,59.5C 67.9485,56.9486 67.6152,54.6152 65.5,52.5C 69.956,52.3621 73.6227,50.6955 76.5,47.5 Z"/></g>
<g><path style="opacity:1" fill="#fdfafa" d="M -0.5,47.5 C 0.363622,48.6883 1.36362,49.8549 2.5,51C 5.16667,51.3333 7.83333,51.6667 10.5,52C 7.85274,54.0898 7.18608,56.5898 8.5,59.5C 5.5,59.5 2.5,59.5 -0.5,59.5C -0.5,55.5 -0.5,51.5 -0.5,47.5 Z"/></g>
<g><path style="opacity:1" fill="#fdfcfc" d="M 63.5,59.5 C 46.5,59.5 29.5,59.5 12.5,59.5C 13.9188,56.8996 15.5854,54.3996 17.5,52C 30.8333,51.3333 44.1667,51.3333 57.5,52C 60.0939,54.0865 62.0939,56.5865 63.5,59.5 Z"/></g>
</svg>
