<svg xmlns="http://www.w3.org/2000/svg" xmlns:svg="http://www.w3.org/2000/svg" width="0.62730426in" height="0.62429649in" viewBox="0 0 188.19119 187.28886" version="1.1" id="svg1">
  <defs id="defs1" fill="#000000"/>
  <path id="Selection" fill="none" stroke="#000000" stroke-width="1" d="M 83.032565,0.69760744 C 103.96256,-1.8523926 121.44256,2.7376074 140.03256,12.027607 c 4.05,2.03 8.41,4.01 12,6.78 4.5,3.47 9.83,9.97 13.57,14.47 30.26,36.43 30.26,86.030003 -0.86,122.000003 -9.68,11.19 -17.42,16.83 -30.71,23.22 -14.62,7.02 -27.97,8.96 -43.999995,8.78 -12.68,-0.15 -26.7,-4.11 -38,-9.76 -42.2300004,-21.11 -62.21,-69.66 -46.9200004,-114.240003 2.51,-7.31 5.8400004,-13.5 9.9700004,-20 16.21,-25.45 38.62,-38.1499996 67.95,-42.57999956 z M 122.03256,52.277607 c -2.95,-8.85 -5.71,-19.04 -10.45,-27 -1.76,-2.95 -4.53,-7.37 -7.59,-8.98 -2.76,-1.45 -6.700235,-1.720714 -10.010233,-1.700714 -2.34,0.02 -7.779762,0.580714 -9.909762,1.700714 -3.06,1.61 -5.83,6.03 -7.59,8.98 -4.99,8.37 -7.39,17.83 -10.45,27 12.92,3.95 43.189995,4.23 55.999995,0 z m -1,-35 4.69,12 7.31,20 c 3.09,-0.73 5.17,-1.37 8,-2.9 l 4.91,-3.14 c 7.26,-5.61 5.55,-9.59 -0.91,-14.48 -9.5,-7.2 -12.95,-8.25 -24,-11.48 z m -53.999995,1 c -8.54,0.77 -15.12,4.09 -22,9.04 -2.91,2.1 -6.74,4.96 -6.63,8.96 0.18,6.66 11.31,11.14 16.63,13 l 5.45,-16 z m -37,25 c -11.43,9.67 -16.83,30.51 -18,45 h 38 l 3,-29 c -9.49,-2.71 -17.25,-7.97 -23,-16 z m 129.999995,1 -13,10.2 -10.96,6.29 v 7.51 l 1.96,20 h 38 c -1.52,-18.71 -5.68,-28.51 -16,-44 z m -36,19 -29.957855,2.773095 -30.04214,-2.773095 -2,25 h 63.999995 z m -73.999995,35 h -38 c 0.84,18.360003 5.97,29.940003 16,45.000003 h 2 c 5.75,-8.03 13.51,-13.29 23,-16 z m 75.999995,0 H 62.032565 l 2,25.000003 30.71476,-2 29.285235,2 z m 50,0 h -38 l -3,28.000003 c 16.85,8.74 10.15,2.95 25,17 10.03,-15.06 15.16,-26.64 16,-45.000003 z m -54.2269,35.680713 -27.445715,-1.77309 c -14.878096,0.63071 -16.889046,0.2169 -28.32738,2.09238 2.06,9.01 8.92,29.83 16.18,35.3 2.26,1.7 8.680477,2.6369 11.450477,2.8269 2.560003,0.18 9.239518,-1.0369 11.279518,-2.1469 2.87,-1.57 5.6,-6.15 7.22,-8.98 3.55,-6.21 8.5531,-20.26929 9.6431,-27.31929 z m -66.773095,3.31929 c -3.7,1.29 -5.59,1.97 -9,4.07 -1.38,0.85 -3.63,2.34 -4.77,3.45 -5.15,4.94 -3.19,9.93 1.79,13.95 6.02,4.87 16.28,8.84 23.98,9.53 z m 65.999995,32 c 10.08,-2.94 16.48,-4.33 24.96,-11.24 5.52,-4.5 6.74,-8.92 0.85,-14 -1.42,-1.23 -4.13,-2.95 -5.81,-3.86 -2.83,-1.53 -4.91,-2.17 -8,-2.9 l -6.45,19 z" style="fill:#a33e3e;fill-opacity:1;stroke-width:0;stroke-dasharray:none"/>
</svg>