<?xml version="1.0" encoding="UTF-8"?>
<svg width="60px" height="60px" viewBox="0 0 60 60" version="1.1" xmlns="http://www.w3.org/2000/svg" xmlns:xlink="http://www.w3.org/1999/xlink">
    <title>network</title>
    <g stroke="none" stroke-width="1" fill="none" fill-rule="evenodd">
        <g transform="translate(-893.000000, -156.000000)" fill-rule="nonzero">
            <g id="network" transform="translate(893.000000, 156.000000)">
                <path d="M8.36173692,13.0731105 C8.36173692,13.0731105 1.77917878,19.0486919 1.77917878,29.8521802 C1.77917878,40.6556686 8.36173692,47.0149709 8.36173692,47.0149709 C8.36173692,47.0149709 15.3908067,41.3428779 29.8710392,41.3428779 C44.3512718,41.3428779 52.0291788,47.0149709 52.0291788,47.0149709 C52.0291788,47.0149709 57.8896439,39.5463663 57.8896439,29.8521802 C57.8896439,20.1579942 50.7628997,13.0731105 50.7628997,13.0731105 C50.7628997,13.0731105 44.4873183,18.2289244 29.5012718,18.2289244 C14.5152253,18.2289244 8.36173692,13.0731105 8.36173692,13.0731105 Z" fill="#DCEDFF"></path>
                <path d="M29.8361555,0.0510174419 C13.405923,0.0510174419 0.0349927326,13.4184593 0.0349927326,29.8521802 C0.0349927326,46.2859012 13.4024346,59.653343 29.8361555,59.653343 C46.2698765,59.653343 59.6338299,46.2859012 59.6338299,29.8521802 C59.6338299,13.4184593 46.2663881,0.0510174419 29.8361555,0.0510174419 Z M29.8361555,56.1649709 C26.6233648,56.1649709 23.1698765,51.4800872 21.1849927,43.8545058 C23.5919695,43.3940407 26.305923,43.087064 29.278016,43.087064 C32.605923,43.087064 35.700109,43.4707849 38.4419695,44.0289244 C36.450109,51.5498547 33.0245276,56.1649709 29.8361555,56.1649709 L29.8361555,56.1649709 Z M29.2745276,39.5986919 C26.0198765,39.5986919 23.0547602,39.9300872 20.4315044,40.4359012 C19.9431323,37.7463663 19.6291788,34.78125 19.5419695,31.5998547 L40.1233648,31.5998547 C40.0361555,34.8510174 39.7117369,37.875436 39.2024346,40.6138081 C36.2477834,40.0103198 32.8989462,39.5986919 29.2745276,39.5986919 Z M29.8361555,3.53938953 C33.0384811,3.53938953 36.4815044,8.19636628 38.4698765,15.7835756 C36.0524346,16.2056686 33.1989462,16.4847384 29.850109,16.4847384 C26.5640625,16.4847384 23.6896439,16.209157 21.1989462,15.7905523 C23.1873183,8.19985465 26.6303416,3.53938953 29.8361555,3.53938953 L29.8361555,3.53938953 Z M29.850109,19.9731105 C33.4640625,19.9731105 36.572202,19.6626453 39.2233648,19.1847384 C39.722202,21.8952035 40.0396439,24.8917151 40.1268532,28.1079942 L19.5454578,28.1079942 C19.6326672,24.9021802 19.9466206,21.9161337 20.4454578,19.209157 C23.155923,19.6731105 26.2815044,19.9731105 29.850109,19.9731105 L29.850109,19.9731105 Z M16.0535974,28.1079942 L3.5896439,28.1079942 C3.89502803,23.405622 5.46682581,18.8734443 8.1384811,14.9917151 C9.76057413,15.9579942 12.6908067,17.409157 17.0303416,18.4940407 C16.472202,21.5219477 16.1408067,24.7626453 16.0535974,28.1079942 L16.0535974,28.1079942 Z M16.0535974,31.5963663 C16.1408067,34.9452035 16.472202,38.1928779 17.0303416,41.2242733 C12.600109,42.43125 9.5268532,43.9975291 8.17336483,44.7649709 C5.48035154,40.8716534 3.89489018,36.3202339 3.58615552,31.5963663 L16.0535974,31.5963663 Z M43.6152253,31.5963663 L56.0826672,31.5963663 C55.7749396,36.3220631 54.1881068,40.8751638 51.4919695,44.7684593 C50.1210392,44.0707849 46.9745276,42.609157 42.600109,41.4161337 C43.1826672,38.3289244 43.528016,35.0184593 43.6152253,31.5963663 L43.6152253,31.5963663 Z M43.6152253,28.1079942 C43.528016,24.7382267 43.1931323,21.4731105 42.628016,18.4242733 C47.2152253,17.1789244 49.9535974,15.4905523 51.2198765,14.5521802 C53.9966206,18.4242733 55.7512718,23.0742733 56.0826672,28.1079942 L43.6152253,28.1079942 L43.6152253,28.1079942 Z M49.0047602,11.859157 C48.0070858,12.5847384 45.7466206,13.9626453 41.8815044,15.0265988 C41.3547602,12.9789244 40.7128997,11.0638081 39.9663881,9.32659884 C39.1849927,7.51264535 38.3094113,5.94636628 37.3570858,4.64520349 C41.8640625,5.98822674 45.8652253,8.51380814 49.0047602,11.859157 L49.0047602,11.859157 Z M22.3117369,4.64171512 C21.3594113,5.94636628 20.4838299,7.50915698 19.7024346,9.32311047 C18.9489462,11.0742733 18.3070858,13.0068314 17.7768532,15.0719477 C14.222202,14.1684593 11.7594113,13.0172965 10.3256904,12.2149709 C13.5140625,8.69171512 17.6442951,6.03706395 22.3117369,4.64171512 L22.3117369,4.64171512 Z M10.3745276,47.5417151 C11.7105741,46.8335756 14.2640625,45.6265988 17.7803416,44.6498547 C18.3105741,46.7079942 18.9524346,48.6335756 19.7024346,50.3777616 C20.4838299,52.1917151 21.3594113,53.7579942 22.3117369,55.059157 C17.6687137,53.6742733 13.5594113,51.0405523 10.3745276,47.5417151 Z M37.3570858,55.0626453 C38.3094113,53.7579942 39.1849927,52.1952035 39.9663881,50.38125 C40.6919695,48.6893895 41.3198765,46.8300872 41.8396439,44.8417151 C45.2477834,45.787064 47.8396439,46.8928779 49.2698765,47.5696221 C46.0919695,51.0545058 41.9896439,53.6777616 37.3570858,55.0626453 Z" fill="#2D70F7"></path>
            </g>
        </g>
    </g>
</svg>