<?xml version="1.0" encoding="UTF-8"?>
<svg width="53px" height="60px" viewBox="0 0 53 60" version="1.1" xmlns="http://www.w3.org/2000/svg" xmlns:xlink="http://www.w3.org/1999/xlink">
    <g stroke="none" stroke-width="1" fill="none" fill-rule="evenodd">
        <g transform="translate(-616.000000, -155.000000)">
            <g transform="translate(616.000000, 155.000000)">
                <circle fill="#DCEDFF" cx="26.5" cy="26.5" r="11.5"></circle>
                <g id="volume" fill="#2D70F7" fill-rule="nonzero">
                    <path d="M46.875,60 L5.625,60 C2.51839828,60 0,57.4816017 0,54.375 L0,5.625 C0,2.51839828 2.51839828,0 5.625,0 L46.875,0 C49.9816017,0 52.5,2.51839828 52.5,5.625 L52.5,54.375 C52.5,57.4816017 49.9816017,60 46.875,60 Z M5.625,3.75 C4.58946609,3.75 3.75,4.58946609 3.75,5.625 L3.75,54.375 C3.75,55.4105339 4.58946609,56.25 5.625,56.25 L46.875,56.25 C47.9105339,56.25 48.75,55.4105339 48.75,54.375 L48.75,5.625 C48.75,4.58946609 47.9105339,3.75 46.875,3.75 L5.625,3.75 Z"></path>
                    <polygon points="1.875 48.75 50.625 48.75 50.625 52.5 1.875 52.5"></polygon>
                    <path d="M41.25,50.625 L45,50.625 L45,58.125 L41.25,58.125 L41.25,50.625 Z M7.5,7.5 L11.25,7.5 L11.25,11.25 L7.5,11.25 L7.5,7.5 Z M41.25,7.5 L45,7.5 L45,11.25 L41.25,11.25 L41.25,7.5 Z M7.5,41.25 L11.25,41.25 L11.25,45 L7.5,45 L7.5,41.25 Z M41.25,41.25 L45,41.25 L45,45 L41.25,45 L41.25,41.25 Z M26.25,41.25 C17.9657288,41.25 11.25,34.5342712 11.25,26.25 C11.25,17.9657288 17.9657288,11.25 26.25,11.25 C34.5342712,11.25 41.25,17.9657288 41.25,26.25 C41.25,30.2282473 39.6696474,34.043556 36.8566017,36.8566017 C34.043556,39.6696474 30.2282473,41.25 26.25,41.25 Z M26.25,15 C20.0367966,15 15,20.0367966 15,26.25 C15,32.4632034 20.0367966,37.5 26.25,37.5 C32.4632034,37.5 37.5,32.4632034 37.5,26.25 C37.5,20.0367966 32.4632034,15 26.25,15 Z"></path>
                    <polygon points="24.9225 24.924375 38.0475 11.799375 40.69875 14.450625 27.57375 27.575625"></polygon>
                </g>
            </g>
        </g>
    </g>
</svg>