<?xml version="1.0" encoding="UTF-8"?>
<svg width="70px" height="61px" viewBox="0 0 70 61" version="1.1" xmlns="http://www.w3.org/2000/svg" xmlns:xlink="http://www.w3.org/1999/xlink">
    <g stroke="none" stroke-width="1" fill="none" fill-rule="evenodd">
        <g transform="translate(-325.000000, -153.000000)" fill-rule="nonzero">
            <g transform="translate(325.000000, 153.057740)">
                <path d="M64.5695364,34.9172185 L24.8344371,34.9172185 C22.0913009,34.9172185 19.8675497,37.1409698 19.8675497,39.884106 L19.8675497,54.6754967 C19.8675497,57.4186329 22.0913009,59.6423841 24.8344371,59.6423841 L64.5695364,59.6423841 C67.3126726,59.6423841 69.5364238,57.4186329 69.5364238,54.6754967 L69.5364238,39.884106 C69.5364238,37.1409698 67.3126726,34.9172185 64.5695364,34.9172185 Z M64.5695364,52.1870861 C64.5695364,53.5586542 63.4576608,54.6705298 62.0860927,54.6705298 L27.3178808,54.6705298 C25.9463127,54.6705298 24.8344371,53.5586542 24.8344371,52.1870861 L24.8344371,42.3625828 C24.8344371,40.9910147 25.9463127,39.8791391 27.3178808,39.8791391 L62.0860927,39.8791391 C63.4576608,39.8791391 64.5695364,40.9910147 64.5695364,42.3625828 L64.5695364,52.1870861 Z" fill="#2D70F7"></path>
                <path d="M47.2400662,44.692053 C45.8410668,44.692053 44.7069536,45.8261661 44.7069536,47.2251656 C44.7069536,48.624165 45.8410668,49.7582781 47.2400662,49.7582781 L52.1076159,49.7582781 C53.5066153,49.7582781 54.6407285,48.624165 54.6407285,47.2251656 C54.6407285,45.8261661 53.5066153,44.692053 52.1076159,44.692053 L47.2400662,44.692053 Z" fill="#FD9A16"></path>
                <path d="M22.6142384,13.2268212 C25.8619779,8.13832258 31.4782993,5.05496213 37.5149007,5.04635762 C45.5562914,5.04635762 52.2864238,10.455298 54.4569536,17.8013245 C54.8990066,19.2913907 55.2119205,21.0993377 55.2417219,22.7235099 C55.5993377,22.7483444 55.9619205,22.9619205 56.3046358,23.0264901 C59.6204928,23.6169373 62.4410708,25.7851872 63.8642384,28.8377483 C64.5571862,29.9290069 65.9649204,30.3166356 67.1188091,29.7339154 C68.2726978,29.1511952 68.7963579,27.7882016 68.3294702,26.5827815 C68.3245033,26.5728477 68.3344371,26.5927152 68.3294702,26.5827815 C68.2698675,26.4387417 68.1705298,26.3046358 68.0860927,26.1754967 C66.3672399,22.7932212 63.4484878,20.1737829 59.9006623,18.8294702 C58.013245,8.15066225 48.7251656,1.03028697e-13 37.5149007,1.03028697e-13 C28.6092715,1.03028697e-13 20.9652318,5.18543046 17.2201987,12.6506623 C7.6589404,13.0976821 -2.13162821e-14,20.9503311 -2.13162821e-14,30.615894 C-2.13162821e-14,37.9072848 4.80794702,44.1208609 11.2599338,46.942053 C11.4257874,47.0282782 11.5966183,47.1045716 11.7715232,47.1705298 C11.8410596,47.2003311 11.7019868,47.1407285 11.7715232,47.1705298 C11.955298,47.2152318 12.2135762,47.2798013 12.4122517,47.2798013 C13.3070791,47.5986315 14.3057681,47.3582395 14.9574982,46.6671414 C15.6092283,45.9760433 15.7907001,44.9649864 15.4199949,44.0903743 C15.0492897,43.2157622 14.1965405,42.6430608 13.2466887,42.6307947 L13.2466887,42.6258278 C8.31795194,40.6736629 5.07025994,35.9220458 5.04139073,30.6208609 C5.04139073,24.4023179 9.43708609,19.1970199 15.2831126,17.9254967 C16.1771523,17.7317881 17.1009934,17.6125828 18.0496689,17.6125828 C18.9089404,17.6125828 19.7433775,17.7069536 20.5529801,17.865894 C21.0347682,16.2119205 21.705298,14.6423841 22.6142384,13.2268212 Z" fill="#2D70F7"></path>
            </g>
        </g>
    </g>
</svg>