<?xml version="1.0" encoding="UTF-8"?>
<!DOCTYPE svg PUBLIC "-//W3C//DTD SVG 1.1//EN" "http://www.w3.org/Graphics/SVG/1.1/DTD/svg11.dtd">
<svg xmlns="http://www.w3.org/2000/svg" version="1.1" width="53px" height="60px" style="shape-rendering:geometricPrecision; text-rendering:geometricPrecision; image-rendering:optimizeQuality; fill-rule:evenodd; clip-rule:evenodd" xmlns:xlink="http://www.w3.org/1999/xlink">
<g><path style="opacity:1" fill="#f3e2e4" d="M -0.5,-0.5 C 0.5,-0.5 1.5,-0.5 2.5,-0.5C 1.83333,0.833333 0.833333,1.83333 -0.5,2.5C -0.5,1.5 -0.5,0.5 -0.5,-0.5 Z"/></g>
<g><path style="opacity:1" fill="#f7e9ea" d="M 48.5,-0.5 C 49.8333,-0.5 51.1667,-0.5 52.5,-0.5C 52.5,0.833333 52.5,2.16667 52.5,3.5C 52.1667,3.5 51.8333,3.5 51.5,3.5C 51.2294,1.56954 50.2294,0.236209 48.5,-0.5 Z"/></g>
<g><path style="opacity:1" fill="#b84952" d="M 2.5,-0.5 C 3.16667,-0.5 3.83333,-0.5 4.5,-0.5C 4.38929,0.117425 4.05596,0.617425 3.5,1C 10.8333,1.16667 18.1667,1.33333 25.5,1.5C 33.1984,1.49737 40.5318,0.830707 47.5,-0.5C 47.8333,-0.5 48.1667,-0.5 48.5,-0.5C 50.2294,0.236209 51.2294,1.56954 51.5,3.5C 49.7288,20.8168 48.7288,38.4835 48.5,56.5C 33.5246,57.2678 18.5246,57.7678 3.5,58C 4.05596,58.3826 4.38929,58.8826 4.5,59.5C 3.83333,59.5 3.16667,59.5 2.5,59.5C 1.83333,58.1667 0.833333,57.1667 -0.5,56.5C -0.5,38.5 -0.5,20.5 -0.5,2.5C 0.833333,1.83333 1.83333,0.833333 2.5,-0.5 Z"/></g>
<g><path style="opacity:1" fill="#daafb9" d="M 47.5,4.5 C 48.496,18.9905 48.8293,33.6572 48.5,48.5C 33.324,48.8294 18.324,48.4961 3.5,47.5C 18.1667,47.5 32.8333,47.5 47.5,47.5C 47.5,33.1667 47.5,18.8333 47.5,4.5 Z"/></g>
<g><path style="opacity:1" fill="#fdfcfc" d="M 47.5,4.5 C 47.5,18.8333 47.5,33.1667 47.5,47.5C 32.8333,47.5 18.1667,47.5 3.5,47.5C 3.5,32.8333 3.5,18.1667 3.5,3.5C 18.3428,3.17065 33.0095,3.50398 47.5,4.5 Z"/></g>
<g><path style="opacity:1" fill="#99567e" d="M 40.5,40.5 C 41.8333,40.5 43.1667,40.5 44.5,40.5C 44.5,41.8333 44.5,43.1667 44.5,44.5C 43.1667,44.5 41.8333,44.5 40.5,44.5C 40.5,43.1667 40.5,41.8333 40.5,40.5 Z"/></g>
<g><path style="opacity:1" fill="#b888a5" d="M 6.5,40.5 C 8.16667,40.5 9.83333,40.5 11.5,40.5C 11.5,41.8333 11.5,43.1667 11.5,44.5C 9.83333,44.5 8.16667,44.5 6.5,44.5C 6.5,43.1667 6.5,41.8333 6.5,40.5 Z"/></g>
<g><path style="opacity:1" fill="#ad3e4d" d="M 7.5,41.5 C 8.67504,41.281 9.67504,41.6143 10.5,42.5C 8.94835,43.7979 7.94835,43.4646 7.5,41.5 Z"/></g>
<g><path style="opacity:1" fill="#b64954" d="M 14.5,35.5 C 18.3039,36.5737 21.9705,37.9071 25.5,39.5C 27.8183,39.0029 30.1516,38.6695 32.5,38.5C 32.0825,39.2216 31.4158,39.7216 30.5,40C 24.1146,41.6841 18.7813,40.1841 14.5,35.5 Z"/></g>
<g><path style="opacity:1" fill="#bd4346" d="M 32.5,38.5 C 30.1516,38.6695 27.8183,39.0029 25.5,39.5C 21.9705,37.9071 18.3039,36.5737 14.5,35.5C 8.60978,27.2229 9.60978,19.7229 17.5,13C 23.3221,9.5267 28.9888,9.69337 34.5,13.5C 38.8721,10.6969 40.2054,11.8635 38.5,17C 41.2901,22.9266 41.1234,28.76 38,34.5C 36.549,36.4641 34.7157,37.7974 32.5,38.5 Z"/></g>
<g><path style="opacity:1" fill="#e7a4a4" d="M 22.5,14.5 C 25.7341,14.2046 28.7341,14.8713 31.5,16.5C 29.517,18.9837 27.3504,21.3171 25,23.5C 24.6992,26.0915 25.8659,26.9248 28.5,26C 35.4493,17.167 37.9493,18.667 36,30.5C 32.7231,36.1088 27.8897,37.9422 21.5,36C 14.3041,31.6717 12.8041,25.8384 17,18.5C 18.8121,17.0229 20.6455,15.6896 22.5,14.5 Z"/></g>
<g><path style="opacity:1" fill="#b989a5" d="M 40.5,6.5 C 41.8333,6.5 43.1667,6.5 44.5,6.5C 44.5,8.16667 44.5,9.83333 44.5,11.5C 43.1667,11.5 41.8333,11.5 40.5,11.5C 40.5,9.83333 40.5,8.16667 40.5,6.5 Z"/></g>
<g><path style="opacity:1" fill="#ad3e4d" d="M 41.5,7.5 C 43.4646,7.94835 43.7979,8.94835 42.5,10.5C 41.6143,9.67504 41.281,8.67504 41.5,7.5 Z"/></g>
<g><path style="opacity:1" fill="#cda2b3" d="M 10.5,10.5 C 9.43236,11.4345 8.09903,11.7678 6.5,11.5C 6.5,9.83333 6.5,8.16667 6.5,6.5C 8.16667,6.5 9.83333,6.5 11.5,6.5C 11.7678,8.09903 11.4345,9.43236 10.5,10.5 Z"/></g>
<g><path style="opacity:1" fill="#b03d48" d="M 10.5,10.5 C 9.5,10.5 8.5,10.5 7.5,10.5C 7.5,9.5 7.5,8.5 7.5,7.5C 8.5,7.5 9.5,7.5 10.5,7.5C 10.5,8.5 10.5,9.5 10.5,10.5 Z"/></g>
<g><path style="opacity:1" fill="#bc3838" d="M 4.5,-0.5 C 18.8333,-0.5 33.1667,-0.5 47.5,-0.5C 40.5318,0.830707 33.1984,1.49737 25.5,1.5C 18.1667,1.33333 10.8333,1.16667 3.5,1C 4.05596,0.617425 4.38929,0.117425 4.5,-0.5 Z"/></g>
<g><path style="opacity:1" fill="#fefefe" d="M 3.5,52.5 C 15.8333,52.5 28.1667,52.5 40.5,52.5C 40.5,53.5 40.5,54.5 40.5,55.5C 28.1667,55.5 15.8333,55.5 3.5,55.5C 3.5,54.5 3.5,53.5 3.5,52.5 Z"/></g>
<g><path style="opacity:1" fill="#fdfafa" d="M 44.5,52.5 C 45.5,52.5 46.5,52.5 47.5,52.5C 47.5,53.5 47.5,54.5 47.5,55.5C 46.5,55.5 45.5,55.5 44.5,55.5C 44.5,54.5 44.5,53.5 44.5,52.5 Z"/></g>
<g><path style="opacity:1" fill="#f1dce0" d="M 52.5,55.5 C 52.5,56.8333 52.5,58.1667 52.5,59.5C 51.1667,59.5 49.8333,59.5 48.5,59.5C 49.5,57.8333 50.8333,56.5 52.5,55.5 Z"/></g>
<g><path style="opacity:1" fill="#f3e2e4" d="M -0.5,56.5 C 0.833333,57.1667 1.83333,58.1667 2.5,59.5C 1.5,59.5 0.5,59.5 -0.5,59.5C -0.5,58.5 -0.5,57.5 -0.5,56.5 Z"/></g>
<g><path style="opacity:1" fill="#c14443" d="M 51.5,3.5 C 51.8333,3.5 52.1667,3.5 52.5,3.5C 52.5,20.8333 52.5,38.1667 52.5,55.5C 50.8333,56.5 49.5,57.8333 48.5,59.5C 33.8333,59.5 19.1667,59.5 4.5,59.5C 4.38929,58.8826 4.05596,58.3826 3.5,58C 18.5246,57.7678 33.5246,57.2678 48.5,56.5C 48.7288,38.4835 49.7288,20.8168 51.5,3.5 Z"/></g>
</svg>
