<?xml version="1.0" encoding="UTF-8"?>
<!DOCTYPE svg PUBLIC "-//W3C//DTD SVG 1.1//EN" "http://www.w3.org/Graphics/SVG/1.1/DTD/svg11.dtd">
<svg xmlns="http://www.w3.org/2000/svg" version="1.1" width="60px" height="60px" style="shape-rendering:geometricPrecision; text-rendering:geometricPrecision; image-rendering:optimizeQuality; fill-rule:evenodd; clip-rule:evenodd" xmlns:xlink="http://www.w3.org/1999/xlink">
<g><path style="opacity:1" fill="#fcfafa" d="M -0.5,-0.5 C 6.83333,-0.5 14.1667,-0.5 21.5,-0.5C 17.8965,1.64038 14.2299,3.80704 10.5,6C 8.21008,7.77717 6.54341,9.94384 5.5,12.5C 3.25192,15.328 1.25192,18.328 -0.5,21.5C -0.5,14.1667 -0.5,6.83333 -0.5,-0.5 Z"/></g>
<g><path style="opacity:1" fill="#fcf8f8" d="M 35.5,-0.5 C 43.5,-0.5 51.5,-0.5 59.5,-0.5C 59.5,7.16667 59.5,14.8333 59.5,22.5C 56.8488,16.9911 53.5155,11.8245 49.5,7C 44.899,4.2021 40.2324,1.7021 35.5,-0.5 Z"/></g>
<g><path style="opacity:1" fill="#bc464a" d="M 21.5,-0.5 C 26.1667,-0.5 30.8333,-0.5 35.5,-0.5C 40.2324,1.7021 44.899,4.2021 49.5,7C 53.5155,11.8245 56.8488,16.9911 59.5,22.5C 59.5,26.8333 59.5,31.1667 59.5,35.5C 59.1667,35.5 58.8333,35.5 58.5,35.5C 59.1321,28.604 57.6321,22.2707 54,16.5C 53.31,15.2617 52.81,15.2617 52.5,16.5C 51.8485,15.9094 51.1818,15.2427 50.5,14.5C 49.5832,15.1272 48.5832,15.4606 47.5,15.5C 45.369,14.6862 43.0356,14.1862 40.5,14C 39.8742,13.2496 39.3742,12.4162 39,11.5C 38.79,13.0581 38.29,14.3915 37.5,15.5C 37.3463,9.50335 34.5129,5.50335 29,3.5C 23.7547,5.63499 21.2547,9.63499 21.5,15.5C 20.6909,13.7078 20.1909,11.7078 20,9.5C 19.7996,11.3197 18.9663,12.653 17.5,13.5C 17.97,10.2548 19.3034,7.42144 21.5,5C 18.7449,5.33527 16.0783,6.33527 13.5,8C 11.8588,9.12901 10.8588,10.629 10.5,12.5C 9.84851,11.9094 9.18185,11.2427 8.5,10.5C 7.48224,11.1925 6.48224,11.8592 5.5,12.5C 6.54341,9.94384 8.21008,7.77717 10.5,6C 14.2299,3.80704 17.8965,1.64038 21.5,-0.5 Z"/></g>
<g><path style="opacity:1" fill="#fbf5f6" d="M 37.5,15.5 C 32.1667,15.5 26.8333,15.5 21.5,15.5C 21.2547,9.63499 23.7547,5.63499 29,3.5C 34.5129,5.50335 37.3463,9.50335 37.5,15.5 Z"/></g>
<g><path style="opacity:1" fill="#f4e2e4" d="M 17.5,13.5 C 17.2648,14.0967 16.7648,14.4301 16,14.5C 14.1997,13.6805 12.3664,13.0138 10.5,12.5C 10.8588,10.629 11.8588,9.12901 13.5,8C 16.0783,6.33527 18.7449,5.33527 21.5,5C 19.3034,7.42144 17.97,10.2548 17.5,13.5 Z"/></g>
<g><path style="opacity:1" fill="#f7eaec" d="M 37.5,4.5 C 40.7206,5.70932 43.7206,7.37599 46.5,9.5C 47.8333,10.5 47.8333,11.5 46.5,12.5C 44.9017,13.4847 43.235,13.6514 41.5,13C 40.2836,10.0691 38.9502,7.2358 37.5,4.5 Z"/></g>
<g><path style="opacity:1" fill="#bf4041" d="M 21.5,15.5 C 26.8333,15.5 32.1667,15.5 37.5,15.5C 38.29,14.3915 38.79,13.0581 39,11.5C 39.3742,12.4162 39.8742,13.2496 40.5,14C 43.0356,14.1862 45.369,14.6862 47.5,15.5C 46.3588,16.339 45.0255,17.0057 43.5,17.5C 42.513,20.7683 42.1796,24.1016 42.5,27.5C 46.8333,27.5 51.1667,27.5 55.5,27.5C 55.1056,23.6528 54.1056,19.9861 52.5,16.5C 52.81,15.2617 53.31,15.2617 54,16.5C 57.6321,22.2707 59.1321,28.604 58.5,35.5C 57.4488,40.6074 55.1154,44.9408 51.5,48.5C 50.1411,47.9935 49.1411,46.9935 48.5,45.5C 46.9291,44.6906 45.2624,44.3573 43.5,44.5C 42.5,44.5 41.5,44.5 40.5,44.5C 39.6906,43.5313 38.6906,42.6979 37.5,42C 31.9836,41.1826 26.6503,41.3493 21.5,42.5C 21.5,42.8333 21.5,43.1667 21.5,43.5C 20.8333,45.1667 20.1667,46.8333 19.5,48.5C 17.6298,43.9507 14.6298,43.2841 10.5,46.5C 8.90078,47.562 7.23411,47.562 5.5,46.5C 3.23146,42.9617 1.23146,39.295 -0.5,35.5C -0.5,30.8333 -0.5,26.1667 -0.5,21.5C 1.25192,18.328 3.25192,15.328 5.5,12.5C 6.48224,11.8592 7.48224,11.1925 8.5,10.5C 9.18185,11.2427 9.84851,11.9094 10.5,12.5C 12.3664,13.0138 14.1997,13.6805 16,14.5C 16.7648,14.4301 17.2648,14.0967 17.5,13.5C 18.9663,12.653 19.7996,11.3197 20,9.5C 20.1909,11.7078 20.6909,13.7078 21.5,15.5 Z"/></g>
<g><path style="opacity:1" fill="#e7a5a5" d="M 7.5,14.5 C 10.2084,16.3531 13.2084,17.3531 16.5,17.5C 15.7929,20.7861 15.4595,24.1194 15.5,27.5C 11.5,27.5 7.5,27.5 3.5,27.5C 3.62878,22.7813 4.96211,18.448 7.5,14.5 Z"/></g>
<g><path style="opacity:1" fill="#e6a2a2" d="M 52.5,16.5 C 54.1056,19.9861 55.1056,23.6528 55.5,27.5C 51.1667,27.5 46.8333,27.5 42.5,27.5C 42.1796,24.1016 42.513,20.7683 43.5,17.5C 45.0255,17.0057 46.3588,16.339 47.5,15.5C 48.5832,15.4606 49.5832,15.1272 50.5,14.5C 51.1818,15.2427 51.8485,15.9094 52.5,16.5 Z"/></g>
<g><path style="opacity:1" fill="#e7a4a4" d="M 19.5,18.5 C 25.8475,19.6615 32.1808,19.8281 38.5,19C 39.4438,21.7191 39.7771,24.5525 39.5,27.5C 32.8333,27.5 26.1667,27.5 19.5,27.5C 19.5,24.5 19.5,21.5 19.5,18.5 Z"/></g>
<g><path style="opacity:1" fill="#e7a4a4" d="M 3.5,31.5 C 7.5,31.5 11.5,31.5 15.5,31.5C 15.5431,34.5865 15.7097,37.5865 16,40.5C 13.2095,41.5619 10.5428,42.8952 8,44.5C 5.12254,40.6633 3.62254,36.33 3.5,31.5 Z"/></g>
<g><path style="opacity:1" fill="#e7a4a4" d="M 19.5,31.5 C 26.1667,31.5 32.8333,31.5 39.5,31.5C 39.4249,34.2062 39.0916,36.8728 38.5,39.5C 32.1667,39.5 25.8333,39.5 19.5,39.5C 19.5,36.8333 19.5,34.1667 19.5,31.5 Z"/></g>
<g><path style="opacity:1" fill="#e6a3a2" d="M 42.5,31.5 C 46.8333,31.5 51.1667,31.5 55.5,31.5C 55.2631,35.7105 53.9298,39.5438 51.5,43C 48.4981,42.8416 45.4981,42.3416 42.5,41.5C 42.5,38.1667 42.5,34.8333 42.5,31.5 Z"/></g>
<g><path style="opacity:1" fill="#fbf6f7" d="M 58.5,35.5 C 58.8333,35.5 59.1667,35.5 59.5,35.5C 59.5,43.5 59.5,51.5 59.5,59.5C 50.8333,59.5 42.1667,59.5 33.5,59.5C 40.7253,57.8852 46.7253,54.2185 51.5,48.5C 55.1154,44.9408 57.4488,40.6074 58.5,35.5 Z"/></g>
<g><path style="opacity:1" fill="#fcf8f8" d="M -0.5,35.5 C 1.23146,39.295 3.23146,42.9617 5.5,46.5C 8.30252,51.2394 12.3025,54.5727 17.5,56.5C 18.7804,57.9313 20.4471,58.5979 22.5,58.5C 22.5,58.8333 22.5,59.1667 22.5,59.5C 14.8333,59.5 7.16667,59.5 -0.5,59.5C -0.5,51.5 -0.5,43.5 -0.5,35.5 Z"/></g>
<g><path style="opacity:1" fill="#f9f1f3" d="M 21.5,42.5 C 26.5111,42.3341 31.5111,42.5007 36.5,43C 37.0219,43.5613 37.3552,44.228 37.5,45C 36.47,47.5602 35.3034,50.0602 34,52.5C 30.2864,56.6926 26.9531,56.3592 24,51.5C 22.6591,48.978 21.8257,46.3113 21.5,43.5C 21.5,43.1667 21.5,42.8333 21.5,42.5 Z"/></g>
<g><path style="opacity:1" fill="#f2e0e4" d="M 19.5,48.5 C 19.4208,49.9305 19.7542,51.2638 20.5,52.5C 20,52.8333 19.5,53.1667 19,53.5C 15.3353,51.9867 12.5019,49.6534 10.5,46.5C 14.6298,43.2841 17.6298,43.9507 19.5,48.5 Z"/></g>
<g><path style="opacity:1" fill="#ba4247" d="M 21.5,42.5 C 26.6503,41.3493 31.9836,41.1826 37.5,42C 38.6906,42.6979 39.6906,43.5313 40.5,44.5C 39.7307,47.9509 38.8973,51.2842 38,54.5C 41.8278,53.0088 44.9945,50.6755 47.5,47.5C 46.0986,46.4793 44.7653,45.4793 43.5,44.5C 45.2624,44.3573 46.9291,44.6906 48.5,45.5C 49.1411,46.9935 50.1411,47.9935 51.5,48.5C 46.7253,54.2185 40.7253,57.8852 33.5,59.5C 29.8333,59.5 26.1667,59.5 22.5,59.5C 22.5,59.1667 22.5,58.8333 22.5,58.5C 21.3646,56.7868 19.698,56.1201 17.5,56.5C 12.3025,54.5727 8.30252,51.2394 5.5,46.5C 7.23411,47.562 8.90078,47.562 10.5,46.5C 12.5019,49.6534 15.3353,51.9867 19,53.5C 19.5,53.1667 20,52.8333 20.5,52.5C 19.7542,51.2638 19.4208,49.9305 19.5,48.5C 20.1667,46.8333 20.8333,45.1667 21.5,43.5C 21.8257,46.3113 22.6591,48.978 24,51.5C 26.9531,56.3592 30.2864,56.6926 34,52.5C 35.3034,50.0602 36.47,47.5602 37.5,45C 37.3552,44.228 37.0219,43.5613 36.5,43C 31.5111,42.5007 26.5111,42.3341 21.5,42.5 Z"/></g>
<g><path style="opacity:1" fill="#f4e2e5" d="M 40.5,44.5 C 41.5,44.5 42.5,44.5 43.5,44.5C 44.7653,45.4793 46.0986,46.4793 47.5,47.5C 44.9945,50.6755 41.8278,53.0088 38,54.5C 38.8973,51.2842 39.7307,47.9509 40.5,44.5 Z"/></g>
<g><path style="opacity:1" fill="#bc6774" d="M 17.5,56.5 C 19.698,56.1201 21.3646,56.7868 22.5,58.5C 20.4471,58.5979 18.7804,57.9313 17.5,56.5 Z"/></g>
</svg>
