<svg xmlns="http://www.w3.org/2000/svg" xmlns:svg="http://www.w3.org/2000/svg" width="0.53000009in" height="0.61333346in" viewBox="0 0 159.00003 183.99995" version="1.1" id="svg1">
  <defs id="defs1" fill="#000000"/>
  <path id="Selection" fill="none" stroke="#000000" stroke-width="1" d="m 3.232795e-8,2.0070351e-7 c 0,0 158.999999967672039,0 158.999999967672039,0 C 159,2.0070351e-7 159,184 159,184 159,184 3.232795e-8,184 3.232795e-8,184 Z M 150,9.0000002 c 0,0 -141,0 -141,0 C 9,9.0000002 9,150 9,150 c 0,0 141,0 141,0 z M 23,22 c 0,0 9,0 9,0 0,0 0,10 0,10 0,0 -9,0 -9,0 z m 104,0 c 0,0 10,0 10,0 0,0 0,10 0,10 0,0 -10,0 -10,0 z M 73,32.44 c 7.16,-0.92 16.14,-0.71 23,1.66 3.09,1.07 10.88,5.51 13,5.49 3.59,-0.02 5.86,-4.14 9.98,-4.14 3.53,0 6.12,3.07 5.18,6.55 -0.93,3.4 -4.65,5.4 -4.52,8.28 0,0 5.89,12.72 5.89,12.72 2.34,6.1 2.54,11.6 2.47,18 -0.23,19.7 -14.28,37.46 -33,43.23 -5.63,1.73 -10.21,1.83 -16,1.77 -6.82,-0.08 -11.86,-1.28 -18,-4.26 C 53.99,118.33 49.36,115.1 44.33,109 21.18,80.98 37.72,39.04 73,32.44 Z m 28,16.61 c -13.08,-7.46 -27.05,-8.55 -40,0 -20.8,13.88 -21.27,44.63 -1,59.16 14.02,10.05 33.53,8.69 45.96,-3.3 C 117.6,93.67 122.18,69.61 109,58 109,58 86,80.55 86,80.55 80.22,84.58 76.2,79.71 77.4,76 78.19,73.56 82.14,69.87 84,68 89.18,62.79 97.99,55.37 101,49.05 Z M 23,127 c 0,0 9,0 9,0 0,0 0,10 0,10 0,0 -9,0 -9,0 z m 103,1 c 0,0 10,0 10,0 0,0 0,9 0,9 0,0 -10,0 -10,0 z m 0,32 c 0,0 -117,0 -117,0 0,0 0,15 0,15 0,0 117,0 117,0 z m 24,0 c 0,0 -14,0 -14,0 0,0 0,15 0,15 0,0 14,0 14,0 z" style="fill:#a33e3e;fill-opacity:1;stroke-width:0;stroke-dasharray:none"/>
</svg>