<?xml version="1.0" encoding="UTF-8"?>
<svg width="77px" height="60px" viewBox="0 0 77 60" version="1.1" xmlns="http://www.w3.org/2000/svg" xmlns:xlink="http://www.w3.org/1999/xlink">
    <title>router</title>
    <g stroke="none" stroke-width="1" fill="none" fill-rule="evenodd">
        <g transform="translate(-1166.000000, -152.000000)" fill-rule="nonzero">
            <g id="router" transform="translate(1166.000000, 152.000000)">
                <path d="M9.92990343,37.9537288 C9.92990343,40.0267693 11.6104348,41.7073006 13.6834752,41.7073006 C15.7565156,41.7073006 17.4370469,40.0267693 17.4370469,37.9537288 C17.4370469,36.6127068 16.7216202,35.3735513 15.5602611,34.7030403 C14.3989019,34.0325292 12.9680484,34.0325292 11.8066893,34.7030403 C10.6453301,35.3735513 9.92990343,36.6127068 9.92990343,37.9537288 Z" fill="#FFE10B"></path>
                <path d="M20.8835083,37.9537288 C20.8835083,40.0267693 22.5640396,41.7073006 24.63708,41.7073006 C26.7101205,41.7073006 28.3906518,40.0267693 28.3906518,37.9537288 C28.3906518,35.8806884 26.7101205,34.2001571 24.63708,34.2001571 C22.5640396,34.2001571 20.8835083,35.8806884 20.8835083,37.9537288 L20.8835083,37.9537288 Z" fill="#FFE10B"></path>
                <path d="M31.7262121,37.9537288 C31.7262121,40.0267693 33.4067434,41.7073006 35.4797838,41.7073006 C37.5528243,41.7073006 39.2333556,40.0267693 39.2333556,37.9537288 C39.2333556,35.8806884 37.5528243,34.2001571 35.4797838,34.2001571 C33.4067434,34.2001571 31.7262121,35.8806884 31.7262121,37.9537288 Z" fill="#FFE10B"></path>
                <path d="M70.6268647,24.5773641 L70.6268647,2.21801964 C70.6268647,0.989577979 69.6372867,0 68.4088451,0 L68.2296973,0 C67.0012556,0 66.0116776,0.989577979 66.0116776,2.21801964 L66.0116776,24.5773641 L5.9715914,24.5773641 C2.67015445,24.5773641 0,27.2475185 0,30.5489555 L0,45.8703529 C0,49.1717899 2.67015445,51.8419443 5.9715914,51.8419443 L11.8493435,51.8419443 L8.8720787,55.4675534 C7.91662407,56.6362791 8.08724099,58.3509789 9.24743584,59.3064336 C9.75928651,59.724445 10.3649765,59.9291852 10.9791973,59.9291852 C11.764035,59.9291852 12.5488728,59.5879514 13.086316,58.9310764 L18.5460568,52.2855482 C18.6654886,52.1405239 18.7593279,51.9954995 18.8446363,51.8419443 L57.8050049,51.8419443 C57.8903133,51.9954995 57.9926835,52.1490547 58.1121153,52.2940791 L63.6059794,58.9396073 C64.1434226,59.5964823 64.9282603,59.9291852 65.713098,59.9291852 C66.3273189,59.9291852 66.9415397,59.724445 67.4533904,59.3064336 C68.6135853,58.3424481 68.7756714,56.6277483 67.8202167,55.4590225 L64.8258902,51.8419443 L70.4647787,51.8419443 C73.7662156,51.8419443 76.4363701,49.1717899 76.4363701,45.8703529 L76.4363701,30.5489555 C76.4363701,27.3072345 73.8515241,24.6712034 70.6268647,24.5773641 Z M71.8297139,45.8703529 C71.8297139,46.6210673 71.215493,47.2352881 70.4647787,47.2352881 L5.9715914,47.2352881 C5.22087705,47.2352881 4.60665622,46.6210673 4.60665622,45.8703529 L4.60665622,30.5489555 C4.60665622,29.7982411 5.22087705,29.1840203 5.9715914,29.1840203 L70.4647787,29.1840203 C71.215493,29.1840203 71.8297139,29.7982411 71.8297139,30.5489555 L71.8297139,45.8703529 Z" fill="#2D70F7"></path>
            </g>
        </g>
    </g>
</svg>