<?xml version="1.0" encoding="UTF-8"?>
<!DOCTYPE svg PUBLIC "-//W3C//DTD SVG 1.1//EN" "http://www.w3.org/Graphics/SVG/1.1/DTD/svg11.dtd">
<svg xmlns="http://www.w3.org/2000/svg" version="1.1" width="70px" height="61px" style="shape-rendering:geometricPrecision; text-rendering:geometricPrecision; image-rendering:optimizeQuality; fill-rule:evenodd; clip-rule:evenodd" xmlns:xlink="http://www.w3.org/1999/xlink">
<g><path style="opacity:1" fill="#fdfafb" d="M -0.5,-0.5 C 9.83333,-0.5 20.1667,-0.5 30.5,-0.5C 24.7863,2.3741 20.1196,6.54077 16.5,12C 8.27922,13.3972 2.61256,17.8972 -0.5,25.5C -0.5,16.8333 -0.5,8.16667 -0.5,-0.5 Z"/></g>
<g><path style="opacity:1" fill="#fdfafa" d="M 42.5,-0.5 C 51.5,-0.5 60.5,-0.5 69.5,-0.5C 69.5,12.1667 69.5,24.8333 69.5,37.5C 68.3734,36.8783 67.3734,36.045 66.5,35C 51.5,34.3333 36.5,34.3333 21.5,35C 21,35.5 20.5,36 20,36.5C 19.3333,43.1667 19.3333,49.8333 20,56.5C 20.8333,57.3333 21.6667,58.1667 22.5,59C 37.1667,59.6667 51.8333,59.6667 66.5,59C 67.6364,57.8549 68.6364,56.6883 69.5,55.5C 69.5,57.1667 69.5,58.8333 69.5,60.5C 46.1667,60.5 22.8333,60.5 -0.5,60.5C -0.5,52.1667 -0.5,43.8333 -0.5,35.5C 1.55366,39.0584 4.22032,42.2251 7.5,45C 9.69543,46.373 12.0288,46.7063 14.5,46C 15.6457,43.4428 14.6457,42.1095 11.5,42C 2.68834,34.5644 2.35501,26.8978 10.5,19C 13.6883,17.6842 17.0217,17.1842 20.5,17.5C 23.4364,7.52519 30.1031,3.35852 40.5,5C 49.486,7.47643 54.1527,13.3098 54.5,22.5C 58.5454,22.8704 61.5454,24.8704 63.5,28.5C 64.6888,29.4287 66.0222,29.762 67.5,29.5C 67.2741,24.4159 64.7741,20.7492 60,18.5C 57.0448,9.38309 51.2115,3.04976 42.5,-0.5 Z"/></g>
<g><path style="opacity:1" fill="#ba3f43" d="M 30.5,-0.5 C 34.5,-0.5 38.5,-0.5 42.5,-0.5C 51.2115,3.04976 57.0448,9.38309 60,18.5C 64.7741,20.7492 67.2741,24.4159 67.5,29.5C 66.0222,29.762 64.6888,29.4287 63.5,28.5C 61.5454,24.8704 58.5454,22.8704 54.5,22.5C 54.1527,13.3098 49.486,7.47643 40.5,5C 30.1031,3.35852 23.4364,7.52519 20.5,17.5C 17.0217,17.1842 13.6883,17.6842 10.5,19C 2.35501,26.8978 2.68834,34.5644 11.5,42C 14.6457,42.1095 15.6457,43.4428 14.5,46C 12.0288,46.7063 9.69543,46.373 7.5,45C 4.22032,42.2251 1.55366,39.0584 -0.5,35.5C -0.5,32.1667 -0.5,28.8333 -0.5,25.5C 2.61256,17.8972 8.27922,13.3972 16.5,12C 20.1196,6.54077 24.7863,2.3741 30.5,-0.5 Z"/></g>
<g><path style="opacity:1" fill="#b6434c" d="M 69.5,37.5 C 69.5,43.5 69.5,49.5 69.5,55.5C 68.6364,56.6883 67.6364,57.8549 66.5,59C 51.8333,59.6667 37.1667,59.6667 22.5,59C 21.6667,58.1667 20.8333,57.3333 20,56.5C 19.3333,49.8333 19.3333,43.1667 20,36.5C 20.5,36 21,35.5 21.5,35C 36.5,34.3333 51.5,34.3333 66.5,35C 67.3734,36.045 68.3734,36.8783 69.5,37.5 Z"/></g>
<g><path style="opacity:1" fill="#fbf6f6" d="M 25.5,39.5 C 37.8378,39.3335 50.1712,39.5001 62.5,40C 63,40.5 63.5,41 64,41.5C 64.6667,45.1667 64.6667,48.8333 64,52.5C 63.5,53 63,53.5 62.5,54C 50.1667,54.6667 37.8333,54.6667 25.5,54C 24.1922,49.1672 24.1922,44.3338 25.5,39.5 Z"/></g>
<g><path style="opacity:1" fill="#fda028" d="M 45.5,44.5 C 48.1873,44.3359 50.854,44.5026 53.5,45C 54.727,46.5874 54.3937,47.9207 52.5,49C 50.1667,49.6667 47.8333,49.6667 45.5,49C 44.2721,47.5098 44.2721,46.0098 45.5,44.5 Z"/></g>
</svg>
