<?xml version="1.0" encoding="UTF-8"?>
<svg xmlns="http://www.w3.org/2000/svg" xmlns:xlink="http://www.w3.org/1999/xlink" width="82px" height="82px" viewBox="0 0 82 82" version="1.1">
<g id="surface1">
<path style=" stroke:none;fill-rule:nonzero;fill:rgb(63.921571%,24.313726%,24.313726%);fill-opacity:1;" d="M 19.96875 56.175781 C 17.929688 56.175781 15.1875 56.363281 13.296875 55.707031 C 11.320312 55.027344 9.789062 53.8125 8.296875 52.371094 C 4.09375 48.316406 2.9375 44.644531 2.535156 38.929688 C 2.441406 37.605469 2.660156 36.84375 2.8125 35.566406 C 3.640625 28.679688 7.585938 23.964844 13.714844 20.953125 C 18.046875 18.824219 19.640625 19.191406 21.527344 18.816406 C 22.699219 16.953125 23.679688 15.527344 24.59375 14.535156 C 27.394531 11.484375 29.007812 9.859375 33.117188 7.570312 C 36.605469 5.972656 40.382812 4.90625 44.75 4.914062 C 51.886719 5.363281 57.859375 8.164062 62.421875 13.273438 C 64.8125 15.953125 66.726562 18.816406 68.199219 22.105469 L 69.550781 26.136719 C 71.101562 27.476562 73 29.175781 74.230469 30.195312 C 76.609375 32.855469 78.226562 35.261719 78.332031 40.664062 L 72.683594 40.722656 C 71.949219 36.554688 71.792969 35.703125 69.542969 33.585938 C 68.066406 32.203125 65.96875 30.878906 64.230469 29.582031 L 62.648438 24.628906 C 60.808594 20.1875 58.652344 17.71875 54.917969 14.402344 C 53.414062 13.605469 51.367188 11.425781 44.757812 10.527344 C 38.089844 10.695312 34.152344 12.90625 29.972656 17.0625 C 27.789062 19.570312 26.179688 21.628906 25.386719 24.628906 C 20.8125 24.628906 15.652344 25.8125 12.171875 29.054688 C 7.667969 33.25 7.683594 40.992188 10.601562 46.078125 C 11.78125 48.132812 13.34375 49.636719 15.582031 50.28125 C 17.320312 50.78125 18.757812 50.703125 19.9375 50.761719 C 19.914062 51.996094 19.96875 55.054688 19.96875 56.175781 Z M 24.554688 44.398438 L 79.585938 44.398438 L 79.53125 72.117188 C 73.519531 72.183594 62.527344 72.15625 55.820312 72.15625 L 24.5 72.226562 Z M 73.746094 50.285156 L 30.390625 50.285156 L 30.390625 66.269531 L 73.746094 66.269531 Z M 53.320312 55.753906 L 66.242188 55.753906 L 66.242188 61.222656 L 53.320312 61.222656 Z M 53.320312 55.753906 "/>
<path style=" stroke:none;fill-rule:nonzero;fill:rgb(63.921571%,24.313726%,24.313726%);fill-opacity:1;" d="M 53.40625 58.503906 C 53.554688 59.664062 52.765625 61.761719 54.679688 61.15625 C 58.503906 61.15625 62.324219 61.15625 66.148438 61.15625 C 66.148438 59.386719 66.148438 57.617188 66.148438 55.847656 C 61.902344 55.847656 57.652344 55.847656 53.40625 55.847656 C 53.40625 56.734375 53.40625 57.617188 53.40625 58.503906 Z M 53.40625 58.503906 "/>
<path style=" stroke:none;fill-rule:nonzero;fill:rgb(98.039216%,54.901963%,8.235294%);fill-opacity:1;" d="M 52.96875 61.480469 L 66.425781 61.480469 L 66.425781 55.617188 L 53.035156 55.664062 C 53.007812 57.640625 52.96875 59.695312 52.96875 61.480469 Z M 52.96875 61.480469 "/>
</g>
</svg>
