<svg xmlns:inkscape="http://www.inkscape.org/namespaces/inkscape" xmlns:sodipodi="http://sodipodi.sourceforge.net/DTD/sodipodi-0.dtd" xmlns="http://www.w3.org/2000/svg" xmlns:svg="http://www.w3.org/2000/svg" width="1.9999971in" height="1.5003906in" viewBox="0 0 179.99993 135.03542" version="1.1" id="svg1" sodipodi:docname="routers_nu.svg">
  <defs id="defs1" fill="#000000"/>
  <sodipodi:namedview id="namedview1" pagecolor="#ffffff" bordercolor="#000000" borderopacity="0.25" inkscape:showpageshadow="2" inkscape:pageopacity="0.0" inkscape:pagecheckerboard="0" inkscape:deskcolor="#d1d1d1" inkscape:document-units="in" inkscape:export-bgcolor="#ffffff00" fill="#000000"/>
  <path id="Selection" fill="none" stroke="#000000" stroke-width="1" d="m 153,56.004434 0.13215,-56.00131808 c 2.76529,-0.0151221 4.56323,0.0313177 8.86785,0.0013177 V 56.004434 h 18 v 60.999996 h -23 c 7.71,7.72 8.99,7.26 9,18 -2.85,0 -6.41,0.27 -9,-1.02 -5.28,-2.64 -13.54,-14.37 -19,-16.38 -1.94,-0.72 -4.91,-0.6 -7,-0.6 H 47.000001 c -11.22,0.21 -14.52,11.04 -23,16.4 -3.14,1.99 -6.44,1.6 -10,1.6 0.01,-10.74 1.29,-10.28 9,-18 H 7.0000005 L 0.03063854,116.98312 5.4102267e-7,110.00443 V 56.004434 Z m 17,9 H 10.000001 V 107.00443 H 170 Z m -145.999999,15 h 12 v 12 c -2.41,0 -9.825527,-0.0596 -12.008504,-0.10085 -0.0087,-2.296173 0.0085,-9.18915 0.0085,-11.89915 z m 25,0 h 12 v 12 c -2.71,0 -9.602977,0.0172 -11.899145,-0.0681 -0.117878,-1.953183 -0.100855,-9.5219 -0.100855,-11.9319 z m 25,0 h 12 v 12 c -2.71,0 -9.832763,-0.0594 -11.899145,-0.0681 -0.04128,-2.106374 -0.100855,-9.5219 -0.100855,-11.9319 z" sodipodi:nodetypes="ccccccccccsccccccccccccccccccccccccccccc" style="fill:#a33e3e;fill-opacity:1;stroke-width:0;stroke-dasharray:none"/>
  <path style="fill:#fa8c15;fill-opacity:1;stroke:#f9f9f9;stroke-width:0;stroke-dasharray:none" d="m 74.44504,85.852702 c -0.442659,3.718459 -0.384039,6.951254 4.273561,5.728237 2.234473,-0.0047 4.754048,0.283003 6.843669,0.227044 0.179898,-3.84594 0.07772,-7.699309 0.106482,-11.548349 -3.74124,0 -7.482476,0 -11.223712,0 0,1.864355 0,3.728709 0,5.593068 z" id="path1"/>
  <path style="fill:#fa8c15;fill-opacity:1;stroke:#f9f9f9;stroke-width:0;stroke-dasharray:none" d="m 49.325313,85.844349 c -0.397799,3.614649 -0.454671,6.923532 4.140356,5.839603 2.37709,-0.531367 7.929939,2.151087 7.083352,-1.803997 -0.349021,-3.03591 0.702868,-7.472724 -0.534462,-9.620321 -3.563082,0 -7.126164,0 -10.689246,0 0,1.861571 0,3.723141 0,5.584715 z" id="path2"/>
  <path style="fill:#fa8c15;fill-opacity:1;stroke:#f9f9f9;stroke-width:0;stroke-dasharray:none" d="m 23.857786,85.444629 c 9.56e-4,3.126567 -0.0039,4.522223 -0.004,6.668605 2.468682,-0.004 9.902902,0.0286 12.225064,0.0104 -0.01043,-3.775048 0.0147,-8.044328 0.01168,-12.244292 H 23.825345 Z" id="path3" sodipodi:nodetypes="cccccc"/>
  <path style="fill:#fa8c15;fill-opacity:1;stroke:#f9f9f9;stroke-width:0;stroke-dasharray:none" d="m 48.757164,85.334455 c 9.56e-4,3.126567 -0.0039,4.522223 -0.004,6.668609 2.468682,-0.004 9.902902,0.0286 12.225064,0.0104 -0.01043,-3.775052 0.0147,-8.044332 0.01168,-12.244296 H 48.724723 Z" id="path4" sodipodi:nodetypes="cccccc"/>
  <path style="fill:#fa8c15;fill-opacity:1;stroke:#f9f9f9;stroke-width:0;stroke-dasharray:none" d="m 73.766716,85.444629 c 9.56e-4,3.126567 -0.0039,4.522223 -0.004,6.668605 2.468682,-0.004 9.902902,0.0286 12.225064,0.0104 -0.01043,-3.775048 0.0147,-8.044328 0.01168,-12.244292 H 73.734275 Z" id="path5" sodipodi:nodetypes="cccccc"/>
</svg>