<?xml version="1.0" encoding="UTF-8"?>
<svg class="icon" width="200px" height="200.00px" viewBox="0 0 2048 2048" version="1.1" xmlns="http://www.w3.org/2000/svg">
<path d="M0 0 C1.86296614 -0.0070215 3.72593204 -0.01410832 5.58889771 -0.02125549 C11.51239364 -0.04066359 17.43585048 -0.04568967 23.359375 -0.046875 C24.36816963 -0.04731686 25.37696426 -0.04775871 26.41632843 -0.04821396 C56.74547781 -0.05518299 86.90361524 0.18549341 117.109375 3.203125 C118.00553528 3.29033813 118.90169556 3.37755127 119.82501221 3.46740723 C159.23752608 7.30937472 198.35183658 13.07659996 237.109375 21.203125 C238.39473145 21.47205566 239.68008789 21.74098633 241.00439453 22.01806641 C275.43270999 29.31806586 309.47492637 38.41490108 342.88598633 49.46807861 C345.17230278 50.22392876 347.46011145 50.97514036 349.74804688 51.72607422 C372.90155974 59.34596822 395.61706099 67.81206395 418.109375 77.203125 C418.74796448 77.46891357 419.38655396 77.73470215 420.04449463 78.00854492 C491.25180271 107.67307615 558.21539269 145.59986769 621.109375 190.203125 C621.88313477 190.7511377 622.65689453 191.29915039 623.45410156 191.86376953 C639.91720002 203.55235864 655.75741578 215.98226691 671.36962891 228.77929688 C672.92885827 230.05538804 674.493386 231.32499881 676.05859375 232.59375 C686.52971322 241.09293602 696.74212934 249.87165181 706.6796875 258.98828125 C708.71452915 260.84319317 710.77258747 262.65741298 712.859375 264.453125 C722.49087027 272.84375278 731.70254006 281.69926236 740.6730957 290.78833008 C744.05454069 294.19931194 747.55453083 297.38288846 751.22241211 300.48608398 C753.09691145 302.1917838 754.70065861 303.96810852 756.3359375 305.90234375 C760.06296815 310.21465552 764.04212749 314.21379411 768.109375 318.203125 C772.7543063 322.75907294 777.21922704 327.37895779 781.46582031 332.31005859 C783.89976824 335.1135096 786.44468283 337.80835846 788.984375 340.515625 C793.52286024 345.38898049 797.80286297 350.40616477 801.97265625 355.6015625 C804.06819994 358.15299229 806.24900655 360.58639273 808.484375 363.015625 C812.46199185 367.38549819 816.11814094 371.93922036 819.73730469 376.60424805 C823.33403439 381.23705993 827.01834988 385.79064 830.734375 390.328125 C836.03635739 396.82683174 841.17007025 403.42303711 846.109375 410.203125 C846.58842285 410.86006348 847.0674707 411.51700195 847.56103516 412.19384766 C859.05564431 427.98416873 870.40568791 443.86372123 881.109375 460.203125 C881.53541016 460.8518457 881.96144531 461.50056641 882.40039062 462.16894531 C900.68270617 490.05286214 917.46474747 518.76033885 933.109375 548.203125 C933.64272461 549.20134277 934.17607422 550.19956055 934.72558594 551.22802734 C943.46340269 567.61471371 951.46525219 584.28050123 959.109375 601.203125 C959.58616699 602.25467773 960.06295898 603.30623047 960.55419922 604.38964844 C985.11332735 658.73434849 1004.62236309 715.37039083 1019.109375 773.203125 C1019.2952417 773.94119385 1019.4811084 774.6792627 1019.67260742 775.43969727 C1033.38167229 829.95231291 1042.22237994 885.56913768 1046.796875 941.578125 C1046.88828262 942.69252457 1046.88828262 942.69252457 1046.98153687 943.82943726 C1048.48293515 962.37130573 1049.2730203 980.87827432 1049.3125 999.48046875 C1049.31532738 1000.40992373 1049.31815475 1001.3393787 1049.32106781 1002.29699898 C1049.33592441 1007.23779691 1049.34523303 1012.17856679 1049.34960938 1017.11938477 C1049.35394411 1021.08888187 1049.36765929 1025.05815548 1049.390625 1029.02758789 C1049.89930964 1118.8729145 1037.25475474 1207.78668956 993.109375 1362.203125 C989.49350806 1360.67280347 987.18270275 1358.52590696 984.41911387 1355.76126087 C983.95984606 1355.30454923 983.50057825 1354.84783758 983.02739323 1354.3772862 C981.4812846 1352.83732934 979.94243644 1351.29031467 978.40342331 1349.74326897 C977.28383719 1348.62516159 976.16381236 1347.50749335 975.04338765 1346.3902263 C971.947764 1343.30076187 968.8584471 1340.20505605 965.77006876 1337.10835115 C962.41591999 1333.74735244 959.05598987 1330.39214191 955.69677281 1327.03621018 C949.80423266 1321.14782459 943.91543322 1315.25571845 938.02903366 1309.36119461 C929.27609289 1300.59620672 920.51744826 1291.83693546 911.75760337 1283.0788483 C897.02385287 1268.34772858 882.2947708 1253.61194938 867.56832123 1238.87353134 C852.98211958 1224.27550555 838.3938606 1209.67954082 823.80283356 1195.08633804 C822.89643772 1194.17980473 821.99004189 1193.27327141 821.05617951 1192.33926739 C816.45325534 1187.73566658 811.85029423 1183.13210269 807.24731889 1178.52855302 C797.88649421 1169.16652219 788.52599496 1159.804166 779.16563797 1150.44166756 C778.69728974 1149.97321269 778.22894151 1149.50475782 777.74640091 1149.02210736 C754.95793315 1126.22839518 732.17315225 1103.4309986 709.38867188 1080.63330078 C701.48086831 1072.72091394 693.57304845 1064.80854338 685.66516113 1056.89624023 C684.92950014 1056.16016839 684.92950014 1056.16016839 684.1789773 1055.40922641 C661.38423534 1032.60179883 638.58687682 1009.7969874 615.78884193 986.99285144 C614.30897407 985.51258745 612.82910734 984.03232234 611.34924084 982.55205699 C601.54217592 972.74235253 591.73506588 962.93269319 581.92792562 953.12306406 C561.94871156 933.13877881 541.96978398 913.15420715 521.99102783 893.16946411 C521.07238724 892.25054894 520.15374664 891.33163376 519.20726845 890.38487267 C457.83653171 828.995727 396.47243751 767.59994152 335.109375 706.203125 C332.20665915 707.51712603 330.13738915 708.92538921 327.88888105 711.17522196 C327.27048825 711.78912017 326.65209545 712.40301839 326.01496347 713.03551958 C325.34290811 713.71282897 324.67085274 714.39013837 323.97843206 715.08797228 C323.2548359 715.80926073 322.53123974 716.53054919 321.78571642 717.27369486 C319.3386229 719.71545637 316.89878387 722.16434292 314.45879173 724.61319923 C312.69004387 726.38107532 310.9208566 728.14851188 309.15126765 729.91554606 C305.28049915 733.7827593 301.41288861 737.65309012 297.54795603 741.52613516 C291.76201136 747.32418189 285.97030278 753.11644545 280.17742547 758.9075647 C270.30625214 768.77607373 260.43981926 778.64930991 250.5759182 788.52508736 C240.57564499 798.5373575 230.57318983 808.54744026 220.56803703 818.55483437 C219.62123317 819.5018536 219.62123317 819.5018536 218.65530195 820.46800453 C215.43696024 823.68705597 212.21858068 826.90606959 209.00018607 830.12506814 C186.40251527 852.72710179 163.80911112 875.33339601 141.21823854 897.94222436 C117.41471365 921.76466749 93.60881052 945.58472975 69.799366 969.40125656 C69.082594 970.11824287 68.365822 970.83522918 67.62732964 971.57394234 C59.61882452 979.58482946 51.61024037 987.59563755 43.60162385 995.60641329 C28.78838493 1010.42365169 13.97547848 1025.24122245 -0.83734703 1040.05887413 C-1.57853065 1040.80029831 -2.31971427 1041.54172249 -3.083358 1042.30561407 C-38.37149695 1077.60523929 -73.6566051 1112.9078935 -108.94101656 1148.21124456 C-111.28280172 1150.55428641 -113.6245884 1152.89732674 -115.96637542 1155.24036674 C-139.48291555 1178.76949596 -162.99928747 1202.2987933 -186.515625 1225.828125 C-210.81618558 1250.14211288 -235.11679228 1274.45605466 -259.41756676 1298.76982876 C-261.75916506 1301.11268036 -264.10076184 1303.45553348 -266.44235847 1305.79838675 C-301.69919256 1341.07412089 -336.95692667 1376.34895484 -372.21748924 1411.62096214 C-372.95810502 1412.36181923 -373.69872081 1413.10267632 -374.46177949 1413.86598363 C-389.25678491 1428.66580117 -404.05192204 1443.46548703 -418.84733886 1458.2648933 C-426.84769931 1466.26741298 -434.84800362 1474.26998878 -442.84824753 1482.27262497 C-443.56401736 1482.98860773 -444.27978719 1483.7045905 -445.01724701 1484.44226971 C-468.82067786 1508.25285462 -492.62010553 1532.06743667 -516.41765648 1555.88389814 C-538.9389505 1578.42305007 -561.46328158 1600.95916262 -583.99139159 1623.491502 C-587.19832406 1626.69904065 -590.40521848 1629.90661733 -593.61208916 1633.11421776 C-594.24076392 1633.74303342 -594.86943869 1634.37184908 -595.51716421 1635.01971975 C-605.49908988 1645.00407406 -615.47762085 1654.99181409 -625.45475595 1664.98095527 C-635.2490619 1674.78691438 -645.04686974 1684.58936256 -654.84849271 1694.38800801 C-660.60533664 1700.14332279 -666.35937203 1705.90141266 -672.10942226 1711.66351511 C-676.36250769 1715.9249153 -680.62070545 1720.18116653 -684.88103178 1724.43532908 C-686.60493069 1726.15837732 -688.32711147 1727.88314646 -690.04746653 1729.60973303 C-692.36389659 1731.93407998 -694.686273 1734.2523096 -697.01038039 1736.56897604 C-697.68721724 1737.25106692 -698.36405409 1737.93315779 -699.06140115 1738.63591809 C-699.67487694 1739.2448993 -700.28835274 1739.85388052 -700.92041872 1740.48131571 C-701.44989729 1741.01110625 -701.97937587 1741.54089679 -702.52489925 1742.08674158 C-703.890625 1743.203125 -703.890625 1743.203125 -705.890625 1743.203125 C-707.16015625 1741.91015625 -707.16015625 1741.91015625 -708.703125 1740.015625 C-712.07712029 1736.03332029 -715.678179 1732.36439032 -719.390625 1728.703125 C-723.43037909 1724.70481302 -727.34789726 1720.68447284 -731.02734375 1716.34765625 C-733.03124582 1714.0412784 -735.1032929 1711.81083515 -737.18896484 1709.57861328 C-742.16647361 1704.24964215 -746.92151305 1698.82659811 -751.48828125 1693.13671875 C-754.3402347 1689.65408941 -757.29889623 1686.2753732 -760.265625 1682.890625 C-765.43015321 1676.97783133 -770.35034909 1670.9209846 -775.15625 1664.71484375 C-777.47007214 1661.72768272 -779.83622972 1658.78677445 -782.21630859 1655.85229492 C-789.75943248 1646.5342455 -796.84279769 1636.89852813 -803.890625 1627.203125 C-804.76050049 1626.01154785 -804.76050049 1626.01154785 -805.64794922 1624.79589844 C-812.26913377 1615.72593544 -818.73212113 1606.59577275 -824.890625 1597.203125 C-825.65084997 1596.06930949 -826.41264771 1594.93654739 -827.17578125 1593.8046875 C-847.47758828 1563.66390469 -865.74306311 1532.22999535 -882.890625 1500.203125 C-883.41269531 1499.22891602 -883.93476562 1498.25470703 -884.47265625 1497.25097656 C-893.22748933 1480.84365252 -901.23584167 1464.14934913 -908.890625 1447.203125 C-909.60581299 1445.6257959 -909.60581299 1445.6257959 -910.33544922 1444.01660156 C-934.89008817 1389.68183522 -954.44337432 1333.03727066 -968.890625 1275.203125 C-969.1729599 1274.07481262 -969.1729599 1274.07481262 -969.46099854 1272.92370605 C-980.52628206 1228.56315777 -988.58257402 1183.64712954 -993.640625 1138.203125 C-993.73563293 1137.37162933 -993.83064087 1136.54013367 -993.92852783 1135.68344116 C-997.89080248 1100.5550263 -999.4081869 1065.30597499 -999.28173828 1029.97363281 C-999.26464819 1025.16500959 -999.27485164 1020.35688516 -999.29206085 1015.54827881 C-999.39852722 980.33520233 -997.6410977 945.2003769 -993.640625 910.203125 C-993.53835602 909.28561462 -993.43608704 908.36810425 -993.33071899 907.42279053 C-985.93345701 841.41033602 -972.42373539 775.57240609 -951.62963867 712.44696045 C-950.848982 710.07668615 -950.07392909 707.70461592 -949.29882812 705.33251953 C-941.07725668 680.2552961 -931.96113245 655.59600697 -921.890625 631.203125 C-921.61881409 630.54411194 -921.34700317 629.88509888 -921.06695557 629.20611572 C-892.0151779 558.95322965 -854.66833149 492.09691279 -810.39697266 430.30664062 C-808.8418046 428.13495052 -807.29399683 425.95812262 -805.74609375 423.78125 C-794.51265771 408.04283582 -782.56990765 392.8943691 -770.31445312 377.94287109 C-769.03836196 376.38364173 -767.76875119 374.819114 -766.5 373.25390625 C-758.00081398 362.78278678 -749.22209819 352.57037066 -740.10546875 342.6328125 C-738.25055683 340.59797085 -736.43633702 338.53991253 -734.640625 336.453125 C-726.24999722 326.82162973 -717.39448764 317.60995994 -708.30541992 308.6394043 C-704.89443806 305.25795931 -701.71086154 301.75796917 -698.60766602 298.09008789 C-696.9019662 296.21558855 -695.12564148 294.61184139 -693.19140625 292.9765625 C-688.87909448 289.24953185 -684.87995589 285.27037251 -680.890625 281.203125 C-676.33467706 276.5581937 -671.71479221 272.09327296 -666.78369141 267.84667969 C-663.9802404 265.41273176 -661.28539154 262.86781717 -658.578125 260.328125 C-653.70476951 255.78963976 -648.68758523 251.50963703 -643.4921875 247.33984375 C-640.94075771 245.24430006 -638.50735727 243.06349345 -636.078125 240.828125 C-631.70825181 236.85050815 -627.15452964 233.19435906 -622.48950195 229.57519531 C-617.85669007 225.97846561 -613.30311 222.29415012 -608.765625 218.578125 C-602.26691826 213.27614261 -595.67071289 208.14242975 -588.890625 203.203125 C-587.90521729 202.48455322 -587.90521729 202.48455322 -586.89990234 201.75146484 C-571.10958127 190.25685569 -555.23002877 178.90681209 -538.890625 168.203125 C-538.2419043 167.77708984 -537.59318359 167.35105469 -536.92480469 166.91210938 C-509.04088786 148.62979383 -480.33341115 131.84775253 -450.890625 116.203125 C-449.89240723 115.66977539 -448.89418945 115.13642578 -447.86572266 114.58691406 C-431.48183795 105.85059123 -414.8366818 97.78791668 -397.890625 90.203125 C-396.85424896 89.73876038 -396.85424896 89.73876038 -395.79693604 89.26501465 C-317.77646074 54.36512507 -235.85698962 29.01262032 0 0 Z " fill="#0FB981" transform="translate(998.890625,-0.203125)"/>
<path d="M0 0 C3.04200093 1.36141042 5.14542559 2.89452845 7.49877435 5.24462402 C8.178859 5.91893295 8.85894365 6.59324189 9.55963692 7.28798443 C10.30024838 8.03242068 11.04085984 8.77685693 11.80391407 9.54385185 C12.99652486 10.73075413 12.99652486 10.73075413 14.21322879 11.94163424 C16.898542 14.61657228 19.57662701 17.2986338 22.25483704 19.98068237 C24.18843846 21.91093762 26.12353215 23.83969441 28.05855149 25.7685281 C32.27634586 29.97445968 36.49037267 34.18413714 40.70197296 38.39627075 C46.96457884 44.6596688 53.23283592 50.91738823 59.50216927 57.17405149 C72.00101973 69.64814425 84.49187135 82.13022923 96.98085433 94.61420006 C97.9512861 95.58424007 97.9512861 95.58424007 98.94132257 96.57387686 C99.91364857 97.54581245 99.91364857 97.54581245 100.90561752 98.5373831 C108.08245888 105.71114467 115.26101128 112.88319335 122.43962669 120.0551796 C144.10949709 141.70540239 165.77774534 163.35724533 187.43920612 185.01588249 C188.13224588 185.70882819 188.82528564 186.40177388 189.5393266 187.11571793 C192.34804741 189.92406025 195.15676098 192.73240982 197.96547279 195.54076115 C200.07960059 197.65461722 202.19373086 199.76847082 204.30786133 201.88232422 C205.35573972 202.93007058 205.35573972 202.93007058 206.42478737 203.99898353 C228.38911039 225.96039923 250.36301399 247.91219038 272.34399414 269.85693359 C297.02200089 294.49425851 321.69152148 319.14003963 346.34934682 343.79756367 C348.97601699 346.42413701 351.6027221 349.0506754 354.22945213 351.67718887 C354.87624798 352.32394061 355.52304383 352.97069234 356.18943955 353.63704261 C366.61948736 364.06596836 377.05767236 374.48671305 387.4987137 384.90463112 C397.98147469 395.36460566 408.45497147 405.83378481 418.91901646 416.31248318 C425.14343489 422.54508284 431.37476315 428.77058559 437.61602923 434.9863151 C441.77741726 439.13204099 445.9297594 443.28667886 450.07467807 447.44887067 C452.44114006 449.82467447 454.81269379 452.1947264 457.19274024 454.55696677 C459.74853707 457.09485842 462.28871594 459.64738519 464.82529163 462.20446587 C465.95376757 463.31409674 465.95376757 463.31409674 467.105041 464.4461444 C467.77260805 465.12546037 468.44017511 465.80477635 469.12797147 466.50467765 C469.71122395 467.08759771 470.29447643 467.67051776 470.89540322 468.27110206 C472 470 472 470 471.81890608 472.03559632 C470.46924417 475.27318471 468.1114095 477.71436505 465.8125 480.3125 C465.28438721 480.91916504 464.75627441 481.52583008 464.2121582 482.15087891 C458.97758268 488.11950187 453.54615736 493.90330791 448.1015625 499.6796875 C445.85572179 502.06862602 443.67797501 504.49397576 441.5625 507 C437.47572729 511.76615948 432.92869447 516.09699674 428.46899414 520.50952148 C425.35366876 523.60321534 422.30539739 526.67995055 419.5 530.0625 C415.65713488 534.61664093 411.21118108 538.54061832 406.83569336 542.57080078 C402.64686666 546.4362159 398.56416815 550.37898813 394.5625 554.4375 C390.87009112 558.1733277 387.1145474 561.76316463 383.11328125 565.16796875 C380.94323672 567.04920883 378.83473649 568.98987213 376.72998047 570.94360352 C371.51796317 575.78026977 366.17948586 580.36860909 360.63671875 584.828125 C358.07579972 586.93756349 355.62876545 589.12887648 353.1875 591.375 C348.81762681 595.35261685 344.26390464 599.00876594 339.59887695 602.62792969 C334.96606507 606.22465939 330.412485 609.90897488 325.875 613.625 C319.37629326 618.92698239 312.78008789 624.06069525 306 629 C305.34306152 629.47904785 304.68612305 629.9580957 304.00927734 630.45166016 C298.68941337 634.32427027 293.34920106 638.16804349 288 642 C287.29713867 642.5043457 286.59427734 643.00869141 285.87011719 643.52832031 C247.07928271 671.31466274 206.19587375 696.22342532 163.7578125 718.0234375 C160.41760313 719.74061025 157.09391359 721.47616725 153.8046875 723.2890625 C140.25613878 730.74231922 126.08521322 736.91322792 111.97753906 743.21777344 C108.53727783 744.75622826 105.10735891 746.31648133 101.6796875 747.8828125 C17.81730799 785.91342646 -72.90885693 809.92092231 -282.92578125 832.203125 C-284.79146346 832.21014598 -286.65714542 832.21723281 -288.52282715 832.22438049 C-294.45272161 832.24378444 -300.382577 832.24881448 -306.3125 832.25 C-307.8271969 832.25066278 -307.8271969 832.25066278 -309.37249374 832.25133896 C-338.4748442 832.2580199 -367.46348787 832.1733823 -396.44842529 829.25646973 C-399.14999859 828.984923 -401.85248552 828.72404793 -404.55517578 828.46386719 C-493.33046975 819.81616496 -580.3930834 800.28740547 -722.52734375 745.73828125 C-723.29747803 745.40450974 -724.0676123 745.07073822 -724.86108398 744.72685242 C-728.97100537 742.93211304 -733.00711699 741.04675207 -737 739 C-735.4136299 735.14998175 -732.96450905 732.71511657 -730.0387615 729.7903645 C-729.52580124 729.27484808 -729.01284099 728.75933165 -728.48433648 728.22819351 C-726.75265925 726.49035827 -725.0139045 724.75978034 -723.27513695 723.02904129 C-722.01888985 721.77131564 -720.76308187 720.51315126 -719.50767529 719.25458664 C-716.03466372 715.77541288 -712.55540294 712.30254643 -709.07515037 708.83061798 C-705.29837833 705.06069344 -701.52739143 701.28498985 -697.75568545 697.50999808 C-691.13729778 690.88745508 -684.51518703 684.2686531 -677.89066124 677.65225029 C-668.04017282 667.81380708 -658.19539833 657.9696613 -648.35180996 648.12431503 C-631.79503832 631.56491237 -615.2336136 615.01017139 -598.66953659 598.45807648 C-582.26287868 582.06325847 -565.85828773 565.66637679 -549.45647049 549.266716 C-548.94732625 548.75764059 -548.43818201 548.24856517 -547.91360915 547.72406322 C-543.26344684 543.07452729 -538.61331002 538.42496586 -533.96320381 533.77537383 C-522.40291761 522.21636651 -510.84231153 510.65767915 -499.28148842 499.09920883 C-498.75500071 498.57282775 -498.22851299 498.04644668 -497.68607111 497.50411466 C-472.0676848 471.89097296 -446.445614 446.28151793 -420.82324219 420.67236328 C-411.93032556 411.78402992 -403.03742521 402.89568028 -394.14459229 394.00726318 C-393.59306723 393.45601202 -393.04154217 392.90476086 -392.47330423 392.33680512 C-366.84026427 366.71645042 -341.20984018 341.09347948 -315.58009168 315.46983217 C-313.91644287 313.80657949 -312.25279293 312.14332794 -310.58914277 310.48007661 C-299.56416292 299.4577363 -288.53922818 288.43535087 -277.51432366 277.41293522 C-255.57699796 255.48056269 -233.63940719 233.54845529 -211.70163435 211.61653001 C-210.6568711 210.57204524 -209.61210804 209.52756029 -208.56734517 208.48307515 C-149.83995685 149.77130262 -91.10762744 91.06447354 0 0 Z " fill="#10B881" transform="translate(1332,1216)"/>
</svg>
