<?xml version="1.0" standalone="no"?><!DOCTYPE svg PUBLIC "-//W3C//DTD SVG 1.1//EN" "http://www.w3.org/Graphics/SVG/1.1/DTD/svg11.dtd"><svg class="icon" width="200px" height="200.00px" viewBox="0 0 1024 1024" version="1.1" xmlns="http://www.w3.org/2000/svg"><path d="M512 56.888889C260.608 56.888889 56.888889 260.664889 56.888889 512a455.111111 455.111111 0 1 0 910.222222 0 455.111111 455.111111 0 0 0-455.111111-455.111111z" fill="#F76746" /><path d="M619.406222 206.449778a61.383111 61.383111 0 1 1 106.211556 61.44 61.383111 61.383111 0 0 1-106.211556-61.44z m-415.459555 362.609778a61.383111 61.383111 0 1 1 0-122.766223 61.383111 61.383111 0 0 1 0 122.766223z m54.328889 5.461333c19.399111-15.815111 31.744-39.879111 31.744-66.844445s-12.344889-50.972444-31.744-66.787555a267.207111 267.207111 0 0 1 110.193777-154.908445l44.885334 75.093334a178.915556 178.915556 0 0 0-76.174223 146.602666c0 60.643556 30.094222 114.176 76.174223 146.602667l-44.885334 75.150222a267.377778 267.377778 0 0 1-110.193777-154.908444z m444.928 256.853333a61.269333 61.269333 0 1 1-61.269334-106.154666 61.269333 61.269333 0 0 1 61.269334 106.154666z m-0.170667-133.688889a86.016 86.016 0 0 0-115.484445 66.787556A265.500444 265.500444 0 0 1 398.222222 746.552889l42.609778-76.344889a179.2 179.2 0 0 0 253.952-146.659556l87.381333 1.308445a265.443556 265.443556 0 0 1-79.132444 172.828444z m-8.248889-205.880889a179.2 179.2 0 0 0-253.952-146.602666L398.222222 268.8a265.272889 265.272889 0 0 1 189.326222-17.863111 85.902222 85.902222 0 0 0 115.484445 66.730667 265.614222 265.614222 0 0 1 79.132444 172.828444l-87.381333 1.308444z" fill="#FFFFFF" /></svg>