<?xml version="1.0" encoding="UTF-8"?>
<svg width="24px" height="24px" viewBox="0 0 24 24" version="1.1" xmlns="http://www.w3.org/2000/svg" xmlns:xlink="http://www.w3.org/1999/xlink">
    <title>unlock</title>
    <g stroke="none" stroke-width="1" fill="none" fill-rule="evenodd">
        <g id="3.-Icon" transform="translate(-78.000000, -729.000000)" fill="#515151" fill-rule="nonzero">
            <g id="unlock" transform="translate(78.000000, 729.000000)">
                <path d="M10.1538281,7.308 L10.1538281,8.30770312 L12.9230859,8.30770312 L12.9230859,7.308 C12.9230859,2.868 10.3864453,0 6.46153125,0 C2.53661719,0 0,2.868 0,7.308 L0,10.1538516 L2.76923437,10.1538516 L2.76923437,7.308 C2.76923437,5.94276562 3.12923438,2.76923437 6.46153125,2.76923437 C9.67385156,2.76923437 10.1538516,5.61323438 10.1538516,7.308 L10.1538281,7.308 Z"></path>
                <path d="M21.2307656,9.23076563 L8.30770312,9.23076563 C6.77908594,9.23076563 5.53846875,10.4713828 5.53846875,12 L5.53846875,21.2307656 C5.53846875,22.7593828 6.77908594,24 8.30770312,24 L21.2307656,24 C22.7593828,24 24,22.7593828 24,21.2307656 L24,12 C24,10.4714063 22.7593828,9.23076563 21.2307656,9.23076563 Z M15.6922969,17.2827656 L15.6922969,19.3846172 C15.6922969,19.8932109 15.2778516,20.3077031 14.7692344,20.3077031 C14.2606172,20.3077031 13.8461484,19.8932344 13.8461484,19.3846172 L13.8461484,17.2827656 C13.296,16.9624687 12.9230859,16.3744688 12.9230859,15.6922969 C12.9230859,14.6732344 13.7501484,13.8461484 14.7692344,13.8461484 C15.7883203,13.8461484 16.6154062,14.6732344 16.6154062,15.6923203 C16.6154062,16.3735313 16.2424688,16.9624687 15.6922969,17.2827891 L15.6922969,17.2827656 Z"></path>
            </g>
        </g>
    </g>
</svg>