<?xml version="1.0" standalone="no"?><!DOCTYPE svg PUBLIC "-//W3C//DTD SVG 1.1//EN" "http://www.w3.org/Graphics/SVG/1.1/DTD/svg11.dtd"><svg t="1594361694254" class="icon" viewBox="0 0 1024 1024" version="1.1" xmlns="http://www.w3.org/2000/svg" p-id="733" xmlns:xlink="http://www.w3.org/1999/xlink" width="200" height="200"><defs><style type="text/css"></style></defs><path d="M658.7 873.6h36.7v-36.7h-36.7v36.7z m73.5 0h36.7v-36.7h-36.7v36.7z m73.4 0h36.7v-36.7h-36.7v36.7z m-661-73.5h771.2v110.2H144.6V800.1zM107.9 947h844.6V763.4H107.9V947z" fill="" p-id="734"></path><path d="M181.3 65.7l-73.4 697.7h38.3l71.8-661h624.3l71.9 661h38.3L879.1 65.7z" fill="" p-id="735"></path><path d="M288.6 503c0-56 45.4-101.5 101.5-101.5h1.4c5.7-34.9 26.1-60.1 31.6-66.4 26.4-31.8 66.2-52 110.7-52 65.1 0 120.1 43.3 137.8 102.7 6.9 11.2 6.9 62 6.9 66.2v0.6c2.5-0.2 4.9-0.4 7.5-0.4 42 0 76.1 44.1 76.1 76.1 0 32-31 42.3-42.2 42.3-1.6 0-4.6 0-8.8-0.2v0.2H322.4c-7 0-33.8-11.7-33.8-67.6m77-133.1c-63 11.6-110.8 66.8-110.8 133.1 0 74.7 38.8 101.5 50.8 101.5h405.6v0.4c21.6 0 84.8-15.8 84.8-76.5 0-52-36.1-95.6-84.7-107-2.8-95.6-81.2-172.1-177.5-172.1-78.1 0-144.5 50.5-168.2 120.6" fill="" p-id="736"></path><path d="M407.7 401.6H427c15.6-43.2 55.4-74.8 103.1-78.5v-18.4c-57.8 3.8-106 43.4-122.4 96.9" fill="" p-id="737"></path></svg>