<svg viewBox="0 0 16 16" fill="none" xmlns="http://www.w3.org/2000/svg">
<path d="M14 13C14 13.5523 13.5523 14 13 14H10C9.44772 14 9 13.5523 9 13V10C9 9.44772 9.44772 9 10 9L13 9C13.5523 9 14 9.44772 14 10V13Z" stroke="currentColor" stroke-width="1.2"/>
<path d="M7 6C7 6.55229 6.55229 7 6 7L3 7C2.44772 7 2 6.55228 2 6L2 3C2 2.44772 2.44772 2 3 2L6 2C6.55229 2 7 2.44772 7 3L7 6Z" stroke="currentColor" stroke-width="1.2"/>
<path d="M2 11.5C2 10.1193 3.11929 9 4.5 9C5.88071 9 7 10.1193 7 11.5C7 12.8807 5.88071 14 4.5 14C3.11929 14 2 12.8807 2 11.5Z" stroke="currentColor" stroke-width="1.2"/>
<path d="M10.708 2.5C11.06 1.83333 11.94 1.83333 12.292 2.5L13.8761 5.5C14.2281 6.16667 13.7881 7 13.0841 7H9.91593C9.2119 7 8.77188 6.16667 9.12389 5.5L10.708 2.5Z" stroke="currentColor" stroke-width="1.2"/>
</svg>