<svg viewBox="0 0 16 16" fill="none" xmlns="http://www.w3.org/2000/svg">
<path d="M2.65018 5.02549L2.05018 5.02548C2.05018 5.18461 2.1134 5.33723 2.22592 5.44975C2.33844 5.56227 2.49105 5.62549 2.65018 5.62549V5.02549ZM5.67567 5.62548C6.00704 5.62548 6.27567 5.35686 6.27567 5.02548C6.27567 4.69411 6.00704 4.42548 5.67567 4.42548L5.67567 5.62548ZM3.25019 2C3.25019 1.66863 2.98156 1.4 2.65019 1.4C2.31881 1.4 2.05019 1.66863 2.05019 2L3.25019 2ZM2.36879 4.39957C2.1878 4.67715 2.26611 5.04889 2.54369 5.22988C2.82127 5.41086 3.19301 5.33256 3.374 5.05498L2.36879 4.39957ZM2.59013 8.98251C2.53026 8.65659 2.21752 8.44092 1.8916 8.50078C1.56568 8.56065 1.35001 8.87339 1.40987 9.19931L2.59013 8.98251ZM2.65018 5.62549L5.67567 5.62548L5.67567 4.42548L2.65018 4.42549L2.65018 5.62549ZM3.25018 5.02549L3.25019 2L2.05019 2L2.05018 5.02548L3.25018 5.02549ZM13.3011 8C13.3011 10.9823 10.8834 13.4 7.90107 13.4V14.6C11.5461 14.6 14.5011 11.6451 14.5011 8H13.3011ZM7.90107 2.6C10.8834 2.6 13.3011 5.01766 13.3011 8H14.5011C14.5011 4.35492 11.5461 1.4 7.90107 1.4V2.6ZM3.374 5.05498C4.3385 3.5757 6.00601 2.6 7.90107 2.6V1.4C5.58353 1.4 3.54541 2.59498 2.36879 4.39957L3.374 5.05498ZM7.90107 13.4C5.25466 13.4 3.05177 11.4957 2.59013 8.98251L1.40987 9.19931C1.97425 12.2718 4.66514 14.6 7.90107 14.6V13.4Z" fill="currentColor"/>
</svg>