<svg viewBox="0 0 16 16" fill="none" xmlns="http://www.w3.org/2000/svg">
<path d="M4.55189 9.42589C4.34576 9.42589 4.16142 9.55424 4.0899 9.74757C4.01838 9.94091 4.07481 10.1583 4.23132 10.2925L7.67941 12.3814C7.86388 12.5395 8.13609 12.5395 8.32056 12.3814L11.7687 10.2925C11.9252 10.1583 11.9816 9.94091 11.9101 9.74757C11.8386 9.55424 11.6543 9.42589 11.4481 9.42589H4.55189Z" fill="currentColor"/>
<path d="M11.4481 6.57411C11.6543 6.57411 11.8386 6.44576 11.9101 6.25243C11.9816 6.0591 11.9252 5.84168 11.7687 5.70753L8.3206 3.61859C8.13613 3.46047 7.86393 3.46047 7.67946 3.61859L4.23132 5.70752C4.07481 5.84168 4.01838 6.05909 4.0899 6.25243C4.16142 6.44576 4.34576 6.57411 4.55189 6.57411L11.4481 6.57411Z" fill="currentColor"/>
</svg>