<svg viewBox="0 0 16 16" fill="none" xmlns="http://www.w3.org/2000/svg">
<path d="M6.57411 4.55188C6.57411 4.34574 6.44576 4.16141 6.25243 4.08989C6.0591 4.01837 5.84168 4.0748 5.70753 4.23131L3.61859 7.6794C3.46047 7.86387 3.46047 8.13607 3.61859 8.32054L5.70753 11.7687C5.84168 11.9252 6.0591 11.9816 6.25243 11.9101C6.44576 11.8386 6.57411 11.6542 6.57411 11.4481L6.57411 4.55188Z" fill="currentColor"/>
<path d="M9.42589 11.4481C9.42589 11.6542 9.55424 11.8386 9.74757 11.9101C9.94091 11.9816 10.1583 11.9252 10.2925 11.7687L12.3814 8.32059C12.5395 8.13612 12.5395 7.86391 12.3814 7.67944L10.2925 4.2313C10.1583 4.07479 9.94091 4.01837 9.74757 4.08989C9.55424 4.1614 9.42589 4.34574 9.42589 4.55188L9.42589 11.4481Z" fill="currentColor"/>
</svg>