<svg viewBox="0 0 16 16" fill="none" xmlns="http://www.w3.org/2000/svg">
<path fill-rule="evenodd" clip-rule="evenodd" d="M3.6 1.60001C2.49543 1.60001 1.6 2.49544 1.6 3.60001V12.4C1.6 13.5046 2.49543 14.4 3.6 14.4H12.4C13.5046 14.4 14.4 13.5046 14.4 12.4V3.60001C14.4 2.49544 13.5046 1.60001 12.4 1.60001H3.6ZM11.3957 6.42442C11.6754 6.12602 11.6603 5.65732 11.3619 5.37757C11.0635 5.09781 10.5948 5.11293 10.3151 5.41134L7.15225 8.785L5.47069 6.99134C5.19093 6.69293 4.72224 6.67781 4.42383 6.95757C4.12543 7.23732 4.11031 7.70602 4.39006 8.00442L6.61194 10.3744C6.75195 10.5238 6.94754 10.6085 7.15225 10.6085C7.35697 10.6085 7.55255 10.5238 7.69256 10.3744L11.3957 6.42442Z" fill="currentColor"/>
</svg>