<svg viewBox="0 0 16 16" fill="none" xmlns="http://www.w3.org/2000/svg">
<path fill-rule="evenodd" clip-rule="evenodd" d="M8 1.09999C4.13401 1.09999 1 4.18923 1 7.99999C1 11.8108 4.13401 14.9 8 14.9C11.866 14.9 15 11.8108 15 7.99999C15 4.18923 11.866 1.09999 8 1.09999ZM11.4464 6.51296C11.7338 6.21077 11.7183 5.73615 11.4117 5.45285C11.1051 5.16955 10.6236 5.18486 10.3362 5.48705L7.08696 8.90342L5.35943 7.08705C5.07203 6.78486 4.59052 6.76955 4.28396 7.05285C3.9774 7.33615 3.96186 7.81077 4.24927 8.11296L6.53188 10.513C6.67572 10.6642 6.87665 10.75 7.08696 10.75C7.29727 10.75 7.4982 10.6642 7.64204 10.513L11.4464 6.51296Z" fill="currentColor"/>
</svg>