<svg viewBox="0 0 16 16" fill="none" xmlns="http://www.w3.org/2000/svg">
<path fill-rule="evenodd" clip-rule="evenodd" d="M8 1.10001C4.13401 1.10001 1 4.18924 1 8.00001C1 11.8108 4.13401 14.9 8 14.9C11.866 14.9 15 11.8108 15 8.00001C15 4.18924 11.866 1.10001 8 1.10001ZM10.9243 5.92428C11.1586 5.68996 11.1586 5.31006 10.9243 5.07575C10.6899 4.84143 10.31 4.84143 10.0757 5.07575L8 7.15148L5.92426 5.07575C5.68995 4.84143 5.31005 4.84143 5.07573 5.07575C4.84142 5.31006 4.84142 5.68996 5.07573 5.92428L7.15147 8.00001L5.07573 10.0757C4.84142 10.3101 4.84142 10.69 5.07573 10.9243C5.31005 11.1586 5.68995 11.1586 5.92426 10.9243L8 8.84854L10.0757 10.9243C10.31 11.1586 10.6899 11.1586 10.9243 10.9243C11.1586 10.69 11.1586 10.3101 10.9243 10.0757L8.84852 8.00001L10.9243 5.92428Z" fill="currentColor"/>
</svg>