<svg viewBox="0 0 16 16" fill="none" xmlns="http://www.w3.org/2000/svg">
<path d="M2.66666 4.11765H13.3333M6.66666 11.1765V6.94118M9.33333 11.1765V6.94118M10.6667 14H5.33333C4.59695 14 4 13.3679 4 12.5882V4.82353C4 4.43368 4.29847 4.11765 4.66666 4.11765H11.3333C11.7015 4.11765 12 4.43368 12 4.82353V12.5882C12 13.3679 11.403 14 10.6667 14ZM6.66666 4.11765H9.33333C9.70152 4.11765 10 3.80161 10 3.41176V2.70588C10 2.31603 9.70152 2 9.33333 2H6.66666C6.29847 2 6 2.31603 6 2.70588V3.41176C6 3.80161 6.29847 4.11765 6.66666 4.11765Z" stroke="currentColor" stroke-width="1.2" stroke-linecap="round" stroke-linejoin="round"/>
</svg>