<svg viewBox="0 0 16 16" fill="none" xmlns="http://www.w3.org/2000/svg">
<path d="M5.99987 14.4L5.99987 12C5.99987 11.5582 5.6417 11.2 5.19987 11.2L2.79987 11.2M3.99987 13.2C4.35592 13.5186 4.72539 13.8964 4.95864 14.1418C5.11385 14.3051 5.32829 14.4 5.55358 14.4L11.6001 14.4C12.4837 14.4 13.2001 13.6837 13.2001 12.8L13.2001 3.20004C13.2001 2.31638 12.4838 1.60003 11.6001 1.60003L4.4001 1.6C3.51645 1.6 2.80011 2.31632 2.80009 3.19996L2.79988 11.6814C2.79987 11.886 2.87791 12.0826 3.01988 12.2299C3.28242 12.5022 3.72082 12.9503 3.99987 13.2Z" stroke="currentColor" stroke-width="1.2" stroke-linecap="round" stroke-linejoin="round"/>
</svg>