<svg viewBox="0 0 16 16" fill="none" xmlns="http://www.w3.org/2000/svg">
<path fill-rule="evenodd" clip-rule="evenodd" d="M12 14.6C13.436 14.6 14.6 13.4359 14.6 12L14.6 4C14.6 2.56405 13.436 1.39999 12 1.39999H4.00001C2.56407 1.39999 1.40001 2.56405 1.40001 3.99999V12C1.40001 13.4359 2.56407 14.6 4.00001 14.6L12 14.6ZM7.10001 4.84998C7.10001 4.35293 7.50295 3.94998 8.00001 3.94998C8.49706 3.94998 8.90001 4.35293 8.90001 4.84998C8.90001 5.34704 8.49706 5.74998 8.00001 5.74998C7.50295 5.74998 7.10001 5.34704 7.10001 4.84998ZM8.00001 6.84998C8.33138 6.84998 8.60001 7.1186 8.60001 7.44998L8.60001 11.45C8.60001 11.7813 8.33138 12.05 8.00001 12.05C7.66863 12.05 7.40001 11.7813 7.40001 11.45L7.40001 7.44998C7.40001 7.1186 7.66864 6.84998 8.00001 6.84998Z" fill="currentColor"/>
</svg>