<svg viewBox="0 0 16 16" fill="none" xmlns="http://www.w3.org/2000/svg">
<path d="M8 7.45L8 11.45M12 2L4 2C2.89543 2 2 2.89543 2 4L2 12C2 13.1046 2.89543 14 4 14L12 14C13.1046 14 14 13.1046 14 12L14 4C14 2.89543 13.1046 2 12 2ZM8.30001 4.84999C8.30001 5.01567 8.1657 5.14999 8.00001 5.14999C7.83433 5.14999 7.70001 5.01567 7.70001 4.84999C7.70001 4.6843 7.83433 4.54999 8.00001 4.54999C8.1657 4.54999 8.30001 4.6843 8.30001 4.84999Z" stroke="currentColor" stroke-width="1.2" stroke-linecap="round"/>
</svg>