<svg viewBox="0 0 16 16" fill="none" xmlns="http://www.w3.org/2000/svg">
<path fill-rule="evenodd" clip-rule="evenodd" d="M8.1 1C4.17878 1 1 4.17878 1 8.1C1 12.0212 4.17878 15.2 8.1 15.2C12.0212 15.2 15.2 12.0212 15.2 8.1C15.2 4.17878 12.0212 1 8.1 1ZM7.2 5.10001C7.2 4.60296 7.60294 4.20001 8.1 4.20001C8.59705 4.20001 9 4.60296 9 5.10001C9 5.59707 8.59705 6.00001 8.1 6.00001C7.60294 6.00001 7.2 5.59707 7.2 5.10001ZM8.7 7.70001C8.7 7.36864 8.43137 7.10001 8.1 7.10001C7.76863 7.10001 7.5 7.36864 7.5 7.70001V11.7C7.5 12.0314 7.76863 12.3 8.1 12.3C8.43137 12.3 8.7 12.0314 8.7 11.7V7.70001Z" fill="currentColor"/>
</svg>