<svg viewBox="0 0 16 16" fill="none" xmlns="http://www.w3.org/2000/svg">
<path d="M12.875 8.8125V9.35417C12.875 9.95249 12.3294 10.4375 11.6562 10.4375C10.9831 10.4375 10.4375 9.95249 10.4375 9.35417V8.8125H7.35C7.26025 8.8125 7.1875 8.72521 7.1875 8.6175V5.5625H7.72917C8.32748 5.5625 8.8125 5.01687 8.8125 4.34375C8.8125 3.67063 8.32748 3.125 7.72917 3.125H7.1875M12.875 8.8125V13.2812C12.875 13.9543 12.3293 14.5 11.6562 14.5H2.71875C2.04565 14.5 1.5 13.9543 1.5 13.2812V8.8125M12.875 8.8125V8.6175V7.1875H13.4167C14.015 7.1875 14.5 6.64187 14.5 5.96875C14.5 5.29563 14.015 4.75 13.4167 4.75H12.875V3.32V3.125V2.58333C12.875 1.98502 12.3294 1.5 11.6562 1.5C10.9831 1.5 10.4375 1.98502 10.4375 2.58333V3.125L7.3825 3.125H7.1875M7.1875 3.125H2.71875C2.04565 3.125 1.5 3.67065 1.5 4.34375V8.8125M7.1875 14.5H6.64583C6.04752 14.5 5.5625 13.9544 5.5625 13.2812C5.5625 12.6081 6.04752 12.0625 6.64583 12.0625H7.1875V9.0075C7.1875 8.89979 7.11475 8.8125 7.025 8.8125H3.9375V8.27083C3.9375 7.67252 3.39187 7.1875 2.71875 7.1875C2.04563 7.1875 1.5 7.67252 1.5 8.27083V8.8125" stroke="currentColor" stroke-width="1.2" stroke-linecap="round" stroke-linejoin="round"/>
</svg>