<svg viewBox="0 0 16 16" fill="none" xmlns="http://www.w3.org/2000/svg">
<path d="M8 1.5C4.41015 1.5 1.5 4.41015 1.5 8C1.5 11.5899 4.41015 14.5 8 14.5C11.5899 14.5 14.5 11.5899 14.5 8C14.5 4.41015 11.5899 1.5 8 1.5ZM8 1.5V7.95321M8 7.95321L13.0556 4.02778M8 7.95321L14.3344 9.46419M8 7.95321L10.8719 13.7778M8 7.95321L5.12807 13.7778M8 7.95321L1.86111 9.44444M8 7.95321L2.94444 4.02778M11.6111 8C11.6111 9.99436 9.99436 11.6111 8 11.6111C6.00564 11.6111 4.38889 9.99436 4.38889 8C4.38889 6.00564 6.00564 4.38889 8 4.38889C9.99436 4.38889 11.6111 6.00564 11.6111 8Z" stroke="currentColor" stroke-width="1.2" stroke-linecap="round"/>
</svg>