<svg viewBox="0 0 16 16" fill="none" xmlns="http://www.w3.org/2000/svg">
<path d="M9.06066 11.182L7.64645 12.5962C7.08384 13.1588 6.32078 13.4749 5.52513 13.4749C4.72948 13.4749 3.96642 13.1588 3.40381 12.5962C2.8412 12.0336 2.52513 11.2705 2.52513 10.4749C2.52513 9.67924 2.8412 8.91618 3.40381 8.35357L4.81802 6.93936M6.93934 4.81804L8.35355 3.40383C8.91616 2.84122 9.67922 2.52515 10.4749 2.52515C11.2705 2.52515 12.0336 2.84122 12.5962 3.40383C13.1588 3.96644 13.4749 4.7295 13.4749 5.52515C13.4749 6.3208 13.1588 7.08386 12.5962 7.64647L11.182 9.06068M10 6.00002L6 10" stroke="currentColor" stroke-width="1.2" stroke-linecap="round" stroke-linejoin="round"/>
</svg>