<svg viewBox="0 0 16 16" fill="none" xmlns="http://www.w3.org/2000/svg">
<g clip-path="url(#clip0_2198_2566)">
<path d="M14 2.29999C13.7 1.99999 13.3 1.79999 12.9 1.79999H3.1C2.7 1.79999 2.3 1.99999 2 2.29999C1.7 2.49999 1.5 2.89999 1.5 3.29999V9.89999C1.5 10.3 1.7 10.7 2 11C2.3 11.3 2.7 11.5 3.1 11.5H6.3V12.9H4.1C3.9 12.9 3.7 13 3.6 13.1C3.5 13.2 3.3 13.4 3.3 13.5C3.3 13.6 3.4 13.8 3.6 13.9C3.7 13.9 3.9 14 4.1 14H11.9C12.1 14 12.3 13.9 12.4 13.8C12.5 13.7 12.7 13.5 12.7 13.4C12.7 13.3 12.6 13.1 12.4 13C12.3 12.9 12.1 12.8 11.9 12.8H9.8V11.4H12.9C13.3 11.4 13.7 11.2 14 10.9C14.3 10.6 14.5 10.2 14.5 9.79999V3.29999C14.5 2.89999 14.3 2.49999 14 2.29999ZM7.5 11.4H8.6V12.8H7.5V11.4ZM13.1 9.89999C13.1 9.99999 13.1 9.99999 13 9.99999C12.9 9.99999 12.9 10.1 12.9 10.1H3.1C3 10.1 3 10.1 3 9.99999L2.9 9.89999V3.29999C2.9 3.19999 2.9 3.19999 3 3.19999L3.1 3.09999H13C13.1 3.09999 13.1 3.09999 13.1 3.19999L13.2 3.29999V9.89999H13.1Z" fill="currentColor"/>
</g>
<defs>
<clipPath id="clip0_2198_2566">
<rect width="16" height="16" fill="currentColor"/>
</clipPath>
</defs>
</svg>