<svg viewBox="0 0 16 16" fill="none" xmlns="http://www.w3.org/2000/svg">
<path d="M13.9 8C13.9 11.2585 11.2585 13.9 8 13.9V15.1C11.9212 15.1 15.1 11.9212 15.1 8H13.9ZM8 13.9C4.74152 13.9 2.1 11.2585 2.1 8H0.9C0.9 11.9212 4.07878 15.1 8 15.1V13.9ZM2.1 8C2.1 4.74152 4.74152 2.1 8 2.1V0.9C4.07878 0.9 0.9 4.07878 0.9 8H2.1ZM8 2.1C11.2585 2.1 13.9 4.74152 13.9 8H15.1C15.1 4.07878 11.9212 0.9 8 0.9V2.1ZM8 13.9C7.80588 13.9 7.57365 13.8126 7.31012 13.5578C7.04371 13.3003 6.77638 12.8986 6.53886 12.3557C6.06461 11.2717 5.75625 9.73219 5.75625 8H4.55625C4.55625 9.85766 4.88449 11.5682 5.43947 12.8367C5.71657 13.4701 6.06202 14.0203 6.47605 14.4206C6.89296 14.8236 7.40884 15.1 8 15.1V13.9ZM5.75625 8C5.75625 6.26781 6.06461 4.7283 6.53886 3.6443C6.77638 3.1014 7.04371 2.69974 7.31012 2.44217C7.57365 2.1874 7.80588 2.1 8 2.1V0.9C7.40884 0.9 6.89296 1.17637 6.47605 1.57943C6.06202 1.9797 5.71657 2.52994 5.43947 3.16331C4.88449 4.43184 4.55625 6.14234 4.55625 8H5.75625ZM8 15.1C8.59116 15.1 9.10704 14.8236 9.52395 14.4206C9.93798 14.0203 10.2834 13.4701 10.5605 12.8367C11.1155 11.5682 11.4438 9.85766 11.4438 8H10.2438C10.2438 9.73219 9.93539 11.2717 9.46114 12.3557C9.22362 12.8986 8.95629 13.3003 8.68988 13.5578C8.42635 13.8126 8.19412 13.9 8 13.9V15.1ZM11.4438 8C11.4438 6.14234 11.1155 4.43184 10.5605 3.16331C10.2834 2.52994 9.93798 1.9797 9.52395 1.57943C9.10704 1.17637 8.59116 0.9 8 0.9V2.1C8.19412 2.1 8.42635 2.1874 8.68988 2.44217C8.95629 2.69974 9.22362 3.1014 9.46114 3.6443C9.93539 4.7283 10.2438 6.26781 10.2438 8H11.4438ZM1.5 8.6H14.5V7.4H1.5V8.6Z" fill="currentColor"/>
</svg>