<svg viewBox="0 0 16 16" fill="none" xmlns="http://www.w3.org/2000/svg">
<path d="M13.6348 11.2553L13.2211 10.8207L13.6348 11.2553ZM13.6348 7.27779L14.0486 6.84325L14.0486 6.84325L13.6348 7.27779ZM2.36518 7.27779L1.95145 6.84325H1.95145L2.36518 7.27779ZM12.6326 6.6512L12.8441 6.0897L12.8441 6.0897L12.6326 6.6512ZM3.65287 6.34147L3.07091 6.19541L3.65287 6.34147ZM3.3667 6.65146L3.57831 7.21291H3.57831L3.3667 6.65146ZM12.3463 6.34119L12.9283 6.19509V6.19509L12.3463 6.34119ZM11.853 4.17935C11.6323 3.93221 11.253 3.91081 11.0058 4.13155C10.7587 4.35229 10.7373 4.73159 10.958 4.97873L11.853 4.17935ZM4.00867 11.4391C3.68261 11.38 3.37039 11.5964 3.31131 11.9225C3.25222 12.2486 3.46865 12.5608 3.79471 12.6199L4.00867 11.4391ZM9.46527 3.95034C9.77429 4.06997 10.1218 3.91643 10.2414 3.60741C10.361 3.29839 10.2075 2.9509 9.89849 2.83127L9.46527 3.95034ZM1.63894 11.3498C1.84636 11.6083 2.224 11.6496 2.48243 11.4422C2.74085 11.2348 2.7822 10.8571 2.57477 10.5987L1.63894 11.3498ZM13.9243 2.85685C14.1586 2.62254 14.1586 2.24264 13.9243 2.00832C13.6899 1.77401 13.3101 1.77401 13.0757 2.00832L13.9243 2.85685ZM1.94092 13.1431C1.7066 13.3775 1.7066 13.7574 1.94092 13.9917C2.17523 14.226 2.55513 14.226 2.78945 13.9917L1.94092 13.1431ZM11.5461 12.679C12.4794 12.679 13.3801 12.3263 14.0486 11.6898L13.2211 10.8207C12.7816 11.2391 12.1796 11.479 11.5461 11.479V12.679ZM14.0486 11.6898C14.718 11.0524 15.1 10.1813 15.1 9.26653H13.9C13.9 9.84356 13.6595 10.4033 13.2211 10.8207L14.0486 11.6898ZM15.1 9.26653C15.1 8.35172 14.718 7.4807 14.0486 6.84325L13.2211 7.71233C13.6595 8.12978 13.9 8.6895 13.9 9.26653H15.1ZM2.1 9.26653C2.1 8.6895 2.34048 8.12978 2.77892 7.71233L1.95145 6.84325C1.28195 7.4807 0.9 8.35172 0.9 9.26653H2.1ZM14.0486 6.84325C13.7003 6.51171 13.2892 6.25735 12.8441 6.0897L12.4211 7.21269C12.72 7.32526 12.9926 7.49475 13.2211 7.71233L14.0486 6.84325ZM4.23482 6.48753C4.63457 4.89477 6.15338 3.67904 7.99963 3.67904V2.47904C5.62749 2.47904 3.61045 4.04572 3.07091 6.19541L4.23482 6.48753ZM2.77892 7.71233C3.00729 7.49489 3.27965 7.32547 3.57831 7.21291L3.15508 6.09002C2.71026 6.25767 2.29944 6.51192 1.95145 6.84325L2.77892 7.71233ZM3.07091 6.19541C3.0877 6.12853 3.13069 6.09921 3.15508 6.09002L3.57831 7.21291C3.88682 7.09663 4.14701 6.83739 4.23482 6.48753L3.07091 6.19541ZM11.7644 6.48729C11.8522 6.83721 12.1125 7.09647 12.4211 7.21269L12.8441 6.0897C12.8685 6.09888 12.9115 6.12819 12.9283 6.19509L11.7644 6.48729ZM4.45392 12.679H11.5461V11.479H4.45392V12.679ZM10.958 4.97873C11.3435 5.41036 11.6232 5.92496 11.7644 6.48729L12.9283 6.19509C12.7378 5.43627 12.3621 4.74938 11.853 4.17935L10.958 4.97873ZM4.45392 11.479C4.30332 11.479 4.1543 11.4655 4.00867 11.4391L3.79471 12.6199C4.01062 12.659 4.23124 12.679 4.45392 12.679V11.479ZM7.99963 3.67904C8.51988 3.67904 9.0144 3.77579 9.46527 3.95034L9.89849 2.83127C9.31085 2.60377 8.66954 2.47904 7.99963 2.47904V3.67904ZM2.57477 10.5987C2.2666 10.2147 2.1 9.74703 2.1 9.26653H0.9C0.9 10.0272 1.16426 10.7584 1.63894 11.3498L2.57477 10.5987ZM13.0757 2.00832L1.94092 13.1431L2.78945 13.9917L13.9243 2.85685L13.0757 2.00832Z" fill="currentColor"/>
</svg>