<svg viewBox="0 0 16 16" fill="none" xmlns="http://www.w3.org/2000/svg">
<path d="M10.2165 8.9815L5.777 11.5685M5.7835 4.4315L10.2165 7.0185M2.15 3.45C2.15 4.52696 3.02304 5.4 4.1 5.4C5.17695 5.4 6.05 4.52696 6.05 3.45C6.05 2.37304 5.17695 1.5 4.1 1.5C3.02304 1.5 2.15 2.37304 2.15 3.45ZM9.95 8C9.95 9.07696 10.823 9.95 11.9 9.95C12.977 9.95 13.85 9.07696 13.85 8C13.85 6.92304 12.977 6.05 11.9 6.05C10.823 6.05 9.95 6.92304 9.95 8ZM2.15 12.55C2.15 13.627 3.02304 14.5 4.1 14.5C5.17695 14.5 6.05 13.627 6.05 12.55C6.05 11.473 5.17695 10.6 4.1 10.6C3.02304 10.6 2.15 11.473 2.15 12.55Z" stroke="currentColor" stroke-width="1.2" stroke-linecap="round" stroke-linejoin="round"/>
</svg>