<svg viewBox="0 0 16 16" fill="none" xmlns="http://www.w3.org/2000/svg">
<path d="M2.07918 11.2444L1.58967 10.8974L1.58967 10.8974L2.07918 11.2444ZM2.95141 8.5938L2.35141 8.58695V8.5938H2.95141ZM2.96972 6.99122L3.56972 6.99808V6.99122H2.96972ZM13.9255 11.2573L14.4217 10.92L14.4217 10.92L13.9255 11.2573ZM13.0861 8.5938L12.4861 8.58659V8.5938H13.0861ZM13.1044 7.07064L13.7044 7.07785V7.07064H13.1044ZM2.56869 11.5914C3.06314 10.8938 3.55141 9.8564 3.55141 8.5938H2.35141C2.35141 9.54316 1.9829 10.3427 1.58967 10.8974L2.56869 11.5914ZM3.55138 8.60065L3.56968 6.99808L2.36976 6.98437L2.35145 8.58695L3.55138 8.60065ZM14.4217 10.92C14.0448 10.3654 13.6861 9.55755 13.6861 8.5938H12.4861C12.4861 9.85721 12.9546 10.8962 13.4293 11.5945L14.4217 10.92ZM13.686 8.60101L13.7043 7.07785L12.5044 7.06342L12.4861 8.58659L13.686 8.60101ZM13.7044 7.07064C13.7044 3.75776 11.1889 1.00001 8 1.00001V2.20001C10.4492 2.20001 12.5044 4.34082 12.5044 7.07064H13.7044ZM13.62 12.6C14.1139 12.6 14.4049 12.2325 14.5164 11.9516C14.6304 11.6646 14.6526 11.2597 14.4217 10.92L13.4293 11.5945C13.404 11.5574 13.4005 11.5276 13.4001 11.5193C13.3997 11.5116 13.4007 11.5097 13.4012 11.5086C13.4012 11.5086 13.4085 11.4886 13.4391 11.4629C13.4741 11.4334 13.5378 11.4 13.62 11.4V12.6ZM3.56972 6.99122C3.56972 4.30527 5.59171 2.20001 8 2.20001V1.00001C4.852 1.00001 2.36972 3.72221 2.36972 6.99122H3.56972ZM2.38073 11.4C2.46488 11.4 2.52929 11.4347 2.56382 11.4644C2.57966 11.4779 2.58869 11.4897 2.59314 11.4962C2.59764 11.5029 2.59923 11.5069 2.59954 11.5077C2.59966 11.508 2.59973 11.5082 2.59977 11.5083C2.5998 11.5085 2.59982 11.5085 2.59982 11.5085C2.59982 11.5085 2.59982 11.5085 2.59982 11.5085C2.59982 11.5085 2.59982 11.5085 2.59983 11.5086C2.59985 11.5087 2.59992 11.5092 2.59996 11.5101C2.60001 11.511 2.60004 11.5126 2.59988 11.515C2.59939 11.5226 2.5957 11.5533 2.56869 11.5914L1.58967 10.8974C1.34819 11.2381 1.36836 11.6499 1.47975 11.9391C1.5885 12.2214 1.8788 12.6 2.38073 12.6V11.4ZM13.62 11.4H2.38073V12.6H13.62V11.4ZM9.8 12C9.8 12.9941 8.99411 13.8 8 13.8V15C9.65686 15 11 13.6568 11 12H9.8ZM8 13.8C7.00589 13.8 6.2 12.9941 6.2 12H5C5 13.6568 6.34314 15 8 15V13.8Z" fill="currentColor"/>
</svg>