<svg viewBox="0 0 16 16" fill="none" xmlns="http://www.w3.org/2000/svg">
<path d="M6.125 2.6C6.45637 2.6 6.725 2.33137 6.725 2C6.725 1.66863 6.45637 1.4 6.125 1.4V2.6ZM9.875 1.4C9.54362 1.4 9.275 1.66863 9.275 2C9.275 2.33137 9.54362 2.6 9.875 2.6V1.4ZM13.4 6.12494C13.4 6.45631 13.6686 6.72494 14 6.72494C14.3314 6.72494 14.6 6.45631 14.6 6.12494H13.4ZM14.6 9.87494C14.6 9.54357 14.3314 9.27494 14 9.27494C13.6686 9.27494 13.4 9.54357 13.4 9.87494H14.6ZM1.4 6.12494C1.4 6.45631 1.66863 6.72494 2 6.72494C2.33137 6.72494 2.6 6.45631 2.6 6.12494H1.4ZM2.6 9.87494C2.6 9.54357 2.33137 9.27494 2 9.27494C1.66863 9.27494 1.4 9.54357 1.4 9.87494H2.6ZM6.125 14.6C6.45637 14.6 6.725 14.3314 6.725 14C6.725 13.6686 6.45637 13.4 6.125 13.4V14.6ZM9.875 13.4C9.54362 13.4 9.275 13.6686 9.275 14C9.275 14.3314 9.54362 14.6 9.875 14.6V13.4ZM10.7727 5.75417L10.4631 6.26811L10.7727 5.75417ZM10.7727 10.4333L10.4631 9.91937V9.91937L10.7727 10.4333ZM7.46555 11.6688L7.15594 12.1827L7.46555 11.6688ZM8.72196 11.6688L9.03158 12.1827L8.72196 11.6688ZM5.41477 10.4333L5.72439 9.91937V9.91937L5.41477 10.4333ZM5.41477 5.75417L5.10516 5.24023L5.41477 5.75417ZM7.46555 4.51871L7.77517 5.03265L7.46555 4.51871ZM8.72196 4.51871L9.03158 4.00476L8.72196 4.51871ZM7.46555 7.81933L7.15252 8.33121L7.15594 8.33327L7.46555 7.81933ZM8.72196 7.81933L9.03158 8.33328L9.03499 8.3312L8.72196 7.81933ZM8.69376 7.9943C8.69376 7.66292 8.42513 7.3943 8.09376 7.3943C7.76239 7.3943 7.49376 7.66292 7.49376 7.9943H8.69376ZM7.49376 11.8391C7.49376 12.1705 7.76239 12.4391 8.09376 12.4391C8.42513 12.4391 8.69376 12.1705 8.69376 11.8391H7.49376ZM13.4 12.4211C13.4 12.9911 12.9684 13.4 12.5 13.4V14.6C13.6884 14.6 14.6 13.5951 14.6 12.4211H13.4ZM12.5 2.6C12.9684 2.6 13.4 3.00892 13.4 3.57895H14.6C14.6 2.40492 13.6884 1.4 12.5 1.4V2.6ZM2.6 3.57895C2.6 3.00892 3.03157 2.6 3.5 2.6V1.4C2.31157 1.4 1.4 2.40492 1.4 3.57895H2.6ZM3.5 13.4C3.03157 13.4 2.6 12.9911 2.6 12.4211H1.4C1.4 13.5951 2.31157 14.6 3.5 14.6V13.4ZM3.5 2.6H6.125V1.4H3.5V2.6ZM12.5 1.4H9.875V2.6H12.5V1.4ZM13.4 3.57895V6.12494H14.6V3.57895H13.4ZM14.6 12.4211V9.87494H13.4V12.4211H14.6ZM1.4 3.57895V6.12494H2.6V3.57895H1.4ZM2.6 12.4211V9.87494H1.4V12.4211H2.6ZM3.5 14.6H6.125V13.4H3.5V14.6ZM12.5 13.4H9.875V14.6H12.5V13.4ZM7.15594 4.00476L5.10516 5.24023L5.72439 6.26811L7.77517 5.03265L7.15594 4.00476ZM4.21251 6.82767V9.35981H5.41251V6.82767H4.21251ZM5.10516 10.9473L7.15594 12.1827L7.77517 11.1548L5.72439 9.91937L5.10516 10.9473ZM9.03158 12.1827L11.0824 10.9473L10.4631 9.91937L8.41234 11.1548L9.03158 12.1827ZM11.975 9.35981V6.82767H10.775V9.35981H11.975ZM11.0824 5.24023L9.03158 4.00476L8.41234 5.03265L10.4631 6.26811L11.0824 5.24023ZM11.975 6.82767C11.975 6.17949 11.6383 5.57516 11.0824 5.24023L10.4631 6.26811C10.6539 6.38306 10.775 6.59467 10.775 6.82767H11.975ZM11.0824 10.9473C11.6383 10.6123 11.975 10.008 11.975 9.35981H10.775C10.775 9.59281 10.6539 9.80442 10.4631 9.91937L11.0824 10.9473ZM7.15594 12.1827C7.73365 12.5307 8.45387 12.5307 9.03158 12.1827L8.41234 11.1548C8.21556 11.2734 7.97195 11.2734 7.77517 11.1548L7.15594 12.1827ZM4.21251 9.35981C4.21251 10.008 4.5492 10.6123 5.10516 10.9473L5.72439 9.91937C5.53358 9.80442 5.41251 9.59281 5.41251 9.35981H4.21251ZM5.10516 5.24023C4.5492 5.57516 4.21251 6.17949 4.21251 6.82767H5.41251C5.41251 6.59467 5.53358 6.38306 5.72439 6.26811L5.10516 5.24023ZM7.77517 5.03265C7.97195 4.9141 8.21556 4.9141 8.41234 5.03265L9.03158 4.00476C8.45387 3.65673 7.73365 3.65673 7.15594 4.00476L7.77517 5.03265ZM4.62675 6.78659L7.15252 8.3312L7.77858 7.30746L5.2528 5.76284L4.62675 6.78659ZM9.03499 8.3312L11.5608 6.78659L10.9347 5.76284L8.40893 7.30746L9.03499 8.3312ZM7.15594 8.33327C7.73365 8.6813 8.45387 8.6813 9.03158 8.33327L8.41234 7.30539C8.21556 7.42393 7.97195 7.42393 7.77517 7.30539L7.15594 8.33327ZM7.49376 7.9943V11.8391H8.69376V7.9943H7.49376Z" fill="currentColor"/>
</svg>