<svg viewBox="0 0 16 16" fill="none" xmlns="http://www.w3.org/2000/svg">
<path d="M7.00001 4C7.00001 4.55228 7.44773 5 8.00001 5C8.5523 5 9.00001 4.55228 9.00001 4C9.00001 3.44772 8.5523 3 8.00001 3C7.44773 3 7.00001 3.44772 7.00001 4Z" fill="currentColor"/>
<path d="M7.00001 8C7.00001 8.55228 7.44773 9 8.00001 9C8.5523 9 9.00001 8.55228 9.00001 8C9.00001 7.44772 8.5523 7 8.00001 7C7.44773 7 7.00001 7.44772 7.00001 8Z" fill="currentColor"/>
<path d="M8.00001 13C7.44773 13 7.00001 12.5523 7.00001 12C7.00001 11.4477 7.44773 11 8.00001 11C8.5523 11 9.00001 11.4477 9.00001 12C9.00001 12.5523 8.5523 13 8.00001 13Z" fill="currentColor"/>
</svg>