<svg viewBox="0 0 16 16" fill="none" xmlns="http://www.w3.org/2000/svg">
<path d="M6 6.04999C6 5.38332 6.4 4.04999 8 4.04999C9.6 4.04999 10 5.29999 10 5.79999C10 6.42499 9.875 6.92499 9 7.54999C8.125 8.17499 8 8.71665 8 9.04999M7.69999 11.65C7.69999 11.4843 7.8343 11.35 7.99999 11.35C8.16567 11.35 8.29999 11.4843 8.29999 11.65C8.29999 11.8157 8.16567 11.95 7.99999 11.95C7.8343 11.95 7.69999 11.8157 7.69999 11.65ZM14.5 8C14.5 11.5899 11.5899 14.5 8 14.5C4.41015 14.5 1.5 11.5899 1.5 8C1.5 4.41015 4.41015 1.5 8 1.5C11.5899 1.5 14.5 4.41015 14.5 8Z" stroke="currentColor" stroke-width="1.2" stroke-linecap="round"/>
</svg>