<svg viewBox="0 0 18.20001220703125 18.199996948242188" fill="none" xmlns="http://www.w3.org/2000/svg">
<path fill-rule="evenodd" clip-rule="evenodd" d="M9.99999 2.89999C6.07877 2.89999 2.89999 6.07877 2.89999 9.99999C2.89999 13.9212 6.07877 17.1 9.99999 17.1C13.9212 17.1 17.1 13.9212 17.1 9.99999C17.1 6.07877 13.9212 2.89999 9.99999 2.89999ZM8.88691 7.15056C8.67613 7.44333 8.59999 7.81266 8.59999 8.04998C8.59999 8.38135 8.33136 8.64998 7.99999 8.64998C7.66862 8.64998 7.39999 8.38135 7.39999 8.04998C7.39999 7.62063 7.52386 6.98997 7.91307 6.4494C8.32431 5.87823 9.00444 5.44998 9.99999 5.44998C10.979 5.44998 11.6527 5.84284 12.0685 6.36266C12.4617 6.85416 12.6 7.42728 12.6 7.79998C12.6 8.1522 12.5657 8.54141 12.3648 8.94331C12.1658 9.34125 11.8343 9.69142 11.3487 10.0382C10.9662 10.3115 10.7851 10.5397 10.6974 10.6989C10.6132 10.8517 10.6 10.9677 10.6 11.05C10.6 11.3814 10.3314 11.65 9.99999 11.65C9.66862 11.65 9.39999 11.3814 9.39999 11.05C9.39999 10.799 9.44932 10.4774 9.64637 10.1198C9.83988 9.76861 10.1588 9.41351 10.6513 9.06174C11.0407 8.78355 11.2092 8.57121 11.2915 8.40665C11.3718 8.24606 11.4 8.07276 11.4 7.79998C11.4 7.67269 11.3383 7.3708 11.1315 7.1123C10.9473 6.88212 10.6209 6.64998 9.99999 6.64998C9.39555 6.64998 9.07568 6.8884 8.88691 7.15056ZM10.9 13.65C10.9 14.1471 10.4971 14.55 9.99999 14.55C9.50294 14.55 9.09999 14.1471 9.09999 13.65C9.09999 13.153 9.50294 12.75 9.99999 12.75C10.4971 12.75 10.9 13.153 10.9 13.65Z" fill="currentColor"/>
</svg>