<svg viewBox="0 0 16 16" fill="none" xmlns="http://www.w3.org/2000/svg">
<path d="M10.2478 10.1942C10.5621 10.299 10.9019 10.1291 11.0067 9.81474C11.1115 9.50037 10.9416 9.16058 10.6272 9.05579L10.2478 10.1942ZM8 8.8125H7.4C7.4 9.07076 7.56526 9.30004 7.81026 9.38171L8 8.8125ZM8.6 5.41507C8.6 5.0837 8.33137 4.81507 8 4.81507C7.66863 4.81507 7.4 5.0837 7.4 5.41507H8.6ZM10.6272 9.05579L8.18974 8.24329L7.81026 9.38171L10.2478 10.1942L10.6272 9.05579ZM8.6 8.8125V5.41507H7.4V8.8125H8.6ZM13.9 8C13.9 11.2585 11.2585 13.9 8 13.9V15.1C11.9212 15.1 15.1 11.9212 15.1 8H13.9ZM8 13.9C4.74152 13.9 2.1 11.2585 2.1 8H0.9C0.9 11.9212 4.07878 15.1 8 15.1V13.9ZM2.1 8C2.1 4.74152 4.74152 2.1 8 2.1V0.9C4.07878 0.9 0.9 4.07878 0.9 8H2.1ZM8 2.1C11.2585 2.1 13.9 4.74152 13.9 8H15.1C15.1 4.07878 11.9212 0.9 8 0.9V2.1Z" fill="currentColor"/>
</svg>