<svg viewBox="0 0 16 16" fill="none" xmlns="http://www.w3.org/2000/svg">
<path d="M14 8C14.0024 8.93167 13.7847 9.85074 13.3647 10.6823C12.8666 11.6789 12.101 12.517 11.1535 13.103C10.206 13.689 9.11405 13.9995 8 14C7.23315 14.002 6.47483 13.8549 5.7668 13.5685C5.46971 13.4484 4.94096 13.1965 4.625 13.25L3.29692 13.6105C2 14 2 13.625 2.38921 12.7026L2.75 11.375C2.80352 11.059 2.55164 10.5303 2.43149 10.2332C2.14514 9.52517 1.99802 8.76685 2.00002 8C2.00045 6.88595 2.31104 5.79402 2.897 4.84652C3.48295 3.89901 4.32113 3.13336 5.31766 2.63531C6.14926 2.21526 7.06833 1.99759 8 2.00002H8.35294C9.82424 2.08119 11.2139 2.7022 12.2558 3.74415C13.2978 4.7861 13.9188 6.17576 14 7.64706V8Z" stroke="currentColor" stroke-width="1.2" stroke-linecap="round" stroke-linejoin="round"/>
</svg>