<svg viewBox="0 0 15 15" fill="none" xmlns="http://www.w3.org/2000/svg">
<path fill-rule="evenodd" clip-rule="evenodd" d="M9.21066 2.45064C8.9019 1.18312 7.0981 1.18312 6.78934 2.45064C6.74324 2.64111 6.65282 2.818 6.52545 2.96692C6.39807 3.11584 6.23733 3.23259 6.05631 3.30765C5.87529 3.38272 5.67911 3.41399 5.48372 3.39891C5.28833 3.38384 5.09927 3.32285 4.9319 3.2209C3.81712 2.54164 2.54145 3.81729 3.22073 4.93205C3.65949 5.65194 3.27029 6.5912 2.45126 6.79027C1.18291 7.09821 1.18291 8.9028 2.45126 9.20993C2.64178 9.25609 2.81871 9.34658 2.96763 9.47406C3.11656 9.60153 3.23327 9.76237 3.30827 9.94349C3.38326 10.1246 3.41443 10.3209 3.39921 10.5163C3.384 10.7117 3.32284 10.9008 3.22073 11.0681C2.54145 12.1829 3.81712 13.4586 4.9319 12.7793C5.09924 12.6772 5.28832 12.616 5.48376 12.6008C5.6792 12.5856 5.87547 12.6168 6.05659 12.6918C6.2377 12.7668 6.39855 12.8835 6.52602 13.0324C6.65349 13.1813 6.74399 13.3582 6.79015 13.5488C7.0981 14.8171 8.90272 14.8171 9.20985 13.5488C9.25616 13.3583 9.34675 13.1815 9.47425 13.0327C9.60175 12.8839 9.76257 12.7673 9.94363 12.6923C10.1247 12.6173 10.3209 12.5861 10.5163 12.6012C10.7117 12.6164 10.9007 12.6774 11.0681 12.7793C12.1829 13.4586 13.4585 12.1829 12.7793 11.0681C12.6773 10.9008 12.6163 10.7117 12.6012 10.5163C12.5861 10.321 12.6173 10.1248 12.6923 9.9437C12.7672 9.76264 12.8839 9.60183 13.0327 9.47433C13.1815 9.34683 13.3583 9.25624 13.5487 9.20993C14.8171 8.90199 14.8171 7.0974 13.5487 6.79027C13.3582 6.74411 13.1813 6.65362 13.0324 6.52614C12.8834 6.39867 12.7667 6.23783 12.6917 6.05672C12.6167 5.8756 12.5856 5.67934 12.6008 5.4839C12.616 5.28846 12.6772 5.09938 12.7793 4.93205C13.4585 3.81729 12.1829 2.54164 11.0681 3.2209C10.9008 3.32302 10.7117 3.38417 10.5162 3.39939C10.3208 3.4146 10.1245 3.38344 9.94342 3.30844C9.7623 3.23345 9.60145 3.11673 9.47398 2.96781C9.34651 2.81889 9.25601 2.64197 9.20985 2.45145L9.21066 2.45064Z" stroke="currentColor" stroke-width="1.2"/>
<path d="M10.5 8C10.5 9.38071 9.38071 10.5 8 10.5C6.61929 10.5 5.5 9.38071 5.5 8C5.5 6.61929 6.61929 5.5 8 5.5C9.38071 5.5 10.5 6.61929 10.5 8Z" stroke="currentColor" stroke-width="1.2"/>
</svg>