<svg viewBox="0 0 16.000001907348633 16.000001907348633" fill="none" xmlns="http://www.w3.org/2000/svg">
<path d="M5.99998 14.5L11.6002 14.5C12.4838 14.5 13.2002 13.7837 13.2002 12.9L13.2002 8.10003M5.99998 14.5H5.55369C5.3284 14.5 5.11396 14.4051 4.95875 14.2418C4.7255 13.9964 4.35603 13.6186 3.99998 13.3C3.72093 13.0503 3.28252 12.6022 3.01999 12.3299C2.87802 12.1826 2.79998 11.986 2.79999 11.7815L2.8 11.3M5.99998 14.5L5.99998 12.1C5.99998 11.6582 5.64181 11.3 5.19998 11.3H2.8M2.8 11.3L2.8002 3.29997C2.80022 2.41633 3.51656 1.70001 4.40021 1.70001L6.72812 1.70002M9.45026 5.4417L13.1919 1.70001M13.1919 1.70001L10.0148 1.70001M13.1919 1.70001L13.192 4.87714" stroke="currentColor" stroke-width="1.2" stroke-linecap="round" stroke-linejoin="round"/>
</svg>