<svg viewBox="0 0 16 15.984281539916992" fill="none" xmlns="http://www.w3.org/2000/svg">
<path d="M13.9652 6.88264V13.2897C13.9652 13.9199 13.428 14.4309 12.7652 14.4309H3.16524C2.5025 14.4309 1.96524 13.92 1.96524 13.2897V6.95978M2.30808 2.12122C2.39514 1.87589 2.66225 1.70789 2.96524 1.70789L13.0219 1.70789C13.3249 1.70789 13.592 1.87589 13.679 2.12122L14.7082 5.02122C14.7274 5.07529 14.7371 5.13144 14.7371 5.18789C14.7371 6.46916 13.5936 7.50789 12.4501 7.50789C10.7349 7.50789 10.1631 6.34789 10.1631 5.76789C10.1631 6.34789 9.5914 7.50789 7.87616 7.50789C6.16093 7.50789 5.58918 6.34789 5.58918 5.76789C5.58918 6.34789 4.46523 7.50789 3.3022 7.50789C2.13917 7.50789 1.25 6.46916 1.25 5.18789C1.25 5.13144 1.25975 5.07529 1.27893 5.02122L2.30808 2.12122Z" stroke="currentColor" stroke-width="1.2" stroke-linecap="round" stroke-linejoin="round"/>
</svg>