<svg viewBox="0 0 16 16" fill="none" xmlns="http://www.w3.org/2000/svg">
<path d="M1.90093 2.98499L2.49917 3.03101L2.49917 3.03101L1.90093 2.98499ZM2.98499 1.90094L3.031 2.49917L3.031 2.49917L2.98499 1.90094ZM14.055 8.22491L13.6308 8.64917L14.055 8.22491ZM14.055 9.89065L13.6308 9.46639L14.055 9.89065ZM7.7751 1.945L8.19937 1.52073V1.52073L7.7751 1.945ZM6.85189 1.60348L6.80588 1.00525L6.85189 1.60348ZM1.945 7.77511L1.52073 8.19937L1.945 7.77511ZM1.60348 6.85189L1.00525 6.80588L1.00525 6.80588L1.60348 6.85189ZM8.22491 14.055L7.80065 14.4793L8.22491 14.055ZM9.89066 14.055L10.3149 14.4793L9.89066 14.055ZM8.64917 13.6308L2.36926 7.35084L1.52073 8.19937L7.80065 14.4793L8.64917 13.6308ZM7.35084 2.36926L13.6308 8.64917L14.4793 7.80065L8.19937 1.52073L7.35084 2.36926ZM13.6308 9.46639L9.46639 13.6308L10.3149 14.4793L14.4793 10.3149L13.6308 9.46639ZM2.20171 6.89791L2.49917 3.03101L1.3027 2.93897L1.00525 6.80588L2.20171 6.89791ZM3.031 2.49917L6.89791 2.20171L6.80588 1.00525L2.93897 1.3027L3.031 2.49917ZM2.49917 3.03101C2.52103 2.74683 2.74682 2.52103 3.031 2.49917L2.93897 1.3027C2.06465 1.36996 1.36996 2.06466 1.3027 2.93897L2.49917 3.03101ZM13.6308 8.64917C13.8564 8.87484 13.8564 9.24072 13.6308 9.46639L14.4793 10.3149C15.1736 9.62062 15.1736 8.49494 14.4793 7.80065L13.6308 8.64917ZM8.19937 1.52073C7.83238 1.15374 7.32335 0.965441 6.80588 1.00525L6.89791 2.20171C7.06611 2.18877 7.23156 2.24998 7.35084 2.36926L8.19937 1.52073ZM2.36926 7.35084C2.24998 7.23156 2.18877 7.06611 2.20171 6.89791L1.00525 6.80588C0.965441 7.32335 1.15374 7.83238 1.52073 8.19937L2.36926 7.35084ZM7.80065 14.4793C8.49494 15.1736 9.62062 15.1736 10.3149 14.4793L9.46639 13.6308C9.24072 13.8564 8.87484 13.8564 8.64917 13.6308L7.80065 14.4793ZM6.4 5.5C6.4 5.99706 5.99706 6.4 5.5 6.4V7.6C6.6598 7.6 7.6 6.6598 7.6 5.5H6.4ZM5.5 6.4C5.00294 6.4 4.6 5.99706 4.6 5.5H3.4C3.4 6.6598 4.3402 7.6 5.5 7.6V6.4ZM4.6 5.5C4.6 5.00294 5.00294 4.6 5.5 4.6V3.4C4.3402 3.4 3.4 4.3402 3.4 5.5H4.6ZM5.5 4.6C5.99706 4.6 6.4 5.00294 6.4 5.5H7.6C7.6 4.3402 6.6598 3.4 5.5 3.4V4.6Z" fill="currentColor"/>
</svg>