<svg viewBox="0 0 16 16" fill="none" xmlns="http://www.w3.org/2000/svg">
<path d="M2.60523 10.3667L2.27189 11.6333C2.07189 12.2333 2.20523 12.9 2.60523 13.4333C3.00523 13.9 3.53856 14.1667 4.20523 14.1667H11.8719C12.4719 14.1667 13.0719 13.9 13.4052 13.3667C13.8052 12.8333 13.9386 12.1667 13.7386 11.5667L13.4052 10.3C13.0052 8.63333 11.5386 8.5 9.87189 8.5H6.20523C4.53856 8.5 3.07189 8.63333 2.60523 10.3667ZM3.53856 11.9667L3.87189 10.7C4.20523 9.56667 5.13856 9.83333 6.20523 9.83333H9.87189C10.9386 9.83333 11.8719 9.56667 12.2052 10.7L12.5386 11.9667C12.6052 12.1667 12.5386 12.4333 12.4052 12.6333C12.3386 12.7 12.1386 12.8333 11.8719 12.8333H4.20523C3.93856 12.8333 3.80523 12.7 3.73856 12.5667C3.53856 12.4333 3.47189 12.1667 3.53856 11.9667Z" fill="currentColor"/>
<path d="M8 7.5C9.65685 7.5 11 6.15685 11 4.5C11 2.84315 9.65685 1.5 8 1.5C6.34315 1.5 5 2.84315 5 4.5C5 6.15685 6.34315 7.5 8 7.5Z" stroke="currentColor" stroke-width="1.2"/>
</svg>