<svg viewBox="0 0 16 15.285714149475098" fill="none" xmlns="http://www.w3.org/2000/svg">
<path d="M1.5 8L0.92 7.84638C0.893333 7.94706 0.893333 8.05295 0.92 8.15363L1.5 8ZM14.5 8L15.0798 8.15439C15.1067 8.05323 15.1067 7.94678 15.0798 7.84562L14.5 8ZM9.71817 8C9.71817 8.95072 8.94746 9.72143 7.99675 9.72143V10.9214C9.61021 10.9214 10.9182 9.61346 10.9182 8H9.71817ZM7.99675 9.72143C7.04603 9.72143 6.27532 8.95072 6.27532 8H5.07532C5.07532 9.61346 6.38329 10.9214 7.99675 10.9214V9.72143ZM6.27532 8C6.27532 7.04929 7.04603 6.27858 7.99675 6.27858V5.07858C6.38329 5.07858 5.07532 6.38654 5.07532 8H6.27532ZM7.99675 6.27858C8.94746 6.27858 9.71817 7.04929 9.71817 8H10.9182C10.9182 6.38654 9.61021 5.07858 7.99675 5.07858V6.27858ZM7.99675 2.75715C4.12213 2.75715 1.60089 5.27568 0.92 7.84638L2.08 8.15363C2.62884 6.08147 4.69469 3.95715 7.99675 3.95715V2.75715ZM0.92 8.15363C1.60094 10.7245 4.12231 13.2429 8 13.2429V12.0429C4.69451 12.0429 2.62879 9.91836 2.08 7.84638L0.92 8.15363ZM8 13.2429C11.8782 13.2429 14.3956 10.7241 15.0798 8.15439L13.9202 7.84562C13.3682 9.91879 11.305 12.0429 8 12.0429V13.2429ZM15.0798 7.84562C14.3954 5.27539 11.8712 2.75715 7.99675 2.75715V3.95715C11.299 3.95715 13.3683 6.08176 13.9202 8.15439L15.0798 7.84562Z" fill="currentColor"/>
</svg>