<svg viewBox="0 0 16 16" fill="none" xmlns="http://www.w3.org/2000/svg">
<path d="M5.67532 8.14286C5.67532 6.86077 6.71466 5.82143 7.99675 5.82143M6.4112 9.83847C6.82615 10.2267 7.3837 10.4643 7.99675 10.4643C9.27884 10.4643 10.3182 9.42495 10.3182 8.14286C10.3182 7.55143 10.097 7.01166 9.73287 6.60175M11.7149 4.5C13.1787 5.3926 14.1339 6.76773 14.5 8.14286C13.8819 10.4643 11.5916 12.7857 8 12.7857C6.57637 12.7857 5.35669 12.421 4.36465 11.8361M3 10.7601C2.25178 9.98426 1.74386 9.06356 1.5 8.14286C2.11486 5.82143 4.40841 3.5 7.99675 3.5C8.75815 3.5 9.4614 3.60452 10.1028 3.79138M14.2 2L2.20001 14" stroke="currentColor" stroke-width="1.2" stroke-linecap="round"/>
</svg>