<svg viewBox="0 0 16 16" fill="none" xmlns="http://www.w3.org/2000/svg">
<path fill-rule="evenodd" clip-rule="evenodd" d="M1.21718 11.9543L6.61018 2.40397C7.22744 1.3098 8.77342 1.3098 9.39068 2.40397L14.7818 11.9543C15.4009 13.0485 14.6289 14.4167 13.3925 14.4167H2.60649C1.37197 14.4167 0.59992 13.0485 1.21718 11.9543ZM9 11.9C9 12.3971 8.59706 12.8 8.1 12.8C7.60294 12.8 7.2 12.3971 7.2 11.9C7.2 11.4029 7.60294 11 8.1 11C8.59706 11 9 11.4029 9 11.9ZM8.10001 10C7.76864 10 7.50001 9.73137 7.50001 9.4L7.50001 5.4C7.50001 5.06863 7.76864 4.8 8.10001 4.8C8.43138 4.8 8.70001 5.06863 8.70001 5.4V9.4C8.70001 9.73137 8.43138 10 8.10001 10Z" fill="currentColor"/>
</svg>