<svg viewBox="0 0 16 16" fill="none" xmlns="http://www.w3.org/2000/svg">
<path fill-rule="evenodd" clip-rule="evenodd" d="M8.1 15.2C12.0212 15.2 15.2 12.0212 15.2 8.10001C15.2 4.17879 12.0212 1.00001 8.1 1.00001C4.17878 1.00001 0.999997 4.17879 0.999997 8.10001C0.999996 12.0212 4.17878 15.2 8.1 15.2ZM9 11.1C9 11.5971 8.59706 12 8.1 12C7.60294 12 7.2 11.5971 7.2 11.1C7.2 10.6029 7.60294 10.2 8.1 10.2C8.59706 10.2 9 10.6029 9 11.1ZM7.5 8.50001C7.5 8.83138 7.76863 9.10001 8.1 9.10001C8.43137 9.10001 8.7 8.83138 8.7 8.50001L8.7 4.50001C8.7 4.16863 8.43137 3.90001 8.1 3.90001C7.76863 3.90001 7.5 4.16863 7.5 4.50001L7.5 8.50001Z" fill="currentColor"/>
</svg>