<?xml version="1.0" encoding="UTF-8"?>
<svg width="167px" height="50px" viewBox="0 0 167 50" version="1.1" xmlns="http://www.w3.org/2000/svg" xmlns:xlink="http://www.w3.org/1999/xlink">
    <title>logo- user</title>
    <g id="页面-1" stroke="none" stroke-width="1" fill="none" fill-rule="evenodd">
        <g id="logo--user" fill-rule="nonzero">
            <g id="logo" transform="translate(-0.000000, 3.000000)">
                <g id="编组" transform="translate(29.000000, 20.000000) scale(-1, 1) rotate(-180.000000) translate(-29.000000, -20.000000) translate(0.000000, 0.000000)">
                    <path d="M51.2031251,24.3636366 C51.2031251,24.2727276 48.3484375,18.8181821 44.9046875,12.2272729 L38.5609375,0.227272729 L36.521875,0.0909090918 C35.3890625,1.01030295e-14 34.4375,0.0454545459 34.4375,0.181818183 C34.4375,0.318181822 36.884375,5.0454546 39.875,10.6818183 C42.865625,16.318182 45.7203126,21.7272729 46.2187501,22.7272729 C47.0796875,24.4545457 47.2609376,24.5454548 49.1640626,24.5454548 C50.2968751,24.5454548 51.2031251,24.4545457 51.2031251,24.3636366 Z" id="路径" fill="#03A9F4"></path>
                    <path d="M53.83125,19.2272729 L54.6921876,17.5 L49.8890625,8.77272735 L45.0859375,0.0454545459 L42.9109375,0 L40.7359376,0 L42.4578125,3.09090912 C43.409375,4.77272731 45.9921875,9.5 48.2578126,13.5454547 C50.478125,17.5909092 52.471875,20.9090911 52.6531251,20.9090911 C52.834375,20.9090911 53.378125,20.1363638 53.83125,19.2272729 Z" id="路径" fill="#03A9F4"></path>
                    <path d="M54.7375001,5.86363642 L51.475,0 L49.5265625,0 C48.4390625,0 47.578125,0.0909090918 47.578125,0.227272729 C47.578125,0.363636368 49.4359375,3.8636364 51.7015626,8 L55.8703125,15.5 L56.9125,13.6363637 L58,11.7272729 L54.7375001,5.86363642 Z" id="路径" fill="#03AAF6"></path>
                    <g id="编组-27" transform="translate(0.000000, 1.363636)" fill="#FFFFFF">
                        <path d="M32.1718751,0 L33.2593751,2.18181821 C33.8174342,3.30143545 36.4089075,8.05187619 39.1459306,12.9934129 L39.603125,13.818182 C42.503125,19.0454547 44.859375,23.5 44.859375,23.7272729 C44.859375,23.9545457 43.0921875,27.4090912 40.9171875,31.3636367 L40.9171875,31.3636367 L36.9296875,38.636364 L20.1640625,38.636364 L16.1765625,31.3636367 L12.1890625,24.0909093 L6.52500001,24.0909093 L3.2625,18.2272728 C1.45,15 -7.97167064e-24,12.2272729 -7.97167064e-24,12.0909092 C-7.97167064e-24,11.7272729 4.3046875,3.95454549 5.70937501,1.72727275 L5.70937501,1.72727275 L6.796875,0 L32.1718751,0 Z M29.815625,4.09090913 L8.70000001,4.09090913 L6.52500001,8.09090913 L4.3953125,12.0454547 L6.47968751,15.9090911 L8.56406251,19.7727275 L11.509375,19.9090911 L14.4546875,20.0454547 L18.396875,27.2727276 L22.384375,34.5454549 L34.7093751,34.5454549 L37.51875,29.4090912 C39.059375,26.5454548 40.328125,24.0000002 40.328125,23.7272729 C40.328125,23.4545457 37.971875,18.9545457 35.071875,13.6818183 L35.071875,13.6818183 L29.815625,4.09090913 Z" id="形状结合"></path>
                    </g>
                </g>
            </g>
            <text id="Cloud" fill="#FFFFFF" font-family="PingFangSC-Regular, PingFang SC" font-size="36" font-weight="normal">
                <tspan x="69" y="38">Cloud</tspan>
            </text>
        </g>
    </g>
</svg>
