<?xml version="1.0" encoding="UTF-8" standalone="no"?>
<!-- Created with Inkscape (http://www.inkscape.org/) -->

<svg
   xmlns:dc="http://purl.org/dc/elements/1.1/"
   xmlns:cc="http://creativecommons.org/ns#"
   xmlns:rdf="http://www.w3.org/1999/02/22-rdf-syntax-ns#"
   xmlns:svg="http://www.w3.org/2000/svg"
   xmlns="http://www.w3.org/2000/svg"
   xmlns:sodipodi="http://sodipodi.sourceforge.net/DTD/sodipodi-0.dtd"
   xmlns:inkscape="http://www.inkscape.org/namespaces/inkscape"
   width="1000"
   height="223.50731"
   viewBox="0 0 264.58333 59.13631"
   version="1.1"
   id="svg8"
   inkscape:version="0.92.4 (5da689c313, 2019-01-14)"
   sodipodi:docname="A.svg">
  <defs
     id="defs2">
    <clipPath
       clipPathUnits="userSpaceOnUse"
       id="clipPath23">
      <path
         d="M 0,0 H 595.276 V 841.89 H 0 Z"
         id="path21"
         inkscape:connector-curvature="0" />
    </clipPath>
  </defs>
  <sodipodi:namedview
     id="base"
     pagecolor="#ffffff"
     bordercolor="#666666"
     borderopacity="1.0"
     inkscape:pageopacity="0.82352941"
     inkscape:pageshadow="2"
     inkscape:zoom="0.35"
     inkscape:cx="721.28045"
     inkscape:cy="-329.86718"
     inkscape:document-units="px"
     inkscape:current-layer="layer1"
     showgrid="false"
     units="px"
     inkscape:window-width="1920"
     inkscape:window-height="1017"
     inkscape:window-x="1912"
     inkscape:window-y="-8"
     inkscape:window-maximized="1"
     inkscape:pagecheckerboard="true"
     fit-margin-top="0"
     fit-margin-left="0"
     fit-margin-right="0"
     fit-margin-bottom="0" />
  <metadata
     id="metadata5">
    <rdf:RDF>
      <cc:Work
         rdf:about="">
        <dc:format>image/svg+xml</dc:format>
        <dc:type
           rdf:resource="http://purl.org/dc/dcmitype/StillImage" />
        <dc:title></dc:title>
      </cc:Work>
    </rdf:RDF>
  </metadata>
  <g
     inkscape:label="Layer 1"
     inkscape:groupmode="layer"
     id="layer1"
     transform="translate(44.921252,551.99667)">
    <g
       id="g1630"
       transform="matrix(1.5931126,0,0,-1.5931126,-16.37106,-536.66269)">
      <path
         d="M 0,0 C -0.676,-1.426 -0.407,-2.597 0.602,-2.615 1.61,-2.633 2.978,-1.492 3.654,-0.067 4.331,1.361 4.062,2.531 3.053,2.549 2.044,2.566 0.676,1.425 0,0 M 8.223,5.149 C 8.232,5.145 8.237,5.136 8.237,5.127 8.237,5.124 8.236,5.121 8.236,5.119 7.633,3.41 6.632,1.465 5.64,-0.01 3.552,-3.112 0.552,-5.068 -1.056,-4.379 c -1.608,0.689 -1.221,3.764 0.87,6.868 0.471,0.696 0.986,1.334 1.521,1.898 0.004,0.005 0.007,0.011 0.007,0.017 0,0.012 -0.011,0.024 -0.024,0.024 0,0 -0.003,0 -0.003,-0.002 -0.657,-0.09 -1.323,-0.22 -1.995,-0.39 -0.004,0 -0.009,-0.004 -0.012,-0.008 -7.058,-8.656 -10.061,-19.897 -9.648,-29.926 0,-0.013 -0.01,-0.023 -0.024,-0.023 -0.003,0 -0.006,0 -0.009,10e-4 -4.16,1.677 -7.2,5.696 -7.518,10.785 l -0.003,0.059 c -0.526,9.055 6.693,18.33 16.124,20.718 3.654,0.925 7.107,0.681 9.993,-0.493"
         style="fill:#e1192c;fill-opacity:1;fill-rule:nonzero;stroke:none"
         id="path1632"
         inkscape:connector-curvature="0" />
    </g>
    <g
       id="g1634"
       transform="matrix(1.5931126,0,0,-1.5931126,-7.5213395,-505.95969)">
      <path
         d="m 0,0 c -0.685,-0.476 -1.401,-0.916 -2.14,-1.312 -0.003,-0.002 -0.007,-0.003 -0.01,-0.003 -0.013,0 -0.024,0.01 -0.024,0.023 -0.138,2.174 -0.606,4.28 -1.416,6.032 -2.159,4.678 -5.933,5.038 -8.426,0.803 -1.525,-2.591 -2.22,-6.305 -2.032,-9.87 0,-0.01 0.007,-0.019 0.015,-0.021 2.646,-0.829 5.693,-0.92 8.945,-0.1 9.417,2.4 16.621,11.666 16.097,20.711 -0.461,7.946 -6.729,13.08 -14.63,12.604 -0.005,0 -0.01,-0.003 -0.014,-0.007 -0.769,-0.777 -1.488,-1.562 -2.163,-2.355 -0.003,-0.004 -0.005,-0.009 -0.005,-0.014 0,-0.013 0.01,-0.024 0.023,-0.024 0,0 0.002,0 0.004,0 4.629,0.586 8.34,-0.354 10.762,-2.284 0.005,-0.004 0.009,-0.011 0.009,-0.018 0,-0.005 -0.001,-0.01 -0.004,-0.013 C -3.352,12.389 -2.319,5.688 0.008,0.029 0.01,0.026 0.01,0.023 0.01,0.02 0.01,0.011 0.006,0.005 0,0"
         style="fill:#000000;fill-opacity:1;fill-rule:nonzero;stroke:none"
         id="path1636"
         inkscape:connector-curvature="0" />
    </g>
    <g
       id="g1638"
       transform="matrix(1.5931126,0,0,-1.5931126,116.46679,-527.39762)">
      <path
         d="M 0,0 C 1.97,0 3.424,-0.429 4.127,-0.825 4.135,-0.83 4.14,-0.84 4.138,-0.85 L 3.458,-4.417 C 3.457,-4.425 3.452,-4.43 3.445,-4.434 3.438,-4.437 3.43,-4.437 3.424,-4.433 c -0.797,0.434 -2.174,0.897 -3.653,0.897 -1.242,0 -2.051,-0.521 -2.051,-1.391 0,-0.625 0.619,-1.184 1.929,-1.823 1.707,-0.852 3.634,-2.115 3.634,-4.398 0,-1.49 -0.497,-2.736 -1.476,-3.707 -1.302,-1.293 -3.414,-1.997 -5.954,-1.978 -1.954,0.033 -3.929,0.539 -4.918,1.255 -0.008,0.005 -0.011,0.015 -0.01,0.024 l 0.682,3.589 c 0.001,0.006 0.007,0.013 0.014,0.017 0.008,0.003 0.015,0.002 0.022,-0.002 1.058,-0.664 3.142,-1.379 4.671,-1.379 1.185,0 1.984,0.547 1.984,1.424 0,0.795 -0.561,1.351 -1.995,2.052 C -5.965,-8.719 -7.1,-7.281 -7.1,-5.587 -7.1,-2.253 -4.26,0 0,0"
         style="fill:#000000;fill-opacity:1;fill-rule:nonzero;stroke:none"
         id="path1640"
         inkscape:connector-curvature="0" />
    </g>
    <g
       id="g1642"
       transform="matrix(1.5931126,0,0,-1.5931126,74.117233,-527.34442)">
      <path
         d="M 0,0 C 1.209,0 2.443,-0.21 3.3,-0.561 3.311,-0.565 3.317,-0.576 3.315,-0.588 L 2.583,-4.429 C 2.581,-4.436 2.577,-4.443 2.57,-4.446 2.562,-4.448 2.554,-4.449 2.547,-4.445 c -0.738,0.413 -1.594,0.613 -2.613,0.613 -3.409,0 -5.44,-2.972 -5.44,-5.835 0,-2.43 1.623,-3.301 3.136,-3.301 1.353,0 2.502,0.296 3.963,1.015 0.008,0.004 0.018,0.003 0.025,-0.002 0.008,-0.005 0.01,-0.015 0.009,-0.023 L 0.88,-15.925 c -0.002,-0.007 -0.007,-0.013 -0.014,-0.017 -1.108,-0.536 -2.822,-0.857 -4.585,-0.857 -4.137,0 -6.804,2.591 -6.804,6.605 C -10.523,-4.382 -6.001,0 0,0"
         style="fill:#000000;fill-opacity:1;fill-rule:nonzero;stroke:none"
         id="path1644"
         inkscape:connector-curvature="0" />
    </g>
    <g
       id="g1646"
       transform="matrix(1.5931126,0,0,-1.5931126,43.24399,-520.07458)">
      <path
         d="m 0,0 c -1.286,-1.287 -2.252,-3.704 -2.251,-5.628 10e-4,-1.689 0.627,-2.741 1.716,-2.741 1.743,0 3.243,1.822 3.759,4.49 0.116,0.596 0.234,1.203 0.318,1.742 0.085,0.539 0.137,1.015 0.122,1.347 C 3.608,0.349 3.015,0.964 1.951,0.964 1.301,0.964 0.626,0.627 0,0 m 1.777,-11.899 c -0.005,0.007 -0.006,0.013 -0.005,0.02 l 0.143,0.721 c 0.127,0.648 0.653,1.544 0.852,1.837 l 0.031,0.054 c 0.069,0.155 -0.032,0.338 -0.157,0.394 -0.15,0.064 -0.338,0.014 -0.409,-0.143 L 2.213,-9.075 C 2.127,-9.42 1.95,-10.217 1.206,-10.896 c -0.942,-0.862 -2.249,-1.374 -3.671,-1.374 -3.182,0 -4.62,2.825 -4.622,5.652 -0.002,3.212 1.26,6.393 3.373,8.507 1.77,1.772 4.055,2.708 6.609,2.708 C 4.838,4.589 6.276,4.026 7.177,2.935 8.51,1.319 8.4,-1.106 8.068,-2.87 L 6.345,-11.888 C 6.343,-11.899 6.333,-11.907 6.321,-11.907 H 1.796 c -0.008,0 -0.015,0.003 -0.019,0.008"
         style="fill:#000000;fill-opacity:1;fill-rule:nonzero;stroke:none"
         id="path1648"
         inkscape:connector-curvature="0" />
    </g>
    <g
       id="g1650"
       transform="matrix(1.5931126,0,0,-1.5931126,134.30916,-506.31898)">
      <path
         d="m 0,0 c 2.515,0 4.362,3.571 4.362,6.722 0,0.762 -0.179,2.61 -1.933,2.61 C 0.645,9.332 -0.861,7.3 -1.444,4.218 -1.644,3.164 -2.203,0 0,0 m 4.118,13.231 c 3.17,0 5.225,-2.402 5.225,-6.146 0,-3.926 -1.886,-7.952 -5.284,-9.764 -2.636,-1.406 -5.034,-1.089 -6.224,-0.165 -0.284,0.221 -0.353,0.803 -0.384,1.033 l -0.015,0.06 c -0.052,0.163 -0.245,0.226 -0.394,0.174 -0.129,-0.046 -0.246,-0.203 -0.193,-0.364 l 0.024,-0.057 c 0.217,-0.385 0.38,-0.693 0.319,-1.012 l -1.025,-5.418 c -10e-4,-0.011 -0.011,-0.02 -0.023,-0.02 h -4.741 c -0.007,0 -0.013,0.003 -0.018,0.009 -0.005,0.006 -0.006,0.013 -0.005,0.019 l 4.07,21.404 c 0.002,0.011 0.012,0.019 0.023,0.019 l 4.169,-0.002 c 0.007,0 0.014,-0.004 0.019,-0.009 0.004,-0.006 0.006,-0.013 0.004,-0.019 l -0.14,-0.739 -0.001,-0.005 C -0.698,11.064 -1.045,10.616 -1.27,10.34 l -0.035,-0.051 c -0.083,-0.151 0.008,-0.314 0.126,-0.38 0.119,-0.066 0.333,-0.07 0.416,0.079 l 0.024,0.056 c 0.115,0.337 0.388,1.168 1.048,1.735 l 0.003,10e-4 c 1.095,0.938 2.425,1.451 3.806,1.451"
         style="fill:#000000;fill-opacity:1;fill-rule:nonzero;stroke:none"
         id="path1652"
         inkscape:connector-curvature="0" />
    </g>
    <g
       id="g1654"
       transform="matrix(1.5931126,0,0,-1.5931126,84.273166,-535.89525)">
      <path
         d="M 0,0 H 4.708 C 4.715,0 4.721,-0.003 4.726,-0.008 4.73,-0.015 4.732,-0.022 4.73,-0.028 L 2.275,-12.946 c -10e-4,-0.009 10e-4,-0.017 0.009,-0.02 0.007,-0.004 0.016,-0.002 0.021,0.004 l 6.32,7.29 c 0.005,0.005 0.012,0.008 0.018,0.008 h 5.163 c 0.01,0 0.019,-0.005 0.023,-0.014 10e-4,-0.004 0.002,-0.007 0.002,-0.01 0,-0.005 -0.002,-0.012 -0.006,-0.016 l -6.558,-7.388 4,-8.681 c 0.003,-0.003 0.003,-0.006 0.003,-0.009 0,-0.005 -0.002,-0.01 -0.004,-0.013 -0.005,-0.007 -0.012,-0.011 -0.02,-0.011 H 6.149 c -0.009,0 -0.018,0.005 -0.022,0.013 l -3.87,8.583 c -0.003,0.007 -0.01,0.011 -0.017,0.01 -0.009,0 -0.014,-0.006 -0.016,-0.014 l -1.63,-8.573 c -0.002,-0.011 -0.012,-0.019 -0.023,-0.019 h -4.708 c -0.007,0 -0.014,0.003 -0.018,0.008 -0.005,0.006 -0.007,0.013 -0.005,0.02 L -0.023,-0.02 C -0.021,-0.008 -0.011,0 0,0"
         style="fill:#000000;fill-opacity:1;fill-rule:nonzero;stroke:none"
         id="path1656"
         inkscape:connector-curvature="0" />
    </g>
    <g
       id="g1658"
       transform="matrix(1.5931126,0,0,-1.5931126,33.220128,-527.45037)">
      <path
         d="m 0,0 c 0.283,0 0.631,-0.03 0.887,-0.077 0.006,-0.001 0.011,-0.004 0.015,-0.01 0.003,-0.006 0.005,-0.011 0.003,-0.018 l -0.921,-4.641 c -0.001,-0.006 -0.005,-0.011 -0.01,-0.014 -0.006,-0.004 -0.012,-0.005 -0.019,-0.004 -0.167,0.035 -0.432,0.075 -0.745,0.075 -3.252,0 -4.52,-3.177 -5.013,-5.806 l -1.155,-6.179 c -0.002,-0.011 -0.011,-0.019 -0.023,-0.019 h -4.74 c -0.007,0 -0.014,0.004 -0.018,0.009 -0.005,0.005 -0.007,0.012 -0.005,0.019 l 3.096,16.283 c 0.002,0.011 0.012,0.019 0.024,0.019 h 4.169 c 0.007,0 0.014,-0.002 0.018,-0.008 0.003,-0.004 0.006,-0.01 0.006,-0.015 L -4.641,-1.488 -4.643,-1.5 c -0.198,-1.04 -0.518,-1.654 -0.724,-1.946 l -0.03,-0.053 c -0.073,-0.155 0.041,-0.315 0.165,-0.373 0.124,-0.057 0.323,-0.043 0.395,0.112 l 0.021,0.058 c 0.092,0.346 0.28,1.093 0.924,1.815 C -2.786,-0.664 -1.446,0 0,0"
         style="fill:#000000;fill-opacity:1;fill-rule:nonzero;stroke:none"
         id="path1660"
         inkscape:connector-curvature="0" />
    </g>
    <g
       id="g1662"
       transform="matrix(1.5931126,0,0,-1.5931126,212.50741,-519.65143)">
      <path
         d="m 0,0 c 0,0.833 -0.69,1.358 -1.721,1.358 -1.595,0 -2.744,-1.005 -3.353,-2.189 -0.441,-0.852 -0.597,-0.937 -1.002,-1.193 l -0.052,-0.034 c -0.131,-0.11 -0.087,-0.303 0,-0.409 0.089,-0.103 0.267,-0.175 0.398,-0.066 l 0.043,0.045 c 0.33,0.393 0.407,0.539 1.661,0.591 1.922,0.077 3.072,0.368 3.633,0.924 C -0.128,-0.711 0,-0.391 0,0 m -6.608,-5.014 c 0.436,-0.394 0.729,-0.971 0.777,-1.154 0.08,-0.31 0.205,-0.621 0.376,-0.859 0.62,-0.784 1.717,-1.21 3.076,-1.21 1.987,0 3.708,0.482 5.581,1.561 0.008,0.005 0.018,0.005 0.025,-10e-4 0.008,-0.005 0.011,-0.014 0.01,-0.023 l -0.755,-3.968 c -0.001,-0.007 -0.005,-0.013 -0.011,-0.017 -2.281,-1.16 -4.956,-1.287 -6.002,-1.287 -4.455,0 -7.002,2.478 -7.002,6.804 0,2.495 0.916,4.994 2.512,6.858 1.751,2.046 4.199,3.172 6.893,3.172 3.37,0 5.619,-1.958 5.619,-4.862 0,-1.343 -0.438,-2.447 -1.298,-3.286 -1.45,-1.413 -4.067,-2.122 -7.998,-2.146 -0.942,0 -1.157,0.476 -1.324,0.792 l -0.034,0.051 c -0.105,0.136 -0.307,0.107 -0.414,0.022 -0.107,-0.084 -0.178,-0.268 -0.074,-0.402 z"
         style="fill:#000000;fill-opacity:1;fill-rule:nonzero;stroke:none"
         id="path1664"
         inkscape:connector-curvature="0" />
    </g>
    <g
       id="g1670"
       transform="matrix(1.5931126,0,0,-1.5931126,191.8653,-527.34442)">
      <path
         d="M 0,0 C 1.209,0 2.443,-0.21 3.3,-0.561 3.311,-0.565 3.317,-0.576 3.315,-0.588 L 2.583,-4.429 C 2.581,-4.436 2.577,-4.443 2.57,-4.446 2.562,-4.448 2.554,-4.449 2.548,-4.445 c -0.739,0.413 -1.595,0.613 -2.614,0.613 -3.409,0 -5.44,-2.972 -5.44,-5.835 0,-2.43 1.623,-3.301 3.136,-3.301 1.353,0 2.502,0.296 3.963,1.015 0.009,0.004 0.018,0.003 0.025,-0.002 0.007,-0.005 0.011,-0.015 0.009,-0.023 l -0.748,-3.947 c -0.001,-0.007 -0.006,-0.013 -0.013,-0.017 -1.108,-0.536 -2.822,-0.857 -4.585,-0.857 -4.137,0 -6.804,2.591 -6.804,6.605 C -10.523,-4.382 -6.001,0 0,0"
         style="fill:#000000;fill-opacity:1;fill-rule:nonzero;stroke:none"
         id="path1672"
         inkscape:connector-curvature="0" />
    </g>
    <g
       id="g1674"
       transform="matrix(1.5931126,0,0,-1.5931126,160.99253,-520.07458)">
      <path
         d="m 0,0 c -1.287,-1.287 -2.252,-3.704 -2.251,-5.628 10e-4,-1.689 0.627,-2.741 1.716,-2.741 1.742,0 3.243,1.822 3.76,4.49 0.115,0.596 0.232,1.203 0.317,1.742 0.085,0.539 0.137,1.015 0.122,1.347 C 3.608,0.349 3.015,0.964 1.952,0.964 1.3,0.964 0.626,0.627 0,0 m 1.776,-11.899 c -0.004,0.007 -0.005,0.013 -0.004,0.02 l 0.142,0.721 c 0.128,0.648 0.654,1.544 0.853,1.837 l 0.031,0.054 C 2.867,-9.112 2.766,-8.929 2.64,-8.873 2.49,-8.809 2.302,-8.859 2.232,-9.016 L 2.213,-9.075 C 2.127,-9.42 1.95,-10.217 1.207,-10.896 c -0.944,-0.862 -2.25,-1.374 -3.672,-1.374 -3.183,0 -4.62,2.825 -4.622,5.652 -0.002,3.212 1.259,6.393 3.373,8.507 1.77,1.772 4.055,2.708 6.609,2.708 C 4.839,4.589 6.275,4.026 7.176,2.935 8.509,1.319 8.401,-1.106 8.067,-2.87 L 6.345,-11.888 C 6.342,-11.899 6.333,-11.907 6.321,-11.907 H 1.795 c -0.007,0 -0.014,0.003 -0.019,0.008"
         style="fill:#000000;fill-opacity:1;fill-rule:nonzero;stroke:none"
         id="path1676"
         inkscape:connector-curvature="0" />
    </g>
  </g>
</svg>
