<svg viewBox="0 0 16 16" fill="none" xmlns="http://www.w3.org/2000/svg">
<path d="M12.424 13.6644C11.9261 13.3919 11.6418 13.0888 11.5788 12.7575C11.518 12.4368 11.6582 12.08 12.0071 11.6666C12.8414 10.6884 13.301 9.43183 13.301 8.12788C13.301 5.15457 10.9336 2.73534 8.02421 2.73534H7.97702C5.06723 2.73534 2.70067 5.15457 2.70067 8.12788C2.69953 9.42853 3.15921 10.6856 3.99473 11.6668C4.34656 12.0829 4.48298 12.4253 4.42472 12.7431C4.3642 13.0739 4.07925 13.3833 3.57706 13.6638C2.80694 13.0076 2.12606 12.1318 1.70613 11.253C1.48046 10.776 1.30301 10.2723 1.18464 9.75614C1.06299 9.22533 1.00001 8.67755 1.00001 8.1283C0.998191 7.17508 1.18448 6.23127 1.54775 5.35331C1.89858 4.5062 2.40704 3.73677 3.04491 3.08774C3.68005 2.43667 4.43293 1.91791 5.26171 1.56032C6.1221 1.18821 7.0354 0.999953 7.97702 0.999953H8.02421C8.95713 0.998032 9.88083 1.18863 10.7399 1.56032C11.5704 1.91943 12.3165 2.43346 12.9567 3.08753C13.5937 3.73677 14.1014 4.5061 14.4516 5.35289C14.8152 6.23079 15.0017 7.17461 15 8.12788C15.0001 8.67586 14.9387 9.22204 14.817 9.75572C14.6988 10.2721 14.5236 10.7758 14.2953 11.2525C13.8754 12.1318 13.1949 13.0078 12.4238 13.664M9.85001 14.9982C9.76897 14.9457 9.49203 14.7355 9.22226 14.3533C8.96337 13.9881 8.65852 13.3823 8.67452 12.571C8.68478 12.0825 8.78038 11.6072 8.96172 11.158C9.1402 10.7129 9.3954 10.3052 9.72076 9.94628L9.72282 9.94356L9.79462 9.85865C9.9177 9.71295 10.0445 9.56264 10.1458 9.38655C10.2684 9.17619 10.3593 8.94822 10.4156 8.71025C10.4988 8.34832 10.5034 7.97214 10.4291 7.60818C10.3604 7.2757 10.224 6.95348 10.0291 6.67571C9.84201 6.40653 9.59829 6.17174 9.32381 5.9969C9.03476 5.81339 8.71163 5.69311 8.3748 5.64366C8.25977 5.62679 8.1437 5.61838 8.02749 5.6185H7.97743C7.86136 5.61847 7.74544 5.62688 7.63053 5.64366C7.29369 5.69305 6.97055 5.81334 6.68153 5.9969C6.40725 6.17174 6.16292 6.40653 5.97583 6.67571C5.78208 6.95565 5.64599 7.27289 5.57579 7.60818C5.50141 7.97215 5.50617 8.34837 5.58974 8.71025C5.64349 8.94086 5.73457 9.1702 5.8591 9.38655C5.96085 9.56264 6.08763 9.71295 6.21051 9.85865L6.28272 9.94356L6.28416 9.94628C6.60691 10.3 6.86428 10.7105 7.04382 11.158C7.22332 11.6066 7.31933 12.0804 7.33102 12.571C7.34743 13.3823 7.04238 13.9881 6.78369 14.3533C6.5129 14.7355 6.23657 14.946 6.15533 14.9982L5.75119 14.8738C5.349 14.7359 4.95999 14.5607 4.58904 14.3504C4.90382 14.1771 5.16691 13.9201 5.35051 13.6066C5.5341 13.2931 5.63136 12.9347 5.632 12.5693C5.632 12.0756 5.44429 11.6022 5.074 11.1647C5.06847 11.158 5.06272 11.1525 5.05862 11.1479L4.94784 11.0238L4.65079 10.6683C4.31276 10.2049 4.07062 9.67611 3.93914 9.11402C3.79794 8.50258 3.79009 7.86689 3.91616 7.25201C4.03436 6.68373 4.26479 6.14608 4.59335 5.67196C4.91303 5.21366 5.31781 4.82409 5.78463 4.52545C6.27001 4.21602 6.82636 4.00911 7.39297 3.92672C7.58684 3.89855 7.78243 3.88454 7.97826 3.88479H8.03077C8.22666 3.88454 8.42232 3.89855 8.61626 3.92672C9.18716 4.0106 9.73485 4.21446 10.2248 4.52545C10.688 4.82062 11.1002 5.21725 11.4163 5.67217C11.7429 6.14239 11.9774 6.68892 12.0939 7.25222C12.2194 7.86716 12.2115 8.50275 12.0707 9.11423C11.939 9.67637 11.6967 10.2052 11.3584 10.6685C11.2682 10.7943 11.1677 10.9047 11.061 11.024L10.9537 11.145C10.9525 11.146 10.9516 11.1471 10.9504 11.1479C10.9463 11.1521 10.9402 11.158 10.935 11.1653C10.5596 11.6265 10.377 12.0842 10.377 12.5712C10.377 13.3171 10.7824 14.0015 11.4208 14.3523C11.0498 14.5626 10.6607 14.7378 10.2585 14.8757L9.8537 15M8.00062 9.6031C7.24158 9.6031 6.62347 8.97167 6.62347 8.1958C6.62347 7.41993 7.24137 6.78829 8.00062 6.78829C8.75986 6.78829 9.37756 7.41972 9.37756 8.1958C9.37718 8.56888 9.23199 8.92658 8.97385 9.19041C8.71571 9.45424 8.36571 9.60266 8.00062 9.6031Z" fill="#F0424D"/>
</svg>