<svg viewBox="0 0 16 16" fill="none" xmlns="http://www.w3.org/2000/svg">
<path d="M2.0354 3.85583L7.68451 0.559591C7.82344 0.480136 7.99598 0.480136 8.13491 0.559591L13.6899 3.65152C14.0014 3.83086 14.0059 4.28716 13.6966 4.47104L8.03408 7.7582C7.89067 7.84447 7.7114 7.84447 7.56799 7.7582L2.02644 4.67535C1.71721 4.49147 1.72169 4.0329 2.0354 3.85583Z" fill="#31C4FF"/>
<path d="M14.6333 11.2315L14.6983 6.19635C14.7252 5.81723 14.3263 5.56071 14.0059 5.75367L9.16569 8.52324C9.02452 8.60723 8.60773 8.90916 8.60773 9.43129V15.0272C8.60773 15.3927 8.99539 15.6197 9.30238 15.4335C9.30238 15.4335 14.0238 12.6072 14.156 12.4733C14.2882 12.3393 14.6333 12.1305 14.6333 11.2315Z" fill="#3DE9E9"/>
<path d="M1.97938 12.4483C1.57604 12.244 1.33851 11.8558 1.34971 11.4381L1.30042 5.99203C1.31162 5.63789 1.68584 5.42223 1.98835 5.59703L3.73619 6.60043C3.88856 6.68897 3.97819 6.85696 3.96923 7.0363L3.91769 9.78316C3.89752 10.3212 4.02077 10.6935 4.28743 11.0181C4.4286 11.1907 4.60114 11.3337 4.79161 11.4449L7.31477 12.95C7.45595 13.034 7.54334 13.1906 7.54334 13.3586V15.0226C7.54334 15.3836 7.16464 15.6106 6.85541 15.4335L1.97938 12.4483Z" fill="#2EB5BD"/>
</svg>