<svg viewBox="0 0 16 16" fill="none" xmlns="http://www.w3.org/2000/svg">
<path d="M1.96999 3.85583L7.67935 0.559591C7.81976 0.480136 7.99415 0.480136 8.13456 0.559591L13.7488 3.65152C14.0636 3.83086 14.0681 4.28716 13.7556 4.47104L8.03265 7.7582C7.88771 7.84447 7.70653 7.84447 7.56159 7.7582L1.96093 4.67535C1.6484 4.49147 1.65293 4.0329 1.96999 3.85583Z" fill="#A2E5EB"/>
<path d="M14.7023 10.9432L14.7679 6.19635C14.7815 5.79453 14.392 5.56071 14.0681 5.75367L9.17633 8.52324C9.03365 8.60723 8.61242 8.90916 8.61242 9.43129V15.0272C8.61242 15.3927 9.00421 15.6197 9.31448 15.4335C9.31448 15.4335 12.0593 13.8081 13.4431 12.9636C13.8847 12.6958 14.1814 12.5005 14.2199 12.4733C14.4735 12.2917 14.6887 12.017 14.7023 11.2315V10.9432Z" fill="#73D7E2"/>
<path d="M6.84593 15.4313C7.1562 15.6083 7.5412 15.3813 7.5412 15.0204V13.3564C7.5412 13.1884 7.45288 13.034 7.3102 12.9477L4.76013 11.4426C4.56762 11.3291 4.39324 11.1861 4.25056 11.0158C3.98333 10.6912 3.8565 10.3189 3.87688 9.78089L3.92897 7.03403C3.93803 6.85469 3.84744 6.68669 3.69344 6.59816L1.92696 5.59476C1.62122 5.41996 1.24301 5.63562 1.23169 5.98976L1.28151 11.4358C1.29284 11.8354 1.4944 12.1895 1.92243 12.4438L5.5558 14.664L6.84593 15.4313Z" fill="#16BDCE"/>
</svg>