<svg viewBox="0 0 16 16" fill="none" xmlns="http://www.w3.org/2000/svg">
<path fill-rule="evenodd" clip-rule="evenodd" d="M15 8C15 11.866 11.866 15 8 15C4.13401 15 1 11.866 1 8C1 4.13401 4.13401 1 8 1C11.866 1 15 4.13401 15 8ZM10.6469 6.40723H11.7488C11.7844 6.40723 11.8145 6.4373 11.8158 6.47422V9.52715C11.8158 9.56269 11.7871 9.59277 11.7502 9.59277H10.6482C10.6277 9.5914 10.6072 9.60371 10.5977 9.62148L9.71172 11.1555C9.70078 11.1732 9.68027 11.1842 9.65977 11.1842H6.04902C6.02852 11.1855 6.00801 11.1732 5.99844 11.1555L5.07969 9.56269L4.19375 8.02871C4.18418 8.00957 4.18418 7.98769 4.19375 7.96992L5.07969 6.43594L5.99981 4.84453C6.00938 4.82676 6.02988 4.81582 6.05039 4.81582H9.65977C9.68164 4.81582 9.70078 4.82676 9.71172 4.84453L10.5963 6.37851C10.6059 6.39629 10.6264 6.40723 10.6469 6.40723ZM7.25078 10.1L7.52832 9.62148C7.53926 9.60371 7.54063 9.58183 7.52832 9.56133L6.63828 8.02051C6.63555 8.01367 6.63281 8.00683 6.63281 7.99863C6.63281 7.9918 6.63418 7.98359 6.63828 7.97676L7.52832 6.43457C7.53789 6.41953 7.53926 6.39902 7.53106 6.38262L7.25352 5.90137C7.24941 5.89316 7.24258 5.88769 7.23574 5.88359C7.22617 5.87949 7.2166 5.87676 7.20703 5.87676H6.65742C6.63965 5.87676 6.62188 5.88769 6.61231 5.9041L5.71133 7.46269L5.41465 7.97676C5.41055 7.98359 5.40781 7.99316 5.40781 8.00137C5.40645 8.01094 5.40918 8.01914 5.41328 8.02598L5.70859 8.53047L5.78926 8.67129L6.61094 10.0973C6.61914 10.115 6.63691 10.1246 6.65606 10.1246H7.20703C7.2166 10.1246 7.2248 10.1219 7.23301 10.1178C7.23984 10.1137 7.24668 10.1068 7.25078 10.1ZM9.99609 8.53047L10.2914 8.02598C10.2955 8.01777 10.2982 8.00957 10.2982 8.0041C10.2982 7.9959 10.2955 7.98769 10.2914 7.97949L9.99473 7.46543L9.09375 5.90684C9.08555 5.88906 9.06777 5.87949 9.04863 5.87949H8.49629C8.48535 5.87949 8.47578 5.88086 8.46758 5.88633C8.46074 5.89043 8.45391 5.89726 8.44981 5.9041L8.17227 6.38535C8.16406 6.40176 8.16543 6.4209 8.175 6.4373L9.06504 7.97949C9.06777 7.98633 9.07051 7.99316 9.07051 8.00137C9.07051 8.0082 9.06914 8.01641 9.06504 8.02324L8.175 9.56406C8.16406 9.58184 8.16406 9.60371 8.17637 9.62148L8.45391 10.1C8.45801 10.1082 8.46484 10.1137 8.47168 10.1178C8.47988 10.1219 8.48809 10.1246 8.49766 10.1246H9.04863C9.06777 10.1246 9.08418 10.1137 9.09375 10.0973L9.91543 8.67129L9.99609 8.53047Z" fill="#008AAA"/>
</svg>