<svg viewBox="0 0 16 16" fill="none" xmlns="http://www.w3.org/2000/svg">
<path fill-rule="evenodd" clip-rule="evenodd" d="M2.70393 1.6604H13.2473C13.9094 1.6604 14.4512 2.20217 14.4512 2.86434V5.69581H11.5306V5.23207C11.5306 4.87312 11.2396 4.58106 10.8795 4.58106H5.07167C4.71272 4.58106 4.42066 4.87201 4.42066 5.23207V5.69581H1.5V2.86434C1.5 2.20217 2.04177 1.6604 2.70393 1.6604ZM10.9261 11.419C11.285 11.419 11.5771 11.128 11.5771 10.768L11.5793 10.3042H14.5V13.1357C14.5 13.7979 13.9582 14.3396 13.2961 14.3396H2.75048C2.08832 14.3396 1.54654 13.7979 1.54654 13.1357V10.3042H4.4672V10.768C4.4672 11.1269 4.75815 11.419 5.11822 11.419H10.9261ZM1.54443 6.54291V9.46357H4.4428V6.54291H1.54443ZM11.5776 9.46357V6.54291H14.476V9.46357H11.5776Z" fill="#ED1844"/>
</svg>