<svg viewBox="0 0 20 20" fill="none" xmlns="http://www.w3.org/2000/svg">
<path fill-rule="evenodd" clip-rule="evenodd" d="M14.5408 6.5005H16.4876C16.8861 6.5005 17.2134 6.82783 17.2134 7.22346V10.9777C17.2134 11.3762 16.8861 11.7007 16.4905 11.7007H14.5436C14.1451 11.7007 13.8206 11.3734 13.8206 10.9777V9.50335C13.6442 9.63428 13.5303 9.84206 13.5303 10.0783V11.3136C13.5303 11.7121 13.8576 12.0366 14.2533 12.0366H15.517V13.9578C15.517 14.2026 15.3178 14.399 15.0759 14.399H12.6992C12.4544 14.399 12.258 14.2026 12.258 13.9578V12.1732C12.258 11.9284 12.0616 11.732 11.8169 11.732H5.88232C5.63754 11.732 5.44115 11.9312 5.44115 12.1732V13.9578C5.44115 14.2026 5.24475 14.399 4.99997 14.399H2.62331C2.37853 14.399 2.18214 14.2026 2.18214 13.9578V8.82308L1.10908 9.66843C1.06354 9.70543 0.995232 9.69974 0.95823 9.6542L0.65083 9.29272C0.619521 9.25572 0.616675 9.20164 0.642291 9.16179L2.21914 6.76236C2.28745 6.60866 2.44115 6.50335 2.62047 6.50335H10.9971C11.2704 6.50335 11.4781 6.74813 11.4326 7.01568L11.2618 8.0375C11.2191 8.30506 11.4241 8.54984 11.6973 8.54984H13.3795C13.5958 8.54984 13.7751 8.39614 13.8121 8.1912C13.7096 8.22536 13.5929 8.24528 13.4705 8.24528H12.2694C11.8709 8.24528 11.6005 7.9265 11.666 7.53371L11.8681 6.31265C11.9335 5.92271 12.0872 5.60107 12.2068 5.60107C12.3263 5.60107 12.426 5.9284 12.426 6.32403V6.50904C12.4487 6.5062 12.4715 6.50335 12.4943 6.50335H14.4924C14.5094 6.5005 14.5237 6.5005 14.5408 6.5005ZM19.1631 6.31265L19.3652 7.53371V7.53086C19.4307 7.92365 19.1603 8.24528 18.7647 8.24528H17.5635H17.4952V7.36862C17.518 7.36578 17.5407 7.36578 17.5635 7.36578H17.8823C18.2808 7.36578 18.6053 7.03845 18.6053 6.64282V6.32403C18.6053 5.92555 18.7049 5.60107 18.8244 5.60107C18.944 5.60107 19.0977 5.91986 19.1631 6.31265Z" fill="#2453FF"/>
</svg>